G04 EAGLE Gerber RS-274X export*
G75*
%MOMM*%
%FSLAX34Y34*%
%LPD*%
%INBottom Copper*%
%IPPOS*%
%AMOC8*
5,1,8,0,0,1.08239X$1,22.5*%
G01*
%ADD10R,5.000000X3.500000*%
%ADD11R,3.500000X5.000000*%
%ADD12R,3.000000X3.000000*%
%ADD13C,1.778000*%
%ADD14C,1.524000*%
%ADD15C,1.879600*%
%ADD16P,1.429621X8X112.500000*%
%ADD17P,1.814519X8X22.500000*%
%ADD18C,1.676400*%
%ADD19C,0.508000*%
%ADD20C,0.756400*%

G36*
X558841Y-561211D02*
X558841Y-561211D01*
X558911Y-561212D01*
X565541Y-560922D01*
X565551Y-560921D01*
X565561Y-560921D01*
X565871Y-560886D01*
X578931Y-558584D01*
X578994Y-558566D01*
X579058Y-558558D01*
X579358Y-558469D01*
X591819Y-553934D01*
X591878Y-553906D01*
X591941Y-553886D01*
X592220Y-553746D01*
X602730Y-547679D01*
X602902Y-547558D01*
X603076Y-547439D01*
X603086Y-547428D01*
X603098Y-547420D01*
X603246Y-547270D01*
X603396Y-547122D01*
X603405Y-547111D01*
X603415Y-547100D01*
X603534Y-546928D01*
X603656Y-546755D01*
X603662Y-546741D01*
X603670Y-546729D01*
X603757Y-546539D01*
X603847Y-546347D01*
X603850Y-546333D01*
X603856Y-546319D01*
X603908Y-546117D01*
X603962Y-545912D01*
X603963Y-545897D01*
X603967Y-545883D01*
X603982Y-545671D01*
X603999Y-545463D01*
X603998Y-545448D01*
X603999Y-545434D01*
X603976Y-545223D01*
X603956Y-545015D01*
X603952Y-545001D01*
X603951Y-544986D01*
X603892Y-544784D01*
X603835Y-544581D01*
X603828Y-544568D01*
X603824Y-544554D01*
X603731Y-544366D01*
X603639Y-544176D01*
X603630Y-544164D01*
X603624Y-544151D01*
X603498Y-543982D01*
X603374Y-543811D01*
X603364Y-543801D01*
X603355Y-543790D01*
X603201Y-543645D01*
X603049Y-543499D01*
X603037Y-543491D01*
X603027Y-543481D01*
X602850Y-543367D01*
X602675Y-543250D01*
X602661Y-543244D01*
X602649Y-543236D01*
X602454Y-543154D01*
X602262Y-543070D01*
X602248Y-543067D01*
X602234Y-543061D01*
X602027Y-543015D01*
X601823Y-542967D01*
X601809Y-542966D01*
X601795Y-542963D01*
X601584Y-542954D01*
X601374Y-542942D01*
X601356Y-542944D01*
X601345Y-542943D01*
X601304Y-542949D01*
X601063Y-542972D01*
X591820Y-544436D01*
X580561Y-542652D01*
X570404Y-537477D01*
X562343Y-529416D01*
X557168Y-519259D01*
X555384Y-508000D01*
X557168Y-496741D01*
X562343Y-486584D01*
X570404Y-478523D01*
X580561Y-473348D01*
X591820Y-471564D01*
X603079Y-473348D01*
X613236Y-478523D01*
X621297Y-486584D01*
X626472Y-496741D01*
X628130Y-507206D01*
X628138Y-507239D01*
X628141Y-507272D01*
X628193Y-507456D01*
X628240Y-507643D01*
X628254Y-507674D01*
X628263Y-507706D01*
X628346Y-507878D01*
X628425Y-508053D01*
X628444Y-508081D01*
X628458Y-508111D01*
X628571Y-508267D01*
X628679Y-508425D01*
X628703Y-508449D01*
X628723Y-508476D01*
X628861Y-508609D01*
X628995Y-508745D01*
X629023Y-508765D01*
X629047Y-508788D01*
X629207Y-508894D01*
X629363Y-509005D01*
X629394Y-509019D01*
X629422Y-509038D01*
X629597Y-509114D01*
X629771Y-509195D01*
X629804Y-509204D01*
X629835Y-509218D01*
X630021Y-509262D01*
X630206Y-509311D01*
X630240Y-509314D01*
X630273Y-509322D01*
X630464Y-509332D01*
X630655Y-509348D01*
X630689Y-509345D01*
X630722Y-509347D01*
X630913Y-509323D01*
X631103Y-509305D01*
X631136Y-509296D01*
X631169Y-509292D01*
X631353Y-509235D01*
X631537Y-509184D01*
X631567Y-509169D01*
X631600Y-509159D01*
X631770Y-509071D01*
X631942Y-508987D01*
X631970Y-508968D01*
X632000Y-508952D01*
X632151Y-508836D01*
X632307Y-508723D01*
X632330Y-508698D01*
X632357Y-508678D01*
X632485Y-508537D01*
X632618Y-508398D01*
X632637Y-508370D01*
X632660Y-508345D01*
X632762Y-508183D01*
X632868Y-508023D01*
X632881Y-507992D01*
X632899Y-507964D01*
X633024Y-507677D01*
X634669Y-503158D01*
X634686Y-503095D01*
X634710Y-503034D01*
X634784Y-502731D01*
X637086Y-489671D01*
X637087Y-489661D01*
X637090Y-489652D01*
X637122Y-489341D01*
X637412Y-482711D01*
X637410Y-482669D01*
X637414Y-482600D01*
X637414Y-38100D01*
X637412Y-38077D01*
X637413Y-38060D01*
X637411Y-38039D01*
X637412Y-37989D01*
X637122Y-31359D01*
X637121Y-31349D01*
X637121Y-31339D01*
X637086Y-31029D01*
X634784Y-17969D01*
X634766Y-17906D01*
X634758Y-17842D01*
X634669Y-17542D01*
X633164Y-13408D01*
X633150Y-13377D01*
X633140Y-13345D01*
X633055Y-13174D01*
X632973Y-13000D01*
X632954Y-12972D01*
X632939Y-12942D01*
X632824Y-12789D01*
X632713Y-12632D01*
X632689Y-12609D01*
X632669Y-12582D01*
X632530Y-12451D01*
X632393Y-12316D01*
X632365Y-12297D01*
X632340Y-12274D01*
X632179Y-12170D01*
X632021Y-12062D01*
X631990Y-12048D01*
X631962Y-12030D01*
X631785Y-11956D01*
X631610Y-11877D01*
X631578Y-11869D01*
X631547Y-11856D01*
X631359Y-11815D01*
X631174Y-11768D01*
X631140Y-11766D01*
X631107Y-11758D01*
X630915Y-11751D01*
X630724Y-11738D01*
X630691Y-11741D01*
X630657Y-11740D01*
X630467Y-11766D01*
X630277Y-11787D01*
X630245Y-11797D01*
X630211Y-11801D01*
X630028Y-11861D01*
X629845Y-11915D01*
X629815Y-11930D01*
X629783Y-11940D01*
X629614Y-12031D01*
X629443Y-12117D01*
X629416Y-12137D01*
X629386Y-12153D01*
X629236Y-12272D01*
X629082Y-12386D01*
X629059Y-12411D01*
X629033Y-12432D01*
X628906Y-12575D01*
X628775Y-12716D01*
X628757Y-12744D01*
X628734Y-12769D01*
X628635Y-12933D01*
X628531Y-13094D01*
X628518Y-13125D01*
X628500Y-13154D01*
X628431Y-13333D01*
X628357Y-13510D01*
X628350Y-13542D01*
X628338Y-13574D01*
X628270Y-13879D01*
X626473Y-25229D01*
X621297Y-35386D01*
X613236Y-43447D01*
X603079Y-48622D01*
X591820Y-50406D01*
X580561Y-48622D01*
X570404Y-43447D01*
X562343Y-35386D01*
X557168Y-25229D01*
X555384Y-13970D01*
X557168Y-2711D01*
X562343Y7446D01*
X570404Y15507D01*
X580561Y20682D01*
X591820Y22466D01*
X603303Y20647D01*
X603519Y20632D01*
X603731Y20616D01*
X603742Y20617D01*
X603752Y20616D01*
X603966Y20640D01*
X604179Y20661D01*
X604189Y20664D01*
X604200Y20665D01*
X604406Y20726D01*
X604612Y20785D01*
X604622Y20790D01*
X604632Y20793D01*
X604824Y20889D01*
X605016Y20983D01*
X605025Y20990D01*
X605035Y20994D01*
X605207Y21124D01*
X605379Y21250D01*
X605387Y21258D01*
X605395Y21264D01*
X605541Y21420D01*
X605689Y21576D01*
X605695Y21585D01*
X605703Y21593D01*
X605819Y21773D01*
X605937Y21952D01*
X605941Y21962D01*
X605947Y21971D01*
X606030Y22170D01*
X606114Y22366D01*
X606117Y22377D01*
X606121Y22387D01*
X606167Y22597D01*
X606216Y22805D01*
X606216Y22816D01*
X606218Y22826D01*
X606227Y23041D01*
X606238Y23255D01*
X606236Y23265D01*
X606237Y23276D01*
X606208Y23490D01*
X606180Y23701D01*
X606177Y23711D01*
X606176Y23722D01*
X606109Y23927D01*
X606045Y24131D01*
X606040Y24140D01*
X606037Y24150D01*
X605935Y24339D01*
X605836Y24529D01*
X605829Y24538D01*
X605824Y24547D01*
X605690Y24716D01*
X605559Y24885D01*
X605550Y24894D01*
X605545Y24900D01*
X605519Y24923D01*
X605333Y25100D01*
X604067Y26162D01*
X604013Y26200D01*
X603965Y26243D01*
X603704Y26416D01*
X592220Y33046D01*
X592161Y33074D01*
X592106Y33109D01*
X591819Y33234D01*
X579358Y37769D01*
X579295Y37786D01*
X579234Y37810D01*
X578931Y37884D01*
X565871Y40186D01*
X565861Y40187D01*
X565852Y40190D01*
X565541Y40222D01*
X558911Y40512D01*
X558869Y40510D01*
X558800Y40514D01*
X304800Y40514D01*
X304759Y40511D01*
X304689Y40512D01*
X296952Y40174D01*
X296942Y40173D01*
X296932Y40173D01*
X296622Y40138D01*
X281382Y37451D01*
X281319Y37434D01*
X281255Y37425D01*
X280955Y37336D01*
X266414Y32044D01*
X266354Y32016D01*
X266292Y31996D01*
X266012Y31857D01*
X257966Y27211D01*
X257935Y27189D01*
X257902Y27173D01*
X257752Y27060D01*
X257598Y26952D01*
X257571Y26925D01*
X257541Y26903D01*
X257413Y26766D01*
X257281Y26632D01*
X257260Y26601D01*
X257234Y26574D01*
X257132Y26416D01*
X257025Y26262D01*
X257010Y26227D01*
X256989Y26196D01*
X256917Y26022D01*
X256839Y25852D01*
X256830Y25815D01*
X256816Y25780D01*
X256775Y25597D01*
X256729Y25415D01*
X256726Y25378D01*
X256718Y25341D01*
X256710Y25153D01*
X256697Y24966D01*
X256701Y24929D01*
X256699Y24891D01*
X256725Y24705D01*
X256745Y24518D01*
X256756Y24482D01*
X256761Y24445D01*
X256819Y24266D01*
X256871Y24086D01*
X256888Y24053D01*
X256900Y24017D01*
X256988Y23851D01*
X257072Y23683D01*
X257095Y23653D01*
X257112Y23620D01*
X257229Y23473D01*
X257341Y23322D01*
X257368Y23296D01*
X257392Y23267D01*
X257532Y23142D01*
X257669Y23014D01*
X257701Y22993D01*
X257729Y22968D01*
X257890Y22871D01*
X258047Y22768D01*
X258081Y22754D01*
X258114Y22734D01*
X258289Y22666D01*
X258462Y22594D01*
X258498Y22585D01*
X258534Y22572D01*
X258839Y22504D01*
X270339Y20682D01*
X280496Y15507D01*
X288557Y7446D01*
X293732Y-2711D01*
X295516Y-13970D01*
X293922Y-24034D01*
X293915Y-24137D01*
X293898Y-24240D01*
X293899Y-24362D01*
X293891Y-24483D01*
X293902Y-24586D01*
X293904Y-24690D01*
X293927Y-24810D01*
X293940Y-24930D01*
X293970Y-25030D01*
X293989Y-25132D01*
X294033Y-25246D01*
X294068Y-25362D01*
X294114Y-25455D01*
X294152Y-25552D01*
X294215Y-25656D01*
X294269Y-25765D01*
X294332Y-25848D01*
X294386Y-25937D01*
X294466Y-26028D01*
X294539Y-26125D01*
X294615Y-26197D01*
X294684Y-26274D01*
X294779Y-26350D01*
X294868Y-26433D01*
X294956Y-26489D01*
X295037Y-26554D01*
X295144Y-26611D01*
X295246Y-26677D01*
X295342Y-26717D01*
X295434Y-26766D01*
X295549Y-26804D01*
X295661Y-26851D01*
X295763Y-26874D01*
X295862Y-26906D01*
X295982Y-26922D01*
X296101Y-26949D01*
X296205Y-26953D01*
X296308Y-26967D01*
X296430Y-26962D01*
X296551Y-26967D01*
X296654Y-26953D01*
X296758Y-26949D01*
X296877Y-26922D01*
X296997Y-26906D01*
X297096Y-26874D01*
X297198Y-26851D01*
X297310Y-26804D01*
X297425Y-26767D01*
X297517Y-26718D01*
X297613Y-26678D01*
X297715Y-26611D01*
X297822Y-26554D01*
X297904Y-26490D01*
X297991Y-26433D01*
X298128Y-26313D01*
X298175Y-26275D01*
X298193Y-26255D01*
X298225Y-26226D01*
X300997Y-23455D01*
X302498Y-21954D01*
X303991Y-21335D01*
X366167Y-21335D01*
X366331Y-21321D01*
X366495Y-21314D01*
X366555Y-21301D01*
X366616Y-21295D01*
X366775Y-21252D01*
X366935Y-21216D01*
X366991Y-21193D01*
X367050Y-21177D01*
X367198Y-21106D01*
X367350Y-21043D01*
X367402Y-21010D01*
X367457Y-20983D01*
X367590Y-20888D01*
X367729Y-20798D01*
X367786Y-20747D01*
X367823Y-20721D01*
X367865Y-20678D01*
X367963Y-20592D01*
X371283Y-17271D01*
X378017Y-17271D01*
X382779Y-22033D01*
X382779Y-28767D01*
X378017Y-33529D01*
X371283Y-33529D01*
X367963Y-30208D01*
X367836Y-30103D01*
X367716Y-29991D01*
X367664Y-29959D01*
X367617Y-29920D01*
X367475Y-29838D01*
X367336Y-29750D01*
X367279Y-29726D01*
X367226Y-29696D01*
X367072Y-29641D01*
X366919Y-29579D01*
X366860Y-29566D01*
X366802Y-29545D01*
X366640Y-29519D01*
X366479Y-29484D01*
X366402Y-29479D01*
X366358Y-29472D01*
X366297Y-29473D01*
X366167Y-29465D01*
X307535Y-29465D01*
X307372Y-29479D01*
X307207Y-29486D01*
X307148Y-29499D01*
X307087Y-29505D01*
X306928Y-29548D01*
X306768Y-29584D01*
X306711Y-29607D01*
X306653Y-29623D01*
X306504Y-29694D01*
X306352Y-29757D01*
X306301Y-29790D01*
X306246Y-29817D01*
X306112Y-29912D01*
X305974Y-30002D01*
X305916Y-30053D01*
X305880Y-30079D01*
X305837Y-30122D01*
X305740Y-30208D01*
X258808Y-77140D01*
X258703Y-77266D01*
X258591Y-77387D01*
X258559Y-77438D01*
X258520Y-77485D01*
X258438Y-77628D01*
X258350Y-77767D01*
X258326Y-77823D01*
X258296Y-77876D01*
X258241Y-78031D01*
X258179Y-78183D01*
X258166Y-78243D01*
X258145Y-78301D01*
X258119Y-78463D01*
X258084Y-78624D01*
X258079Y-78700D01*
X258072Y-78745D01*
X258073Y-78806D01*
X258065Y-78935D01*
X258065Y-116003D01*
X258079Y-116166D01*
X258086Y-116331D01*
X258099Y-116390D01*
X258105Y-116451D01*
X258148Y-116610D01*
X258184Y-116770D01*
X258207Y-116827D01*
X258223Y-116886D01*
X258294Y-117034D01*
X258357Y-117186D01*
X258390Y-117237D01*
X258417Y-117292D01*
X258512Y-117426D01*
X258602Y-117564D01*
X258653Y-117622D01*
X258679Y-117658D01*
X258722Y-117701D01*
X258808Y-117798D01*
X263907Y-122897D01*
X263907Y-131103D01*
X258103Y-136907D01*
X249897Y-136907D01*
X244093Y-131103D01*
X244093Y-122897D01*
X249192Y-117798D01*
X249297Y-117672D01*
X249409Y-117551D01*
X249441Y-117500D01*
X249480Y-117453D01*
X249562Y-117310D01*
X249650Y-117171D01*
X249674Y-117115D01*
X249704Y-117062D01*
X249759Y-116907D01*
X249821Y-116755D01*
X249834Y-116695D01*
X249855Y-116638D01*
X249881Y-116475D01*
X249916Y-116315D01*
X249921Y-116238D01*
X249928Y-116193D01*
X249927Y-116132D01*
X249935Y-116003D01*
X249935Y-75391D01*
X250554Y-73898D01*
X271336Y-53115D01*
X271403Y-53035D01*
X271477Y-52962D01*
X271547Y-52863D01*
X271625Y-52770D01*
X271677Y-52680D01*
X271737Y-52595D01*
X271788Y-52484D01*
X271849Y-52379D01*
X271883Y-52281D01*
X271927Y-52187D01*
X271959Y-52069D01*
X271999Y-51955D01*
X272016Y-51852D01*
X272043Y-51752D01*
X272053Y-51631D01*
X272073Y-51511D01*
X272071Y-51406D01*
X272080Y-51303D01*
X272068Y-51182D01*
X272067Y-51060D01*
X272047Y-50958D01*
X272037Y-50855D01*
X272004Y-50738D01*
X271981Y-50618D01*
X271944Y-50521D01*
X271916Y-50421D01*
X271863Y-50312D01*
X271819Y-50198D01*
X271765Y-50109D01*
X271719Y-50016D01*
X271648Y-49917D01*
X271585Y-49814D01*
X271516Y-49736D01*
X271455Y-49651D01*
X271367Y-49567D01*
X271287Y-49476D01*
X271205Y-49412D01*
X271130Y-49339D01*
X271029Y-49272D01*
X270934Y-49197D01*
X270842Y-49148D01*
X270755Y-49090D01*
X270644Y-49042D01*
X270537Y-48984D01*
X270438Y-48952D01*
X270342Y-48910D01*
X270224Y-48882D01*
X270109Y-48845D01*
X270005Y-48831D01*
X269904Y-48807D01*
X269783Y-48800D01*
X269662Y-48784D01*
X269558Y-48788D01*
X269455Y-48782D01*
X269274Y-48799D01*
X269213Y-48802D01*
X269186Y-48808D01*
X269144Y-48812D01*
X259080Y-50406D01*
X247821Y-48622D01*
X237664Y-43447D01*
X229603Y-35386D01*
X224428Y-25229D01*
X223800Y-21266D01*
X223792Y-21234D01*
X223788Y-21200D01*
X223737Y-21016D01*
X223690Y-20830D01*
X223676Y-20799D01*
X223667Y-20766D01*
X223584Y-20594D01*
X223505Y-20419D01*
X223486Y-20391D01*
X223471Y-20361D01*
X223359Y-20206D01*
X223251Y-20048D01*
X223227Y-20024D01*
X223207Y-19996D01*
X223069Y-19863D01*
X222934Y-19727D01*
X222907Y-19708D01*
X222883Y-19684D01*
X222723Y-19578D01*
X222567Y-19468D01*
X222536Y-19453D01*
X222508Y-19435D01*
X222333Y-19358D01*
X222159Y-19277D01*
X222126Y-19268D01*
X222095Y-19255D01*
X221909Y-19211D01*
X221724Y-19161D01*
X221690Y-19159D01*
X221657Y-19151D01*
X221466Y-19140D01*
X221275Y-19124D01*
X221241Y-19128D01*
X221207Y-19126D01*
X221017Y-19149D01*
X220827Y-19167D01*
X220794Y-19176D01*
X220761Y-19181D01*
X220577Y-19237D01*
X220393Y-19289D01*
X220363Y-19303D01*
X220330Y-19313D01*
X220160Y-19402D01*
X219988Y-19485D01*
X219960Y-19505D01*
X219930Y-19520D01*
X219779Y-19637D01*
X219623Y-19750D01*
X219600Y-19774D01*
X219573Y-19794D01*
X219444Y-19936D01*
X219311Y-20074D01*
X219293Y-20102D01*
X219270Y-20127D01*
X219168Y-20290D01*
X219062Y-20449D01*
X219048Y-20480D01*
X219030Y-20509D01*
X218906Y-20795D01*
X216664Y-26955D01*
X216647Y-27018D01*
X216622Y-27079D01*
X216549Y-27382D01*
X213862Y-42622D01*
X213861Y-42632D01*
X213859Y-42641D01*
X213826Y-42952D01*
X213488Y-50689D01*
X213490Y-50731D01*
X213486Y-50800D01*
X213486Y-469900D01*
X213489Y-469941D01*
X213488Y-470011D01*
X213826Y-477748D01*
X213827Y-477758D01*
X213827Y-477768D01*
X213862Y-478078D01*
X216549Y-493318D01*
X216566Y-493381D01*
X216575Y-493445D01*
X216664Y-493745D01*
X220676Y-504767D01*
X220690Y-504798D01*
X220699Y-504830D01*
X220785Y-505002D01*
X220866Y-505175D01*
X220886Y-505203D01*
X220901Y-505233D01*
X221016Y-505386D01*
X221126Y-505543D01*
X221150Y-505567D01*
X221171Y-505594D01*
X221311Y-505724D01*
X221447Y-505859D01*
X221475Y-505878D01*
X221500Y-505901D01*
X221661Y-506005D01*
X221819Y-506113D01*
X221850Y-506127D01*
X221878Y-506145D01*
X222055Y-506219D01*
X222229Y-506298D01*
X222262Y-506306D01*
X222293Y-506319D01*
X222481Y-506361D01*
X222666Y-506407D01*
X222700Y-506409D01*
X222733Y-506417D01*
X222925Y-506425D01*
X223115Y-506438D01*
X223149Y-506434D01*
X223183Y-506435D01*
X223373Y-506409D01*
X223563Y-506388D01*
X223595Y-506379D01*
X223629Y-506374D01*
X223812Y-506315D01*
X223995Y-506261D01*
X224025Y-506245D01*
X224057Y-506235D01*
X224226Y-506144D01*
X224397Y-506059D01*
X224424Y-506038D01*
X224454Y-506022D01*
X224604Y-505904D01*
X224758Y-505789D01*
X224781Y-505764D01*
X224807Y-505743D01*
X224934Y-505600D01*
X225065Y-505460D01*
X225083Y-505431D01*
X225105Y-505406D01*
X225205Y-505242D01*
X225309Y-505081D01*
X225322Y-505050D01*
X225340Y-505021D01*
X225409Y-504842D01*
X225482Y-504666D01*
X225490Y-504633D01*
X225502Y-504601D01*
X225570Y-504296D01*
X226968Y-495471D01*
X232143Y-485314D01*
X240204Y-477253D01*
X250361Y-472078D01*
X261620Y-470294D01*
X272879Y-472078D01*
X283036Y-477253D01*
X291097Y-485314D01*
X296272Y-495471D01*
X298056Y-506730D01*
X296272Y-517989D01*
X291097Y-528146D01*
X283036Y-536207D01*
X272879Y-541382D01*
X261620Y-543166D01*
X258791Y-542718D01*
X258581Y-542703D01*
X258370Y-542686D01*
X258356Y-542688D01*
X258341Y-542687D01*
X258132Y-542710D01*
X257922Y-542730D01*
X257908Y-542734D01*
X257894Y-542736D01*
X257692Y-542796D01*
X257489Y-542853D01*
X257476Y-542859D01*
X257462Y-542863D01*
X257274Y-542958D01*
X257084Y-543050D01*
X257072Y-543059D01*
X257059Y-543065D01*
X256892Y-543190D01*
X256720Y-543315D01*
X256710Y-543326D01*
X256699Y-543335D01*
X256556Y-543487D01*
X256409Y-543641D01*
X256401Y-543653D01*
X256391Y-543664D01*
X256278Y-543839D01*
X256161Y-544016D01*
X256155Y-544030D01*
X256147Y-544042D01*
X256066Y-544235D01*
X255982Y-544430D01*
X255979Y-544444D01*
X255973Y-544457D01*
X255927Y-544664D01*
X255880Y-544868D01*
X255879Y-544882D01*
X255876Y-544897D01*
X255867Y-545108D01*
X255856Y-545318D01*
X255858Y-545332D01*
X255857Y-545347D01*
X255886Y-545556D01*
X255912Y-545764D01*
X255916Y-545778D01*
X255918Y-545793D01*
X255984Y-545994D01*
X256046Y-546194D01*
X256053Y-546207D01*
X256057Y-546221D01*
X256156Y-546406D01*
X256254Y-546594D01*
X256263Y-546605D01*
X256270Y-546618D01*
X256400Y-546782D01*
X256529Y-546950D01*
X256540Y-546960D01*
X256549Y-546971D01*
X256707Y-547111D01*
X256863Y-547252D01*
X256878Y-547262D01*
X256887Y-547269D01*
X256922Y-547291D01*
X257124Y-547425D01*
X266012Y-552557D01*
X266072Y-552584D01*
X266127Y-552619D01*
X266414Y-552744D01*
X280955Y-558036D01*
X281018Y-558053D01*
X281079Y-558078D01*
X281382Y-558151D01*
X296622Y-560838D01*
X296632Y-560839D01*
X296641Y-560841D01*
X296952Y-560874D01*
X304689Y-561212D01*
X304731Y-561210D01*
X304800Y-561214D01*
X558800Y-561214D01*
X558841Y-561211D01*
G37*
%LPC*%
G36*
X495168Y-529825D02*
X495168Y-529825D01*
X494275Y-528932D01*
X494275Y-517404D01*
X494272Y-517369D01*
X494274Y-517335D01*
X494252Y-517146D01*
X494235Y-516955D01*
X494226Y-516922D01*
X494222Y-516888D01*
X494167Y-516705D01*
X494117Y-516521D01*
X494102Y-516490D01*
X494092Y-516457D01*
X494005Y-516286D01*
X493923Y-516114D01*
X493903Y-516086D01*
X493888Y-516055D01*
X493772Y-515903D01*
X493661Y-515748D01*
X493636Y-515724D01*
X493616Y-515697D01*
X493476Y-515568D01*
X493339Y-515434D01*
X493310Y-515415D01*
X493284Y-515391D01*
X493123Y-515289D01*
X492966Y-515182D01*
X492934Y-515168D01*
X492905Y-515150D01*
X492728Y-515077D01*
X492554Y-515000D01*
X492520Y-514992D01*
X492488Y-514979D01*
X492301Y-514939D01*
X492116Y-514893D01*
X492082Y-514891D01*
X492048Y-514884D01*
X491736Y-514865D01*
X446491Y-514865D01*
X444998Y-514246D01*
X428354Y-497602D01*
X427735Y-496109D01*
X427735Y-449500D01*
X427724Y-449370D01*
X427722Y-449240D01*
X427704Y-449147D01*
X427695Y-449051D01*
X427661Y-448926D01*
X427636Y-448798D01*
X427602Y-448709D01*
X427577Y-448617D01*
X427521Y-448500D01*
X427474Y-448378D01*
X427424Y-448297D01*
X427383Y-448210D01*
X427308Y-448105D01*
X427240Y-447994D01*
X427177Y-447922D01*
X427121Y-447844D01*
X427028Y-447754D01*
X426942Y-447656D01*
X426867Y-447597D01*
X426799Y-447530D01*
X426691Y-447457D01*
X426589Y-447377D01*
X426505Y-447332D01*
X426426Y-447278D01*
X426307Y-447225D01*
X426192Y-447164D01*
X426101Y-447135D01*
X426014Y-447096D01*
X425888Y-447065D01*
X425764Y-447025D01*
X425669Y-447012D01*
X425576Y-446989D01*
X425447Y-446981D01*
X425318Y-446964D01*
X425222Y-446967D01*
X425127Y-446962D01*
X424998Y-446977D01*
X424868Y-446982D01*
X424775Y-447003D01*
X424680Y-447014D01*
X424555Y-447051D01*
X424428Y-447079D01*
X424340Y-447116D01*
X424249Y-447144D01*
X424133Y-447203D01*
X424013Y-447253D01*
X423933Y-447305D01*
X423847Y-447348D01*
X423744Y-447427D01*
X423635Y-447497D01*
X423537Y-447584D01*
X423489Y-447620D01*
X423458Y-447653D01*
X423400Y-447704D01*
X422106Y-448999D01*
X420156Y-449807D01*
X418044Y-449807D01*
X416836Y-449306D01*
X416757Y-449281D01*
X416682Y-449248D01*
X416543Y-449214D01*
X416406Y-449171D01*
X416324Y-449161D01*
X416244Y-449141D01*
X416102Y-449133D01*
X415959Y-449115D01*
X415877Y-449119D01*
X415795Y-449114D01*
X415653Y-449130D01*
X415510Y-449138D01*
X415430Y-449156D01*
X415348Y-449166D01*
X415210Y-449207D01*
X415071Y-449240D01*
X414996Y-449272D01*
X414917Y-449296D01*
X414789Y-449361D01*
X414658Y-449418D01*
X414589Y-449463D01*
X414515Y-449500D01*
X414401Y-449587D01*
X414282Y-449666D01*
X414222Y-449723D01*
X414157Y-449772D01*
X414060Y-449878D01*
X413956Y-449977D01*
X413907Y-450043D01*
X413851Y-450104D01*
X413775Y-450224D01*
X413690Y-450340D01*
X413654Y-450414D01*
X413610Y-450483D01*
X413555Y-450616D01*
X413492Y-450744D01*
X413470Y-450824D01*
X413439Y-450900D01*
X413409Y-451040D01*
X413369Y-451178D01*
X413361Y-451259D01*
X413344Y-451340D01*
X413329Y-451586D01*
X413325Y-451626D01*
X413326Y-451636D01*
X413325Y-451652D01*
X413325Y-454932D01*
X412432Y-455825D01*
X381168Y-455825D01*
X380275Y-454932D01*
X380275Y-423668D01*
X381168Y-422775D01*
X412432Y-422775D01*
X413325Y-423668D01*
X413325Y-437348D01*
X413332Y-437430D01*
X413330Y-437512D01*
X413352Y-437654D01*
X413365Y-437796D01*
X413386Y-437876D01*
X413399Y-437957D01*
X413445Y-438093D01*
X413483Y-438231D01*
X413518Y-438305D01*
X413545Y-438383D01*
X413615Y-438509D01*
X413677Y-438637D01*
X413724Y-438704D01*
X413765Y-438776D01*
X413855Y-438887D01*
X413939Y-439004D01*
X413998Y-439061D01*
X414050Y-439125D01*
X414159Y-439218D01*
X414261Y-439318D01*
X414330Y-439364D01*
X414392Y-439417D01*
X414516Y-439490D01*
X414634Y-439570D01*
X414710Y-439603D01*
X414781Y-439645D01*
X414915Y-439694D01*
X415046Y-439752D01*
X415126Y-439771D01*
X415204Y-439800D01*
X415345Y-439825D01*
X415484Y-439859D01*
X415566Y-439864D01*
X415647Y-439878D01*
X415790Y-439877D01*
X415933Y-439886D01*
X416015Y-439877D01*
X416097Y-439876D01*
X416238Y-439851D01*
X416380Y-439834D01*
X416459Y-439810D01*
X416540Y-439796D01*
X416773Y-439716D01*
X416811Y-439704D01*
X416821Y-439699D01*
X416836Y-439694D01*
X418044Y-439193D01*
X420156Y-439193D01*
X422106Y-440001D01*
X423400Y-441296D01*
X423500Y-441379D01*
X423593Y-441470D01*
X423673Y-441523D01*
X423746Y-441585D01*
X423859Y-441649D01*
X423966Y-441722D01*
X424054Y-441761D01*
X424137Y-441808D01*
X424259Y-441851D01*
X424378Y-441904D01*
X424471Y-441927D01*
X424561Y-441959D01*
X424689Y-441980D01*
X424816Y-442011D01*
X424911Y-442017D01*
X425005Y-442032D01*
X425135Y-442030D01*
X425265Y-442038D01*
X425360Y-442027D01*
X425456Y-442026D01*
X425583Y-442001D01*
X425712Y-441986D01*
X425804Y-441959D01*
X425898Y-441941D01*
X426019Y-441894D01*
X426143Y-441856D01*
X426229Y-441813D01*
X426318Y-441778D01*
X426429Y-441711D01*
X426545Y-441652D01*
X426621Y-441594D01*
X426702Y-441544D01*
X426800Y-441458D01*
X426903Y-441380D01*
X426968Y-441309D01*
X427040Y-441246D01*
X427120Y-441144D01*
X427209Y-441049D01*
X427260Y-440968D01*
X427319Y-440893D01*
X427381Y-440778D01*
X427450Y-440669D01*
X427487Y-440580D01*
X427532Y-440496D01*
X427572Y-440372D01*
X427621Y-440252D01*
X427641Y-440159D01*
X427671Y-440068D01*
X427689Y-439939D01*
X427716Y-439812D01*
X427724Y-439682D01*
X427732Y-439622D01*
X427731Y-439577D01*
X427735Y-439500D01*
X427735Y-365035D01*
X427721Y-364872D01*
X427714Y-364707D01*
X427701Y-364648D01*
X427695Y-364587D01*
X427652Y-364428D01*
X427616Y-364268D01*
X427593Y-364211D01*
X427577Y-364153D01*
X427506Y-364004D01*
X427443Y-363852D01*
X427410Y-363801D01*
X427383Y-363746D01*
X427288Y-363612D01*
X427198Y-363474D01*
X427147Y-363416D01*
X427121Y-363380D01*
X427078Y-363337D01*
X426992Y-363240D01*
X421049Y-357298D01*
X421023Y-357276D01*
X421000Y-357250D01*
X420850Y-357131D01*
X420704Y-357009D01*
X420674Y-356992D01*
X420647Y-356970D01*
X420478Y-356880D01*
X420313Y-356786D01*
X420281Y-356774D01*
X420250Y-356758D01*
X420069Y-356699D01*
X419889Y-356635D01*
X419855Y-356629D01*
X419822Y-356618D01*
X419633Y-356592D01*
X419445Y-356561D01*
X419410Y-356562D01*
X419376Y-356557D01*
X419185Y-356565D01*
X418994Y-356567D01*
X418960Y-356574D01*
X418926Y-356575D01*
X418740Y-356617D01*
X418552Y-356653D01*
X418520Y-356665D01*
X418486Y-356673D01*
X418310Y-356746D01*
X418132Y-356815D01*
X418117Y-356825D01*
X381668Y-356825D01*
X380775Y-355932D01*
X380775Y-336804D01*
X380772Y-336769D01*
X380774Y-336735D01*
X380752Y-336546D01*
X380735Y-336355D01*
X380726Y-336322D01*
X380722Y-336288D01*
X380667Y-336105D01*
X380617Y-335921D01*
X380602Y-335890D01*
X380592Y-335857D01*
X380505Y-335686D01*
X380423Y-335514D01*
X380403Y-335486D01*
X380388Y-335455D01*
X380272Y-335303D01*
X380161Y-335148D01*
X380136Y-335124D01*
X380116Y-335097D01*
X379976Y-334968D01*
X379839Y-334834D01*
X379810Y-334815D01*
X379784Y-334791D01*
X379623Y-334689D01*
X379466Y-334582D01*
X379434Y-334568D01*
X379405Y-334550D01*
X379228Y-334477D01*
X379054Y-334400D01*
X379020Y-334392D01*
X378988Y-334379D01*
X378801Y-334339D01*
X378616Y-334293D01*
X378582Y-334291D01*
X378548Y-334284D01*
X378236Y-334265D01*
X354791Y-334265D01*
X353298Y-333646D01*
X305164Y-285512D01*
X304545Y-284019D01*
X304545Y-235971D01*
X304526Y-235758D01*
X304509Y-235545D01*
X304506Y-235534D01*
X304505Y-235523D01*
X304449Y-235317D01*
X304395Y-235110D01*
X304390Y-235099D01*
X304387Y-235088D01*
X304296Y-234898D01*
X304205Y-234701D01*
X304198Y-234692D01*
X304193Y-234682D01*
X304070Y-234509D01*
X303946Y-234333D01*
X303938Y-234325D01*
X303931Y-234316D01*
X303822Y-234209D01*
X303787Y-234170D01*
X300857Y-231240D01*
X299465Y-227879D01*
X299465Y-209001D01*
X300857Y-205640D01*
X303695Y-202802D01*
X303713Y-202788D01*
X303721Y-202780D01*
X303730Y-202773D01*
X303785Y-202712D01*
X303787Y-202710D01*
X303790Y-202707D01*
X303873Y-202615D01*
X304019Y-202457D01*
X304025Y-202448D01*
X304032Y-202439D01*
X304144Y-202260D01*
X304260Y-202077D01*
X304265Y-202067D01*
X304271Y-202057D01*
X304350Y-201860D01*
X304431Y-201661D01*
X304434Y-201650D01*
X304438Y-201639D01*
X304481Y-201430D01*
X304526Y-201221D01*
X304527Y-201207D01*
X304529Y-201198D01*
X304530Y-201162D01*
X304545Y-200909D01*
X304545Y-198581D01*
X305164Y-197088D01*
X315198Y-187054D01*
X316691Y-186435D01*
X352865Y-186435D01*
X353028Y-186421D01*
X353193Y-186414D01*
X353252Y-186401D01*
X353313Y-186395D01*
X353472Y-186352D01*
X353632Y-186316D01*
X353689Y-186293D01*
X353747Y-186277D01*
X353896Y-186206D01*
X354048Y-186143D01*
X354099Y-186110D01*
X354154Y-186083D01*
X354288Y-185988D01*
X354426Y-185898D01*
X354484Y-185847D01*
X354520Y-185821D01*
X354563Y-185778D01*
X354660Y-185692D01*
X362975Y-177376D01*
X362997Y-177350D01*
X363023Y-177327D01*
X363141Y-177178D01*
X363264Y-177031D01*
X363281Y-177001D01*
X363303Y-176974D01*
X363393Y-176806D01*
X363487Y-176640D01*
X363499Y-176607D01*
X363515Y-176577D01*
X363574Y-176396D01*
X363638Y-176216D01*
X363644Y-176182D01*
X363655Y-176149D01*
X363681Y-175960D01*
X363712Y-175772D01*
X363711Y-175737D01*
X363716Y-175703D01*
X363708Y-175512D01*
X363706Y-175321D01*
X363699Y-175287D01*
X363698Y-175253D01*
X363656Y-175067D01*
X363620Y-174879D01*
X363608Y-174847D01*
X363600Y-174813D01*
X363527Y-174638D01*
X363458Y-174459D01*
X363440Y-174430D01*
X363426Y-174398D01*
X363323Y-174238D01*
X363224Y-174075D01*
X363201Y-174049D01*
X363182Y-174020D01*
X362975Y-173785D01*
X358393Y-169203D01*
X358393Y-160997D01*
X364197Y-155193D01*
X372403Y-155193D01*
X378207Y-160997D01*
X378207Y-169203D01*
X373108Y-174302D01*
X373003Y-174428D01*
X372891Y-174549D01*
X372859Y-174600D01*
X372820Y-174647D01*
X372738Y-174790D01*
X372650Y-174929D01*
X372626Y-174985D01*
X372596Y-175038D01*
X372541Y-175193D01*
X372479Y-175345D01*
X372466Y-175405D01*
X372445Y-175462D01*
X372419Y-175624D01*
X372384Y-175785D01*
X372379Y-175863D01*
X372372Y-175907D01*
X372373Y-175967D01*
X372365Y-176097D01*
X372365Y-178609D01*
X371746Y-180102D01*
X357902Y-193946D01*
X356409Y-194565D01*
X320235Y-194565D01*
X320072Y-194579D01*
X319907Y-194586D01*
X319848Y-194599D01*
X319787Y-194605D01*
X319628Y-194648D01*
X319468Y-194684D01*
X319411Y-194707D01*
X319353Y-194723D01*
X319204Y-194794D01*
X319052Y-194857D01*
X319001Y-194890D01*
X318946Y-194917D01*
X318812Y-195012D01*
X318674Y-195102D01*
X318616Y-195153D01*
X318580Y-195179D01*
X318537Y-195222D01*
X318440Y-195308D01*
X314031Y-199717D01*
X314009Y-199744D01*
X313983Y-199767D01*
X313864Y-199917D01*
X313742Y-200063D01*
X313725Y-200093D01*
X313703Y-200120D01*
X313613Y-200289D01*
X313519Y-200454D01*
X313507Y-200486D01*
X313491Y-200517D01*
X313432Y-200698D01*
X313368Y-200878D01*
X313362Y-200912D01*
X313352Y-200945D01*
X313326Y-201134D01*
X313294Y-201322D01*
X313295Y-201357D01*
X313290Y-201391D01*
X313298Y-201582D01*
X313301Y-201772D01*
X313307Y-201806D01*
X313309Y-201841D01*
X313350Y-202028D01*
X313386Y-202214D01*
X313399Y-202247D01*
X313406Y-202281D01*
X313480Y-202456D01*
X313548Y-202634D01*
X313566Y-202664D01*
X313580Y-202696D01*
X313683Y-202856D01*
X313782Y-203019D01*
X313805Y-203045D01*
X313824Y-203074D01*
X314031Y-203308D01*
X316363Y-205640D01*
X317755Y-209001D01*
X317755Y-227879D01*
X316363Y-231240D01*
X313525Y-234078D01*
X313507Y-234092D01*
X313499Y-234100D01*
X313490Y-234107D01*
X313435Y-234168D01*
X313433Y-234170D01*
X313430Y-234173D01*
X313347Y-234265D01*
X313201Y-234423D01*
X313195Y-234432D01*
X313188Y-234441D01*
X313075Y-234621D01*
X312960Y-234803D01*
X312955Y-234813D01*
X312949Y-234823D01*
X312870Y-235020D01*
X312789Y-235219D01*
X312786Y-235230D01*
X312782Y-235241D01*
X312739Y-235450D01*
X312694Y-235659D01*
X312693Y-235673D01*
X312691Y-235682D01*
X312690Y-235718D01*
X312675Y-235971D01*
X312675Y-280475D01*
X312689Y-280638D01*
X312696Y-280803D01*
X312709Y-280862D01*
X312715Y-280923D01*
X312758Y-281082D01*
X312794Y-281242D01*
X312817Y-281299D01*
X312833Y-281357D01*
X312904Y-281506D01*
X312967Y-281658D01*
X313000Y-281709D01*
X313027Y-281764D01*
X313122Y-281898D01*
X313212Y-282036D01*
X313263Y-282094D01*
X313289Y-282130D01*
X313332Y-282173D01*
X313418Y-282270D01*
X356540Y-325392D01*
X356666Y-325497D01*
X356787Y-325609D01*
X356838Y-325641D01*
X356885Y-325680D01*
X357028Y-325762D01*
X357167Y-325850D01*
X357223Y-325874D01*
X357276Y-325904D01*
X357431Y-325959D01*
X357583Y-326021D01*
X357643Y-326034D01*
X357701Y-326055D01*
X357863Y-326081D01*
X358024Y-326116D01*
X358100Y-326121D01*
X358145Y-326128D01*
X358206Y-326127D01*
X358335Y-326135D01*
X378236Y-326135D01*
X378271Y-326132D01*
X378305Y-326134D01*
X378494Y-326112D01*
X378685Y-326095D01*
X378718Y-326086D01*
X378752Y-326082D01*
X378935Y-326027D01*
X379119Y-325977D01*
X379150Y-325962D01*
X379183Y-325952D01*
X379354Y-325865D01*
X379526Y-325783D01*
X379554Y-325763D01*
X379585Y-325748D01*
X379737Y-325632D01*
X379892Y-325521D01*
X379916Y-325496D01*
X379943Y-325476D01*
X380072Y-325336D01*
X380206Y-325199D01*
X380225Y-325170D01*
X380249Y-325144D01*
X380351Y-324983D01*
X380458Y-324826D01*
X380472Y-324794D01*
X380490Y-324765D01*
X380563Y-324588D01*
X380640Y-324414D01*
X380648Y-324380D01*
X380661Y-324348D01*
X380701Y-324161D01*
X380747Y-323976D01*
X380749Y-323942D01*
X380756Y-323908D01*
X380775Y-323596D01*
X380775Y-304668D01*
X381668Y-303775D01*
X393196Y-303775D01*
X393231Y-303772D01*
X393265Y-303774D01*
X393454Y-303752D01*
X393645Y-303735D01*
X393678Y-303726D01*
X393712Y-303722D01*
X393895Y-303667D01*
X394079Y-303617D01*
X394110Y-303602D01*
X394143Y-303592D01*
X394314Y-303505D01*
X394486Y-303423D01*
X394514Y-303403D01*
X394545Y-303388D01*
X394697Y-303272D01*
X394852Y-303161D01*
X394876Y-303136D01*
X394903Y-303116D01*
X395032Y-302976D01*
X395166Y-302839D01*
X395185Y-302810D01*
X395209Y-302784D01*
X395311Y-302623D01*
X395418Y-302466D01*
X395432Y-302434D01*
X395450Y-302405D01*
X395523Y-302228D01*
X395600Y-302054D01*
X395608Y-302020D01*
X395621Y-301988D01*
X395661Y-301801D01*
X395707Y-301616D01*
X395709Y-301582D01*
X395716Y-301548D01*
X395735Y-301236D01*
X395735Y-297891D01*
X396354Y-296398D01*
X416798Y-275954D01*
X418291Y-275335D01*
X530665Y-275335D01*
X530828Y-275321D01*
X530993Y-275314D01*
X531052Y-275301D01*
X531113Y-275295D01*
X531272Y-275252D01*
X531432Y-275216D01*
X531489Y-275193D01*
X531547Y-275177D01*
X531696Y-275106D01*
X531848Y-275043D01*
X531899Y-275010D01*
X531954Y-274983D01*
X532088Y-274888D01*
X532226Y-274798D01*
X532284Y-274747D01*
X532320Y-274721D01*
X532363Y-274678D01*
X532460Y-274592D01*
X566692Y-240360D01*
X566797Y-240234D01*
X566909Y-240113D01*
X566941Y-240062D01*
X566980Y-240015D01*
X567062Y-239872D01*
X567150Y-239733D01*
X567174Y-239677D01*
X567204Y-239624D01*
X567259Y-239469D01*
X567321Y-239317D01*
X567334Y-239257D01*
X567355Y-239199D01*
X567381Y-239037D01*
X567416Y-238876D01*
X567421Y-238800D01*
X567428Y-238755D01*
X567427Y-238694D01*
X567435Y-238565D01*
X567435Y-201786D01*
X567416Y-201574D01*
X567400Y-201363D01*
X567397Y-201351D01*
X567395Y-201337D01*
X567339Y-201132D01*
X567286Y-200928D01*
X567280Y-200916D01*
X567277Y-200903D01*
X567186Y-200712D01*
X567097Y-200519D01*
X567089Y-200508D01*
X567083Y-200496D01*
X566961Y-200325D01*
X566838Y-200150D01*
X566829Y-200141D01*
X566821Y-200130D01*
X566669Y-199982D01*
X566519Y-199833D01*
X566508Y-199825D01*
X566499Y-199816D01*
X566322Y-199697D01*
X566149Y-199577D01*
X566134Y-199570D01*
X566126Y-199564D01*
X566089Y-199548D01*
X565868Y-199440D01*
X565601Y-199329D01*
X562671Y-196399D01*
X561146Y-192718D01*
X561086Y-192603D01*
X561034Y-192483D01*
X560982Y-192404D01*
X560937Y-192319D01*
X560858Y-192216D01*
X560786Y-192108D01*
X560720Y-192039D01*
X560662Y-191963D01*
X560565Y-191876D01*
X560475Y-191782D01*
X560398Y-191725D01*
X560327Y-191661D01*
X560217Y-191593D01*
X560112Y-191516D01*
X560026Y-191474D01*
X559945Y-191424D01*
X559824Y-191375D01*
X559708Y-191318D01*
X559616Y-191292D01*
X559527Y-191257D01*
X559399Y-191231D01*
X559274Y-191195D01*
X559179Y-191186D01*
X559086Y-191167D01*
X558956Y-191164D01*
X558826Y-191151D01*
X558731Y-191158D01*
X558636Y-191156D01*
X558507Y-191176D01*
X558377Y-191186D01*
X558285Y-191210D01*
X558191Y-191225D01*
X558068Y-191267D01*
X557942Y-191300D01*
X557855Y-191340D01*
X557765Y-191371D01*
X557651Y-191435D01*
X557533Y-191489D01*
X557455Y-191544D01*
X557372Y-191591D01*
X557271Y-191673D01*
X557164Y-191748D01*
X557097Y-191815D01*
X557023Y-191876D01*
X556939Y-191975D01*
X556847Y-192067D01*
X556793Y-192146D01*
X556731Y-192218D01*
X556665Y-192330D01*
X556591Y-192437D01*
X556534Y-192554D01*
X556503Y-192607D01*
X556488Y-192649D01*
X556454Y-192718D01*
X554929Y-196399D01*
X551999Y-199329D01*
X548172Y-200915D01*
X544028Y-200915D01*
X540201Y-199329D01*
X537271Y-196399D01*
X535746Y-192718D01*
X535686Y-192603D01*
X535634Y-192483D01*
X535582Y-192404D01*
X535537Y-192319D01*
X535458Y-192216D01*
X535386Y-192108D01*
X535320Y-192039D01*
X535262Y-191963D01*
X535165Y-191876D01*
X535075Y-191782D01*
X534998Y-191725D01*
X534927Y-191661D01*
X534817Y-191593D01*
X534712Y-191516D01*
X534626Y-191474D01*
X534545Y-191424D01*
X534424Y-191375D01*
X534308Y-191318D01*
X534216Y-191292D01*
X534127Y-191257D01*
X533999Y-191231D01*
X533874Y-191195D01*
X533779Y-191186D01*
X533686Y-191167D01*
X533556Y-191164D01*
X533426Y-191151D01*
X533331Y-191158D01*
X533236Y-191156D01*
X533107Y-191176D01*
X532977Y-191186D01*
X532885Y-191210D01*
X532791Y-191225D01*
X532668Y-191267D01*
X532542Y-191300D01*
X532455Y-191340D01*
X532365Y-191371D01*
X532251Y-191435D01*
X532133Y-191489D01*
X532055Y-191544D01*
X531972Y-191591D01*
X531871Y-191673D01*
X531764Y-191748D01*
X531697Y-191815D01*
X531623Y-191876D01*
X531539Y-191975D01*
X531447Y-192067D01*
X531393Y-192146D01*
X531331Y-192218D01*
X531265Y-192330D01*
X531191Y-192437D01*
X531134Y-192554D01*
X531103Y-192607D01*
X531088Y-192649D01*
X531054Y-192718D01*
X529529Y-196399D01*
X526599Y-199329D01*
X522772Y-200915D01*
X518628Y-200915D01*
X514801Y-199329D01*
X511871Y-196399D01*
X510285Y-192572D01*
X510285Y-188428D01*
X511871Y-184601D01*
X514801Y-181671D01*
X518628Y-180085D01*
X522772Y-180085D01*
X526599Y-181671D01*
X529529Y-184601D01*
X531054Y-188282D01*
X531114Y-188397D01*
X531166Y-188517D01*
X531218Y-188596D01*
X531263Y-188681D01*
X531342Y-188784D01*
X531414Y-188892D01*
X531480Y-188961D01*
X531538Y-189037D01*
X531635Y-189124D01*
X531724Y-189218D01*
X531802Y-189275D01*
X531873Y-189339D01*
X531983Y-189407D01*
X532088Y-189484D01*
X532174Y-189526D01*
X532255Y-189576D01*
X532376Y-189625D01*
X532492Y-189682D01*
X532584Y-189708D01*
X532673Y-189743D01*
X532801Y-189769D01*
X532926Y-189805D01*
X533021Y-189814D01*
X533114Y-189833D01*
X533244Y-189836D01*
X533374Y-189849D01*
X533469Y-189842D01*
X533564Y-189844D01*
X533693Y-189824D01*
X533823Y-189814D01*
X533915Y-189790D01*
X534009Y-189775D01*
X534132Y-189733D01*
X534258Y-189700D01*
X534345Y-189660D01*
X534435Y-189629D01*
X534549Y-189565D01*
X534667Y-189511D01*
X534745Y-189456D01*
X534828Y-189409D01*
X534929Y-189327D01*
X535036Y-189252D01*
X535103Y-189185D01*
X535177Y-189124D01*
X535261Y-189025D01*
X535353Y-188933D01*
X535407Y-188854D01*
X535469Y-188782D01*
X535535Y-188670D01*
X535609Y-188563D01*
X535666Y-188446D01*
X535697Y-188393D01*
X535712Y-188351D01*
X535746Y-188282D01*
X537271Y-184601D01*
X540201Y-181671D01*
X544028Y-180085D01*
X548172Y-180085D01*
X551999Y-181671D01*
X554929Y-184601D01*
X556454Y-188282D01*
X556514Y-188397D01*
X556566Y-188517D01*
X556618Y-188596D01*
X556663Y-188681D01*
X556742Y-188784D01*
X556814Y-188892D01*
X556880Y-188961D01*
X556938Y-189037D01*
X557035Y-189124D01*
X557124Y-189218D01*
X557202Y-189275D01*
X557273Y-189339D01*
X557383Y-189407D01*
X557488Y-189484D01*
X557574Y-189526D01*
X557655Y-189576D01*
X557776Y-189625D01*
X557892Y-189682D01*
X557984Y-189708D01*
X558073Y-189743D01*
X558201Y-189769D01*
X558326Y-189805D01*
X558421Y-189814D01*
X558514Y-189833D01*
X558644Y-189836D01*
X558774Y-189849D01*
X558869Y-189842D01*
X558964Y-189844D01*
X559093Y-189824D01*
X559223Y-189814D01*
X559315Y-189790D01*
X559409Y-189775D01*
X559532Y-189733D01*
X559658Y-189700D01*
X559745Y-189660D01*
X559835Y-189629D01*
X559949Y-189565D01*
X560067Y-189511D01*
X560145Y-189456D01*
X560228Y-189409D01*
X560329Y-189327D01*
X560436Y-189252D01*
X560503Y-189185D01*
X560577Y-189124D01*
X560661Y-189025D01*
X560753Y-188933D01*
X560807Y-188854D01*
X560869Y-188782D01*
X560935Y-188670D01*
X561009Y-188563D01*
X561066Y-188446D01*
X561097Y-188393D01*
X561112Y-188351D01*
X561146Y-188282D01*
X562671Y-184601D01*
X565601Y-181671D01*
X569428Y-180085D01*
X573572Y-180085D01*
X577399Y-181671D01*
X580329Y-184601D01*
X581320Y-186993D01*
X581322Y-186997D01*
X581324Y-187001D01*
X581427Y-187198D01*
X581529Y-187392D01*
X581531Y-187396D01*
X581533Y-187400D01*
X581669Y-187573D01*
X581804Y-187748D01*
X581808Y-187751D01*
X581810Y-187755D01*
X581977Y-187904D01*
X582139Y-188050D01*
X582142Y-188052D01*
X582146Y-188055D01*
X582335Y-188172D01*
X582521Y-188288D01*
X582525Y-188289D01*
X582529Y-188292D01*
X582733Y-188372D01*
X582939Y-188455D01*
X582944Y-188455D01*
X582948Y-188457D01*
X583162Y-188500D01*
X583380Y-188545D01*
X583385Y-188545D01*
X583389Y-188546D01*
X583604Y-188550D01*
X583831Y-188555D01*
X583835Y-188555D01*
X583839Y-188555D01*
X584051Y-188521D01*
X584276Y-188487D01*
X584280Y-188485D01*
X584284Y-188485D01*
X584490Y-188413D01*
X584701Y-188340D01*
X584705Y-188338D01*
X584709Y-188337D01*
X584903Y-188228D01*
X585095Y-188121D01*
X585098Y-188118D01*
X585102Y-188116D01*
X585269Y-187978D01*
X585443Y-187836D01*
X585446Y-187832D01*
X585449Y-187830D01*
X585587Y-187667D01*
X585735Y-187493D01*
X585738Y-187489D01*
X585740Y-187486D01*
X585851Y-187296D01*
X585963Y-187105D01*
X585964Y-187101D01*
X585967Y-187097D01*
X586081Y-186806D01*
X586307Y-186112D01*
X587124Y-184509D01*
X588181Y-183053D01*
X589453Y-181781D01*
X590909Y-180724D01*
X592512Y-179907D01*
X594223Y-179351D01*
X594361Y-179329D01*
X594361Y-190500D01*
X594361Y-201671D01*
X594223Y-201649D01*
X592512Y-201093D01*
X590909Y-200276D01*
X589453Y-199219D01*
X588181Y-197947D01*
X587124Y-196491D01*
X586307Y-194888D01*
X586081Y-194194D01*
X586080Y-194190D01*
X586079Y-194186D01*
X585993Y-193986D01*
X585905Y-193780D01*
X585902Y-193776D01*
X585901Y-193772D01*
X585779Y-193588D01*
X585658Y-193403D01*
X585655Y-193400D01*
X585652Y-193396D01*
X585495Y-193231D01*
X585348Y-193076D01*
X585345Y-193074D01*
X585342Y-193070D01*
X585160Y-192938D01*
X584986Y-192809D01*
X584982Y-192807D01*
X584978Y-192805D01*
X584781Y-192708D01*
X584582Y-192610D01*
X584578Y-192609D01*
X584574Y-192607D01*
X584363Y-192547D01*
X584149Y-192486D01*
X584145Y-192485D01*
X584141Y-192484D01*
X583920Y-192462D01*
X583701Y-192439D01*
X583697Y-192440D01*
X583693Y-192439D01*
X583469Y-192457D01*
X583252Y-192473D01*
X583248Y-192474D01*
X583244Y-192475D01*
X583031Y-192530D01*
X582816Y-192586D01*
X582812Y-192588D01*
X582808Y-192589D01*
X582609Y-192681D01*
X582407Y-192774D01*
X582403Y-192776D01*
X582399Y-192778D01*
X582218Y-192905D01*
X582037Y-193031D01*
X582034Y-193034D01*
X582031Y-193036D01*
X581875Y-193193D01*
X581719Y-193349D01*
X581716Y-193353D01*
X581713Y-193356D01*
X581588Y-193536D01*
X581462Y-193719D01*
X581460Y-193722D01*
X581457Y-193726D01*
X581320Y-194007D01*
X580329Y-196399D01*
X577399Y-199329D01*
X577132Y-199440D01*
X576945Y-199538D01*
X576755Y-199634D01*
X576745Y-199642D01*
X576733Y-199648D01*
X576565Y-199779D01*
X576397Y-199906D01*
X576388Y-199916D01*
X576377Y-199924D01*
X576235Y-200082D01*
X576091Y-200237D01*
X576084Y-200249D01*
X576076Y-200258D01*
X575963Y-200438D01*
X575850Y-200617D01*
X575845Y-200629D01*
X575838Y-200641D01*
X575759Y-200837D01*
X575679Y-201034D01*
X575676Y-201047D01*
X575671Y-201059D01*
X575629Y-201267D01*
X575584Y-201474D01*
X575583Y-201490D01*
X575581Y-201500D01*
X575580Y-201539D01*
X575565Y-201786D01*
X575565Y-242109D01*
X574946Y-243602D01*
X535702Y-282846D01*
X534209Y-283465D01*
X421835Y-283465D01*
X421672Y-283479D01*
X421507Y-283486D01*
X421448Y-283499D01*
X421387Y-283505D01*
X421228Y-283548D01*
X421068Y-283584D01*
X421011Y-283607D01*
X420953Y-283623D01*
X420804Y-283694D01*
X420652Y-283757D01*
X420601Y-283790D01*
X420546Y-283817D01*
X420412Y-283912D01*
X420274Y-284002D01*
X420216Y-284053D01*
X420180Y-284079D01*
X420137Y-284122D01*
X420040Y-284208D01*
X404808Y-299440D01*
X404724Y-299540D01*
X404634Y-299633D01*
X404580Y-299713D01*
X404519Y-299786D01*
X404454Y-299899D01*
X404382Y-300006D01*
X404343Y-300094D01*
X404296Y-300177D01*
X404252Y-300299D01*
X404199Y-300418D01*
X404177Y-300511D01*
X404145Y-300601D01*
X404124Y-300730D01*
X404093Y-300856D01*
X404087Y-300951D01*
X404071Y-301045D01*
X404073Y-301176D01*
X404065Y-301305D01*
X404076Y-301400D01*
X404077Y-301496D01*
X404102Y-301623D01*
X404117Y-301752D01*
X404145Y-301844D01*
X404163Y-301938D01*
X404210Y-302059D01*
X404247Y-302183D01*
X404291Y-302268D01*
X404325Y-302358D01*
X404393Y-302469D01*
X404452Y-302585D01*
X404509Y-302661D01*
X404559Y-302742D01*
X404645Y-302840D01*
X404724Y-302943D01*
X404794Y-303008D01*
X404857Y-303080D01*
X404959Y-303160D01*
X405055Y-303249D01*
X405136Y-303300D01*
X405210Y-303359D01*
X405325Y-303420D01*
X405435Y-303490D01*
X405523Y-303527D01*
X405607Y-303572D01*
X405731Y-303612D01*
X405851Y-303661D01*
X405945Y-303681D01*
X406036Y-303711D01*
X406164Y-303729D01*
X406291Y-303756D01*
X406421Y-303764D01*
X406482Y-303772D01*
X406526Y-303771D01*
X406603Y-303775D01*
X417932Y-303775D01*
X418825Y-304668D01*
X418825Y-342525D01*
X418839Y-342688D01*
X418846Y-342853D01*
X418859Y-342912D01*
X418865Y-342973D01*
X418908Y-343132D01*
X418944Y-343292D01*
X418967Y-343349D01*
X418983Y-343407D01*
X419054Y-343556D01*
X419117Y-343708D01*
X419150Y-343759D01*
X419177Y-343814D01*
X419272Y-343948D01*
X419362Y-344086D01*
X419413Y-344144D01*
X419439Y-344180D01*
X419482Y-344223D01*
X419568Y-344320D01*
X435246Y-359998D01*
X435865Y-361491D01*
X435865Y-492565D01*
X435879Y-492728D01*
X435886Y-492893D01*
X435899Y-492952D01*
X435905Y-493013D01*
X435948Y-493172D01*
X435984Y-493332D01*
X436007Y-493389D01*
X436023Y-493447D01*
X436094Y-493596D01*
X436157Y-493748D01*
X436190Y-493799D01*
X436217Y-493854D01*
X436312Y-493988D01*
X436402Y-494126D01*
X436453Y-494184D01*
X436479Y-494220D01*
X436522Y-494263D01*
X436608Y-494360D01*
X448240Y-505992D01*
X448366Y-506097D01*
X448487Y-506209D01*
X448538Y-506241D01*
X448585Y-506280D01*
X448728Y-506362D01*
X448867Y-506450D01*
X448923Y-506474D01*
X448976Y-506504D01*
X449131Y-506559D01*
X449283Y-506621D01*
X449343Y-506634D01*
X449401Y-506655D01*
X449563Y-506681D01*
X449724Y-506716D01*
X449800Y-506721D01*
X449845Y-506728D01*
X449906Y-506727D01*
X450035Y-506735D01*
X491736Y-506735D01*
X491771Y-506732D01*
X491805Y-506734D01*
X491994Y-506712D01*
X492185Y-506695D01*
X492218Y-506686D01*
X492252Y-506682D01*
X492435Y-506627D01*
X492619Y-506577D01*
X492650Y-506562D01*
X492683Y-506552D01*
X492854Y-506465D01*
X493026Y-506383D01*
X493054Y-506363D01*
X493085Y-506348D01*
X493237Y-506232D01*
X493392Y-506121D01*
X493416Y-506096D01*
X493443Y-506076D01*
X493572Y-505936D01*
X493706Y-505799D01*
X493725Y-505770D01*
X493749Y-505744D01*
X493851Y-505583D01*
X493958Y-505426D01*
X493972Y-505394D01*
X493990Y-505365D01*
X494063Y-505188D01*
X494140Y-505014D01*
X494148Y-504980D01*
X494161Y-504948D01*
X494201Y-504761D01*
X494247Y-504576D01*
X494249Y-504542D01*
X494256Y-504508D01*
X494275Y-504196D01*
X494275Y-492668D01*
X495168Y-491775D01*
X546432Y-491775D01*
X547325Y-492668D01*
X547325Y-528932D01*
X546432Y-529825D01*
X495168Y-529825D01*
G37*
%LPD*%
%LPC*%
G36*
X440397Y-136907D02*
X440397Y-136907D01*
X434593Y-131103D01*
X434593Y-122897D01*
X440397Y-117093D01*
X448164Y-117093D01*
X448168Y-117093D01*
X448172Y-117093D01*
X448390Y-117073D01*
X448613Y-117053D01*
X448616Y-117052D01*
X448620Y-117052D01*
X448831Y-116994D01*
X449047Y-116935D01*
X449050Y-116933D01*
X449054Y-116932D01*
X449259Y-116834D01*
X449454Y-116741D01*
X449457Y-116739D01*
X449460Y-116738D01*
X449641Y-116607D01*
X449820Y-116479D01*
X449822Y-116477D01*
X449825Y-116475D01*
X449980Y-116315D01*
X450134Y-116157D01*
X450136Y-116154D01*
X450139Y-116151D01*
X450265Y-115963D01*
X450386Y-115784D01*
X450388Y-115780D01*
X450390Y-115777D01*
X450479Y-115573D01*
X450568Y-115372D01*
X450569Y-115368D01*
X450571Y-115365D01*
X450622Y-115150D01*
X450675Y-114934D01*
X450675Y-114931D01*
X450676Y-114927D01*
X450689Y-114707D01*
X450703Y-114485D01*
X450702Y-114481D01*
X450703Y-114478D01*
X450677Y-114266D01*
X450651Y-114038D01*
X450650Y-114034D01*
X450649Y-114031D01*
X450566Y-113730D01*
X447401Y-104510D01*
X447401Y-93610D01*
X447861Y-92271D01*
X448732Y-89732D01*
X448733Y-89732D01*
X448733Y-89731D01*
X449604Y-87193D01*
X449604Y-87192D01*
X450940Y-83301D01*
X457635Y-74700D01*
X466760Y-68738D01*
X477326Y-66062D01*
X488188Y-66963D01*
X498170Y-71341D01*
X506189Y-78723D01*
X511377Y-88309D01*
X513171Y-99060D01*
X511377Y-109811D01*
X506189Y-119397D01*
X498170Y-126779D01*
X488188Y-131157D01*
X477326Y-132058D01*
X466760Y-129382D01*
X458335Y-123878D01*
X458253Y-123834D01*
X458176Y-123782D01*
X458054Y-123728D01*
X457938Y-123666D01*
X457849Y-123637D01*
X457764Y-123599D01*
X457635Y-123568D01*
X457509Y-123527D01*
X457417Y-123515D01*
X457326Y-123493D01*
X457194Y-123485D01*
X457063Y-123467D01*
X456970Y-123471D01*
X456877Y-123465D01*
X456745Y-123480D01*
X456613Y-123486D01*
X456522Y-123506D01*
X456430Y-123517D01*
X456303Y-123556D01*
X456174Y-123584D01*
X456088Y-123620D01*
X455999Y-123647D01*
X455881Y-123708D01*
X455759Y-123759D01*
X455680Y-123810D01*
X455597Y-123852D01*
X455492Y-123932D01*
X455381Y-124004D01*
X455313Y-124068D01*
X455239Y-124124D01*
X455149Y-124221D01*
X455052Y-124312D01*
X454997Y-124386D01*
X454933Y-124455D01*
X454862Y-124567D01*
X454783Y-124673D01*
X454742Y-124756D01*
X454692Y-124835D01*
X454641Y-124957D01*
X454582Y-125076D01*
X454556Y-125165D01*
X454521Y-125251D01*
X454493Y-125381D01*
X454456Y-125508D01*
X454446Y-125600D01*
X454426Y-125691D01*
X454413Y-125901D01*
X454407Y-125956D01*
X454409Y-125975D01*
X454407Y-126003D01*
X454407Y-131103D01*
X448603Y-136907D01*
X440397Y-136907D01*
G37*
%LPD*%
%LPC*%
G36*
X381168Y-400825D02*
X381168Y-400825D01*
X380275Y-399932D01*
X380275Y-392550D01*
X380268Y-392468D01*
X380270Y-392386D01*
X380248Y-392244D01*
X380235Y-392102D01*
X380214Y-392022D01*
X380201Y-391941D01*
X380154Y-391805D01*
X380117Y-391667D01*
X380082Y-391593D01*
X380055Y-391515D01*
X379985Y-391389D01*
X379923Y-391261D01*
X379876Y-391194D01*
X379835Y-391122D01*
X379745Y-391011D01*
X379661Y-390895D01*
X379602Y-390837D01*
X379550Y-390773D01*
X379441Y-390680D01*
X379339Y-390581D01*
X379270Y-390534D01*
X379208Y-390481D01*
X379084Y-390409D01*
X378966Y-390328D01*
X378890Y-390295D01*
X378819Y-390253D01*
X378685Y-390204D01*
X378554Y-390146D01*
X378474Y-390127D01*
X378396Y-390098D01*
X378255Y-390073D01*
X378116Y-390040D01*
X378034Y-390035D01*
X377953Y-390020D01*
X377810Y-390021D01*
X377667Y-390012D01*
X377585Y-390021D01*
X377503Y-390022D01*
X377362Y-390047D01*
X377220Y-390064D01*
X377141Y-390088D01*
X377060Y-390103D01*
X377019Y-390117D01*
X374864Y-390117D01*
X372914Y-389309D01*
X371421Y-387816D01*
X371246Y-387392D01*
X371147Y-387204D01*
X371051Y-387015D01*
X371043Y-387005D01*
X371037Y-386993D01*
X370906Y-386824D01*
X370779Y-386657D01*
X370770Y-386648D01*
X370761Y-386637D01*
X370604Y-386495D01*
X370448Y-386351D01*
X370437Y-386344D01*
X370427Y-386336D01*
X370248Y-386224D01*
X370068Y-386110D01*
X370056Y-386105D01*
X370045Y-386098D01*
X369847Y-386019D01*
X369652Y-385939D01*
X369639Y-385936D01*
X369627Y-385931D01*
X369418Y-385888D01*
X369212Y-385844D01*
X369196Y-385843D01*
X369185Y-385841D01*
X369146Y-385840D01*
X368900Y-385825D01*
X317168Y-385825D01*
X316275Y-384932D01*
X316275Y-373404D01*
X316272Y-373369D01*
X316274Y-373335D01*
X316252Y-373146D01*
X316235Y-372955D01*
X316226Y-372922D01*
X316222Y-372888D01*
X316167Y-372705D01*
X316117Y-372521D01*
X316102Y-372490D01*
X316092Y-372457D01*
X316005Y-372286D01*
X315923Y-372114D01*
X315903Y-372086D01*
X315888Y-372055D01*
X315772Y-371903D01*
X315661Y-371748D01*
X315636Y-371724D01*
X315616Y-371697D01*
X315476Y-371568D01*
X315339Y-371434D01*
X315310Y-371415D01*
X315284Y-371391D01*
X315123Y-371289D01*
X314966Y-371182D01*
X314934Y-371168D01*
X314905Y-371150D01*
X314728Y-371077D01*
X314554Y-371000D01*
X314520Y-370992D01*
X314488Y-370979D01*
X314301Y-370939D01*
X314116Y-370893D01*
X314082Y-370891D01*
X314048Y-370884D01*
X313736Y-370865D01*
X298092Y-370865D01*
X297928Y-370879D01*
X297764Y-370886D01*
X297704Y-370899D01*
X297643Y-370905D01*
X297485Y-370948D01*
X297324Y-370984D01*
X297268Y-371007D01*
X297209Y-371023D01*
X297061Y-371094D01*
X296909Y-371157D01*
X296857Y-371190D01*
X296802Y-371217D01*
X296669Y-371312D01*
X296530Y-371402D01*
X296473Y-371453D01*
X296436Y-371479D01*
X296394Y-371522D01*
X296296Y-371608D01*
X295106Y-372799D01*
X293156Y-373607D01*
X291044Y-373607D01*
X289094Y-372799D01*
X287601Y-371306D01*
X286793Y-369356D01*
X286793Y-367244D01*
X287601Y-365294D01*
X289094Y-363801D01*
X291044Y-362993D01*
X291664Y-362993D01*
X291780Y-362983D01*
X291897Y-362983D01*
X292004Y-362963D01*
X292112Y-362953D01*
X292225Y-362923D01*
X292340Y-362902D01*
X292486Y-362851D01*
X292546Y-362835D01*
X292579Y-362819D01*
X292635Y-362800D01*
X292791Y-362735D01*
X313736Y-362735D01*
X313771Y-362732D01*
X313805Y-362734D01*
X313994Y-362712D01*
X314185Y-362695D01*
X314218Y-362686D01*
X314252Y-362682D01*
X314435Y-362627D01*
X314619Y-362577D01*
X314650Y-362562D01*
X314683Y-362552D01*
X314854Y-362465D01*
X315026Y-362383D01*
X315054Y-362363D01*
X315085Y-362348D01*
X315237Y-362232D01*
X315392Y-362121D01*
X315416Y-362096D01*
X315443Y-362076D01*
X315572Y-361936D01*
X315706Y-361799D01*
X315725Y-361770D01*
X315749Y-361744D01*
X315851Y-361583D01*
X315958Y-361426D01*
X315972Y-361394D01*
X315990Y-361365D01*
X316063Y-361188D01*
X316140Y-361014D01*
X316148Y-360980D01*
X316161Y-360948D01*
X316201Y-360761D01*
X316247Y-360576D01*
X316249Y-360542D01*
X316256Y-360508D01*
X316275Y-360196D01*
X316275Y-348668D01*
X317168Y-347775D01*
X368432Y-347775D01*
X369325Y-348668D01*
X369325Y-377998D01*
X369332Y-378080D01*
X369330Y-378162D01*
X369352Y-378303D01*
X369365Y-378446D01*
X369386Y-378526D01*
X369399Y-378607D01*
X369445Y-378742D01*
X369483Y-378881D01*
X369519Y-378955D01*
X369545Y-379033D01*
X369615Y-379158D01*
X369677Y-379287D01*
X369724Y-379354D01*
X369765Y-379426D01*
X369855Y-379537D01*
X369939Y-379653D01*
X369998Y-379711D01*
X370050Y-379774D01*
X370159Y-379867D01*
X370261Y-379967D01*
X370330Y-380013D01*
X370392Y-380067D01*
X370516Y-380139D01*
X370634Y-380219D01*
X370710Y-380253D01*
X370781Y-380294D01*
X370915Y-380344D01*
X371046Y-380402D01*
X371126Y-380421D01*
X371204Y-380450D01*
X371345Y-380474D01*
X371484Y-380508D01*
X371566Y-380513D01*
X371647Y-380528D01*
X371790Y-380527D01*
X371933Y-380536D01*
X372015Y-380526D01*
X372097Y-380526D01*
X372238Y-380500D01*
X372380Y-380484D01*
X372459Y-380460D01*
X372540Y-380445D01*
X372774Y-380365D01*
X372811Y-380354D01*
X372821Y-380349D01*
X372836Y-380344D01*
X374864Y-379503D01*
X377039Y-379503D01*
X377057Y-379508D01*
X377194Y-379550D01*
X377276Y-379561D01*
X377356Y-379580D01*
X377499Y-379589D01*
X377640Y-379607D01*
X377723Y-379603D01*
X377805Y-379608D01*
X377947Y-379592D01*
X378090Y-379584D01*
X378170Y-379566D01*
X378252Y-379556D01*
X378390Y-379515D01*
X378529Y-379482D01*
X378604Y-379450D01*
X378683Y-379426D01*
X378811Y-379361D01*
X378942Y-379304D01*
X379011Y-379259D01*
X379085Y-379221D01*
X379199Y-379135D01*
X379318Y-379056D01*
X379378Y-378999D01*
X379443Y-378949D01*
X379540Y-378844D01*
X379644Y-378745D01*
X379693Y-378679D01*
X379749Y-378618D01*
X379825Y-378497D01*
X379910Y-378382D01*
X379946Y-378308D01*
X379990Y-378238D01*
X380045Y-378106D01*
X380107Y-377977D01*
X380130Y-377898D01*
X380161Y-377822D01*
X380191Y-377682D01*
X380231Y-377544D01*
X380239Y-377462D01*
X380256Y-377382D01*
X380271Y-377136D01*
X380275Y-377096D01*
X380274Y-377086D01*
X380275Y-377070D01*
X380275Y-368668D01*
X381168Y-367775D01*
X412432Y-367775D01*
X413325Y-368668D01*
X413325Y-399932D01*
X412432Y-400825D01*
X381168Y-400825D01*
G37*
%LPD*%
%LPC*%
G36*
X495168Y-433825D02*
X495168Y-433825D01*
X494275Y-432932D01*
X494275Y-396668D01*
X495168Y-395775D01*
X546432Y-395775D01*
X547325Y-396668D01*
X547325Y-405997D01*
X547336Y-406126D01*
X547338Y-406256D01*
X547356Y-406350D01*
X547365Y-406445D01*
X547399Y-406571D01*
X547424Y-406698D01*
X547458Y-406787D01*
X547483Y-406879D01*
X547539Y-406997D01*
X547586Y-407118D01*
X547636Y-407200D01*
X547677Y-407286D01*
X547752Y-407392D01*
X547820Y-407503D01*
X547883Y-407574D01*
X547939Y-407652D01*
X548032Y-407743D01*
X548118Y-407840D01*
X548193Y-407899D01*
X548261Y-407966D01*
X548369Y-408039D01*
X548471Y-408120D01*
X548555Y-408165D01*
X548634Y-408218D01*
X548753Y-408271D01*
X548868Y-408332D01*
X548959Y-408362D01*
X549046Y-408401D01*
X549173Y-408431D01*
X549296Y-408472D01*
X549391Y-408485D01*
X549484Y-408507D01*
X549613Y-408515D01*
X549742Y-408533D01*
X549838Y-408529D01*
X549933Y-408535D01*
X550062Y-408520D01*
X550192Y-408515D01*
X550285Y-408494D01*
X550380Y-408483D01*
X550505Y-408445D01*
X550632Y-408417D01*
X550720Y-408380D01*
X550811Y-408353D01*
X550927Y-408294D01*
X551047Y-408243D01*
X551128Y-408191D01*
X551213Y-408148D01*
X551316Y-408070D01*
X551425Y-407999D01*
X551523Y-407913D01*
X551571Y-407876D01*
X551602Y-407843D01*
X551660Y-407792D01*
X566692Y-392760D01*
X566797Y-392634D01*
X566909Y-392513D01*
X566941Y-392462D01*
X566980Y-392415D01*
X567062Y-392272D01*
X567150Y-392133D01*
X567174Y-392077D01*
X567204Y-392024D01*
X567259Y-391869D01*
X567321Y-391717D01*
X567334Y-391657D01*
X567355Y-391599D01*
X567381Y-391437D01*
X567416Y-391276D01*
X567421Y-391200D01*
X567428Y-391155D01*
X567427Y-391094D01*
X567435Y-390965D01*
X567435Y-347392D01*
X567421Y-347228D01*
X567414Y-347064D01*
X567401Y-347004D01*
X567395Y-346943D01*
X567352Y-346785D01*
X567316Y-346624D01*
X567293Y-346568D01*
X567277Y-346509D01*
X567206Y-346361D01*
X567143Y-346209D01*
X567110Y-346157D01*
X567083Y-346102D01*
X567081Y-346099D01*
X566193Y-343956D01*
X566193Y-341844D01*
X567001Y-339894D01*
X568494Y-338401D01*
X570444Y-337593D01*
X572556Y-337593D01*
X574506Y-338401D01*
X575999Y-339894D01*
X576807Y-341844D01*
X576807Y-343956D01*
X575901Y-346143D01*
X575850Y-346223D01*
X575826Y-346280D01*
X575796Y-346333D01*
X575741Y-346488D01*
X575679Y-346640D01*
X575666Y-346699D01*
X575645Y-346757D01*
X575619Y-346919D01*
X575584Y-347080D01*
X575579Y-347157D01*
X575572Y-347201D01*
X575573Y-347262D01*
X575565Y-347392D01*
X575565Y-394509D01*
X574946Y-396002D01*
X548068Y-422880D01*
X547963Y-423006D01*
X547851Y-423127D01*
X547819Y-423178D01*
X547780Y-423225D01*
X547698Y-423368D01*
X547610Y-423507D01*
X547586Y-423563D01*
X547556Y-423616D01*
X547501Y-423771D01*
X547439Y-423923D01*
X547426Y-423983D01*
X547405Y-424041D01*
X547379Y-424203D01*
X547344Y-424364D01*
X547339Y-424440D01*
X547332Y-424485D01*
X547333Y-424546D01*
X547325Y-424675D01*
X547325Y-432932D01*
X546432Y-433825D01*
X495168Y-433825D01*
G37*
%LPD*%
%LPC*%
G36*
X317168Y-433825D02*
X317168Y-433825D01*
X316275Y-432932D01*
X316275Y-413004D01*
X316272Y-412969D01*
X316274Y-412935D01*
X316252Y-412746D01*
X316235Y-412555D01*
X316226Y-412522D01*
X316222Y-412488D01*
X316167Y-412305D01*
X316117Y-412121D01*
X316102Y-412090D01*
X316092Y-412057D01*
X316005Y-411886D01*
X315923Y-411714D01*
X315903Y-411686D01*
X315888Y-411655D01*
X315772Y-411503D01*
X315661Y-411348D01*
X315636Y-411324D01*
X315616Y-411297D01*
X315476Y-411168D01*
X315339Y-411034D01*
X315310Y-411015D01*
X315284Y-410991D01*
X315123Y-410889D01*
X314966Y-410782D01*
X314934Y-410768D01*
X314905Y-410750D01*
X314728Y-410677D01*
X314554Y-410600D01*
X314520Y-410592D01*
X314488Y-410579D01*
X314301Y-410539D01*
X314116Y-410493D01*
X314082Y-410491D01*
X314048Y-410484D01*
X313736Y-410465D01*
X296592Y-410465D01*
X296428Y-410479D01*
X296264Y-410486D01*
X296204Y-410499D01*
X296143Y-410505D01*
X295985Y-410548D01*
X295824Y-410584D01*
X295768Y-410607D01*
X295709Y-410623D01*
X295561Y-410694D01*
X295409Y-410757D01*
X295357Y-410790D01*
X295302Y-410817D01*
X295299Y-410819D01*
X293156Y-411707D01*
X291044Y-411707D01*
X289094Y-410899D01*
X287601Y-409406D01*
X286793Y-407456D01*
X286793Y-405344D01*
X287601Y-403394D01*
X289094Y-401901D01*
X291044Y-401093D01*
X293156Y-401093D01*
X295343Y-401999D01*
X295423Y-402050D01*
X295480Y-402074D01*
X295533Y-402104D01*
X295688Y-402159D01*
X295840Y-402221D01*
X295899Y-402234D01*
X295957Y-402255D01*
X296119Y-402281D01*
X296280Y-402316D01*
X296357Y-402321D01*
X296401Y-402328D01*
X296462Y-402327D01*
X296592Y-402335D01*
X313736Y-402335D01*
X313771Y-402332D01*
X313805Y-402334D01*
X313994Y-402312D01*
X314185Y-402295D01*
X314218Y-402286D01*
X314252Y-402282D01*
X314435Y-402227D01*
X314619Y-402177D01*
X314650Y-402162D01*
X314683Y-402152D01*
X314854Y-402065D01*
X315026Y-401983D01*
X315054Y-401963D01*
X315085Y-401948D01*
X315237Y-401832D01*
X315392Y-401721D01*
X315416Y-401696D01*
X315443Y-401676D01*
X315572Y-401536D01*
X315706Y-401399D01*
X315725Y-401370D01*
X315749Y-401344D01*
X315851Y-401183D01*
X315958Y-401026D01*
X315972Y-400994D01*
X315990Y-400965D01*
X316063Y-400788D01*
X316140Y-400614D01*
X316148Y-400580D01*
X316161Y-400548D01*
X316201Y-400361D01*
X316247Y-400176D01*
X316249Y-400142D01*
X316256Y-400108D01*
X316275Y-399796D01*
X316275Y-396668D01*
X317168Y-395775D01*
X368432Y-395775D01*
X369325Y-396668D01*
X369325Y-432932D01*
X368432Y-433825D01*
X317168Y-433825D01*
G37*
%LPD*%
%LPC*%
G36*
X506944Y-259307D02*
X506944Y-259307D01*
X504757Y-258401D01*
X504677Y-258350D01*
X504620Y-258326D01*
X504567Y-258296D01*
X504412Y-258241D01*
X504260Y-258179D01*
X504201Y-258166D01*
X504143Y-258145D01*
X503981Y-258119D01*
X503820Y-258084D01*
X503743Y-258079D01*
X503699Y-258072D01*
X503638Y-258073D01*
X503508Y-258065D01*
X494491Y-258065D01*
X492998Y-257446D01*
X386410Y-150858D01*
X386284Y-150753D01*
X386163Y-150641D01*
X386112Y-150609D01*
X386065Y-150570D01*
X385922Y-150488D01*
X385783Y-150400D01*
X385727Y-150376D01*
X385674Y-150346D01*
X385519Y-150291D01*
X385367Y-150229D01*
X385307Y-150216D01*
X385249Y-150195D01*
X385087Y-150169D01*
X384926Y-150134D01*
X384850Y-150129D01*
X384805Y-150122D01*
X384744Y-150123D01*
X384615Y-150115D01*
X348441Y-150115D01*
X346948Y-149496D01*
X345447Y-147996D01*
X345447Y-147995D01*
X335102Y-137650D01*
X334976Y-137545D01*
X334855Y-137433D01*
X334804Y-137401D01*
X334757Y-137362D01*
X334614Y-137280D01*
X334475Y-137192D01*
X334419Y-137168D01*
X334366Y-137138D01*
X334211Y-137083D01*
X334059Y-137021D01*
X333999Y-137008D01*
X333942Y-136987D01*
X333779Y-136961D01*
X333618Y-136926D01*
X333542Y-136921D01*
X333497Y-136914D01*
X333436Y-136915D01*
X333307Y-136907D01*
X326097Y-136907D01*
X320293Y-131103D01*
X320293Y-122897D01*
X326097Y-117093D01*
X334303Y-117093D01*
X340107Y-122897D01*
X340107Y-130107D01*
X340121Y-130270D01*
X340128Y-130435D01*
X340141Y-130494D01*
X340147Y-130555D01*
X340190Y-130714D01*
X340226Y-130874D01*
X340249Y-130931D01*
X340265Y-130989D01*
X340336Y-131138D01*
X340399Y-131290D01*
X340432Y-131341D01*
X340459Y-131396D01*
X340554Y-131530D01*
X340644Y-131668D01*
X340695Y-131726D01*
X340721Y-131762D01*
X340764Y-131805D01*
X340850Y-131902D01*
X350190Y-141242D01*
X350316Y-141347D01*
X350437Y-141459D01*
X350488Y-141491D01*
X350535Y-141530D01*
X350678Y-141612D01*
X350817Y-141700D01*
X350873Y-141724D01*
X350926Y-141754D01*
X351081Y-141809D01*
X351233Y-141871D01*
X351293Y-141884D01*
X351350Y-141905D01*
X351513Y-141931D01*
X351674Y-141966D01*
X351750Y-141971D01*
X351795Y-141978D01*
X351856Y-141977D01*
X351985Y-141985D01*
X388159Y-141985D01*
X389652Y-142604D01*
X496240Y-249192D01*
X496366Y-249297D01*
X496487Y-249409D01*
X496538Y-249441D01*
X496585Y-249480D01*
X496728Y-249562D01*
X496867Y-249650D01*
X496923Y-249674D01*
X496976Y-249704D01*
X497131Y-249759D01*
X497283Y-249821D01*
X497343Y-249834D01*
X497401Y-249855D01*
X497563Y-249881D01*
X497724Y-249916D01*
X497800Y-249921D01*
X497845Y-249928D01*
X497906Y-249927D01*
X498035Y-249935D01*
X503508Y-249935D01*
X503672Y-249921D01*
X503836Y-249914D01*
X503896Y-249901D01*
X503957Y-249895D01*
X504115Y-249852D01*
X504276Y-249816D01*
X504332Y-249793D01*
X504391Y-249777D01*
X504539Y-249706D01*
X504691Y-249643D01*
X504743Y-249610D01*
X504798Y-249583D01*
X504801Y-249581D01*
X506944Y-248693D01*
X509056Y-248693D01*
X511006Y-249501D01*
X512499Y-250994D01*
X513307Y-252944D01*
X513307Y-255056D01*
X512499Y-257006D01*
X511006Y-258499D01*
X509056Y-259307D01*
X506944Y-259307D01*
G37*
%LPD*%
%LPC*%
G36*
X495168Y-385825D02*
X495168Y-385825D01*
X494275Y-384932D01*
X494275Y-348668D01*
X495168Y-347775D01*
X513175Y-347775D01*
X513257Y-347768D01*
X513340Y-347770D01*
X513481Y-347748D01*
X513624Y-347735D01*
X513703Y-347714D01*
X513785Y-347701D01*
X513920Y-347654D01*
X514058Y-347617D01*
X514132Y-347581D01*
X514210Y-347555D01*
X514336Y-347485D01*
X514465Y-347423D01*
X514532Y-347375D01*
X514604Y-347335D01*
X514714Y-347245D01*
X514831Y-347161D01*
X514888Y-347102D01*
X514952Y-347050D01*
X515045Y-346941D01*
X515145Y-346839D01*
X515191Y-346770D01*
X515245Y-346708D01*
X515317Y-346584D01*
X515397Y-346466D01*
X515430Y-346390D01*
X515472Y-346319D01*
X515521Y-346185D01*
X515579Y-346054D01*
X515599Y-345974D01*
X515627Y-345896D01*
X515652Y-345755D01*
X515686Y-345616D01*
X515691Y-345534D01*
X515705Y-345453D01*
X515705Y-345310D01*
X515714Y-345167D01*
X515704Y-345085D01*
X515704Y-345003D01*
X515678Y-344862D01*
X515661Y-344720D01*
X515638Y-344641D01*
X515623Y-344560D01*
X515543Y-344327D01*
X515531Y-344289D01*
X515526Y-344279D01*
X515521Y-344264D01*
X515393Y-343956D01*
X515393Y-341844D01*
X516201Y-339894D01*
X517694Y-338401D01*
X519644Y-337593D01*
X521756Y-337593D01*
X523706Y-338401D01*
X525199Y-339894D01*
X526007Y-341844D01*
X526007Y-343956D01*
X525879Y-344264D01*
X525854Y-344343D01*
X525821Y-344418D01*
X525787Y-344557D01*
X525744Y-344694D01*
X525734Y-344776D01*
X525714Y-344856D01*
X525705Y-344998D01*
X525687Y-345141D01*
X525692Y-345223D01*
X525686Y-345305D01*
X525703Y-345447D01*
X525710Y-345590D01*
X525729Y-345670D01*
X525739Y-345752D01*
X525780Y-345889D01*
X525812Y-346029D01*
X525845Y-346104D01*
X525869Y-346183D01*
X525934Y-346311D01*
X525990Y-346442D01*
X526036Y-346511D01*
X526073Y-346585D01*
X526160Y-346698D01*
X526239Y-346818D01*
X526295Y-346878D01*
X526345Y-346943D01*
X526450Y-347040D01*
X526549Y-347144D01*
X526616Y-347193D01*
X526676Y-347249D01*
X526797Y-347325D01*
X526913Y-347410D01*
X526987Y-347446D01*
X527056Y-347490D01*
X527189Y-347545D01*
X527317Y-347608D01*
X527396Y-347630D01*
X527473Y-347661D01*
X527613Y-347691D01*
X527750Y-347731D01*
X527832Y-347739D01*
X527913Y-347756D01*
X528159Y-347771D01*
X528198Y-347775D01*
X528209Y-347774D01*
X528225Y-347775D01*
X546432Y-347775D01*
X547325Y-348668D01*
X547325Y-384932D01*
X546432Y-385825D01*
X495168Y-385825D01*
G37*
%LPD*%
%LPC*%
G36*
X317168Y-481825D02*
X317168Y-481825D01*
X316275Y-480932D01*
X316275Y-444668D01*
X317168Y-443775D01*
X368432Y-443775D01*
X369325Y-444668D01*
X369325Y-480932D01*
X368432Y-481825D01*
X317168Y-481825D01*
G37*
%LPD*%
%LPC*%
G36*
X495168Y-481825D02*
X495168Y-481825D01*
X494275Y-480932D01*
X494275Y-444668D01*
X495168Y-443775D01*
X546432Y-443775D01*
X547325Y-444668D01*
X547325Y-480932D01*
X546432Y-481825D01*
X495168Y-481825D01*
G37*
%LPD*%
%LPC*%
G36*
X326097Y-175007D02*
X326097Y-175007D01*
X320293Y-169203D01*
X320293Y-161993D01*
X320279Y-161830D01*
X320272Y-161665D01*
X320259Y-161606D01*
X320253Y-161545D01*
X320210Y-161386D01*
X320174Y-161226D01*
X320151Y-161169D01*
X320135Y-161111D01*
X320064Y-160962D01*
X320001Y-160810D01*
X319968Y-160759D01*
X319941Y-160704D01*
X319846Y-160570D01*
X319756Y-160432D01*
X319705Y-160374D01*
X319679Y-160338D01*
X319636Y-160295D01*
X319550Y-160198D01*
X275954Y-116602D01*
X275335Y-115109D01*
X275335Y-99897D01*
X275321Y-99734D01*
X275314Y-99569D01*
X275301Y-99510D01*
X275295Y-99449D01*
X275252Y-99290D01*
X275216Y-99130D01*
X275193Y-99073D01*
X275177Y-99014D01*
X275106Y-98866D01*
X275043Y-98714D01*
X275010Y-98663D01*
X274983Y-98608D01*
X274888Y-98474D01*
X274798Y-98336D01*
X274747Y-98278D01*
X274721Y-98242D01*
X274678Y-98199D01*
X274592Y-98102D01*
X269493Y-93003D01*
X269493Y-84797D01*
X275297Y-78993D01*
X283503Y-78993D01*
X289586Y-85076D01*
X289613Y-85098D01*
X289636Y-85124D01*
X289785Y-85242D01*
X289931Y-85365D01*
X289961Y-85382D01*
X289989Y-85403D01*
X290157Y-85493D01*
X290322Y-85588D01*
X290355Y-85600D01*
X290386Y-85616D01*
X290567Y-85675D01*
X290747Y-85739D01*
X290781Y-85745D01*
X290814Y-85755D01*
X291003Y-85781D01*
X291191Y-85812D01*
X291225Y-85812D01*
X291260Y-85817D01*
X291451Y-85809D01*
X291641Y-85806D01*
X291675Y-85800D01*
X291710Y-85798D01*
X291896Y-85757D01*
X292083Y-85721D01*
X292115Y-85708D01*
X292149Y-85701D01*
X292325Y-85627D01*
X292503Y-85558D01*
X292533Y-85540D01*
X292565Y-85527D01*
X292725Y-85424D01*
X292888Y-85325D01*
X292914Y-85302D01*
X292943Y-85283D01*
X293177Y-85076D01*
X300276Y-77977D01*
X302261Y-77977D01*
X302261Y-88900D01*
X302261Y-99823D01*
X300276Y-99823D01*
X293177Y-92724D01*
X293150Y-92702D01*
X293128Y-92676D01*
X292978Y-92558D01*
X292832Y-92435D01*
X292802Y-92418D01*
X292774Y-92397D01*
X292607Y-92307D01*
X292441Y-92212D01*
X292408Y-92200D01*
X292378Y-92184D01*
X292197Y-92125D01*
X292017Y-92061D01*
X291982Y-92055D01*
X291949Y-92045D01*
X291760Y-92019D01*
X291572Y-91988D01*
X291538Y-91988D01*
X291503Y-91983D01*
X291312Y-91991D01*
X291122Y-91994D01*
X291088Y-92000D01*
X291053Y-92002D01*
X290867Y-92043D01*
X290680Y-92079D01*
X290648Y-92092D01*
X290614Y-92099D01*
X290438Y-92173D01*
X290260Y-92242D01*
X290230Y-92260D01*
X290198Y-92273D01*
X290039Y-92376D01*
X289875Y-92475D01*
X289849Y-92498D01*
X289820Y-92517D01*
X289586Y-92724D01*
X284208Y-98102D01*
X284103Y-98228D01*
X283991Y-98349D01*
X283959Y-98400D01*
X283920Y-98447D01*
X283838Y-98590D01*
X283750Y-98729D01*
X283726Y-98785D01*
X283696Y-98838D01*
X283641Y-98993D01*
X283579Y-99145D01*
X283566Y-99205D01*
X283545Y-99262D01*
X283519Y-99425D01*
X283484Y-99585D01*
X283479Y-99662D01*
X283472Y-99707D01*
X283473Y-99768D01*
X283465Y-99897D01*
X283465Y-111565D01*
X283479Y-111728D01*
X283486Y-111893D01*
X283499Y-111952D01*
X283505Y-112013D01*
X283548Y-112172D01*
X283584Y-112332D01*
X283607Y-112389D01*
X283623Y-112447D01*
X283694Y-112596D01*
X283757Y-112748D01*
X283790Y-112799D01*
X283817Y-112854D01*
X283912Y-112988D01*
X284002Y-113126D01*
X284053Y-113184D01*
X284079Y-113220D01*
X284122Y-113263D01*
X284208Y-113360D01*
X325298Y-154450D01*
X325424Y-154555D01*
X325545Y-154667D01*
X325596Y-154699D01*
X325643Y-154738D01*
X325786Y-154820D01*
X325925Y-154908D01*
X325981Y-154932D01*
X326034Y-154962D01*
X326189Y-155017D01*
X326341Y-155079D01*
X326401Y-155092D01*
X326459Y-155113D01*
X326621Y-155139D01*
X326782Y-155174D01*
X326858Y-155179D01*
X326903Y-155186D01*
X326964Y-155185D01*
X327093Y-155193D01*
X334303Y-155193D01*
X340107Y-160997D01*
X340107Y-169203D01*
X334303Y-175007D01*
X326097Y-175007D01*
G37*
%LPD*%
%LPC*%
G36*
X468844Y-475207D02*
X468844Y-475207D01*
X466894Y-474399D01*
X465401Y-472906D01*
X464495Y-470718D01*
X464474Y-470626D01*
X464451Y-470569D01*
X464435Y-470511D01*
X464364Y-470362D01*
X464301Y-470210D01*
X464268Y-470159D01*
X464241Y-470104D01*
X464146Y-469970D01*
X464056Y-469832D01*
X464005Y-469774D01*
X463979Y-469738D01*
X463936Y-469695D01*
X463850Y-469598D01*
X463354Y-469102D01*
X462735Y-467609D01*
X462735Y-458364D01*
X462732Y-458329D01*
X462734Y-458295D01*
X462712Y-458106D01*
X462695Y-457915D01*
X462686Y-457882D01*
X462682Y-457848D01*
X462627Y-457665D01*
X462577Y-457481D01*
X462562Y-457450D01*
X462552Y-457417D01*
X462465Y-457246D01*
X462383Y-457074D01*
X462363Y-457046D01*
X462348Y-457015D01*
X462232Y-456863D01*
X462121Y-456708D01*
X462096Y-456684D01*
X462076Y-456657D01*
X461936Y-456528D01*
X461799Y-456394D01*
X461770Y-456375D01*
X461744Y-456351D01*
X461583Y-456249D01*
X461426Y-456142D01*
X461394Y-456128D01*
X461365Y-456110D01*
X461188Y-456037D01*
X461014Y-455960D01*
X460980Y-455952D01*
X460948Y-455939D01*
X460761Y-455899D01*
X460576Y-455853D01*
X460542Y-455851D01*
X460508Y-455844D01*
X460196Y-455825D01*
X451168Y-455825D01*
X450275Y-454932D01*
X450275Y-423668D01*
X451168Y-422775D01*
X482432Y-422775D01*
X483325Y-423668D01*
X483325Y-454932D01*
X482432Y-455825D01*
X473404Y-455825D01*
X473369Y-455828D01*
X473335Y-455826D01*
X473146Y-455848D01*
X472955Y-455865D01*
X472922Y-455874D01*
X472888Y-455878D01*
X472705Y-455933D01*
X472521Y-455983D01*
X472490Y-455998D01*
X472457Y-456008D01*
X472286Y-456095D01*
X472114Y-456177D01*
X472086Y-456197D01*
X472055Y-456212D01*
X471903Y-456328D01*
X471748Y-456439D01*
X471724Y-456464D01*
X471697Y-456484D01*
X471568Y-456624D01*
X471434Y-456761D01*
X471415Y-456790D01*
X471391Y-456816D01*
X471289Y-456977D01*
X471182Y-457134D01*
X471168Y-457166D01*
X471150Y-457195D01*
X471077Y-457372D01*
X471000Y-457546D01*
X470992Y-457580D01*
X470979Y-457612D01*
X470939Y-457799D01*
X470893Y-457984D01*
X470891Y-458018D01*
X470884Y-458052D01*
X470865Y-458364D01*
X470865Y-462859D01*
X470884Y-463071D01*
X470900Y-463281D01*
X470903Y-463294D01*
X470905Y-463307D01*
X470961Y-463513D01*
X471014Y-463717D01*
X471020Y-463729D01*
X471023Y-463742D01*
X471114Y-463933D01*
X471203Y-464126D01*
X471211Y-464137D01*
X471217Y-464148D01*
X471340Y-464321D01*
X471462Y-464494D01*
X471471Y-464504D01*
X471479Y-464515D01*
X471631Y-464663D01*
X471781Y-464812D01*
X471792Y-464819D01*
X471801Y-464829D01*
X471977Y-464947D01*
X472151Y-465068D01*
X472166Y-465075D01*
X472174Y-465081D01*
X472210Y-465097D01*
X472432Y-465205D01*
X472906Y-465401D01*
X474399Y-466894D01*
X475207Y-468844D01*
X475207Y-470956D01*
X474399Y-472906D01*
X472906Y-474399D01*
X470956Y-475207D01*
X468844Y-475207D01*
G37*
%LPD*%
%LPC*%
G36*
X456144Y-411707D02*
X456144Y-411707D01*
X454194Y-410899D01*
X452701Y-409406D01*
X451893Y-407456D01*
X451893Y-405344D01*
X452355Y-404229D01*
X452420Y-404024D01*
X452484Y-403825D01*
X452486Y-403812D01*
X452490Y-403799D01*
X452517Y-403588D01*
X452546Y-403379D01*
X452545Y-403365D01*
X452547Y-403352D01*
X452536Y-403142D01*
X452527Y-402929D01*
X452525Y-402916D01*
X452524Y-402903D01*
X452476Y-402697D01*
X452430Y-402489D01*
X452425Y-402477D01*
X452422Y-402464D01*
X452338Y-402268D01*
X452256Y-402074D01*
X452249Y-402063D01*
X452244Y-402050D01*
X452127Y-401873D01*
X452012Y-401695D01*
X452002Y-401684D01*
X451996Y-401675D01*
X451969Y-401646D01*
X451805Y-401461D01*
X450275Y-399932D01*
X450275Y-368668D01*
X451168Y-367775D01*
X482432Y-367775D01*
X483325Y-368668D01*
X483325Y-399932D01*
X482432Y-400825D01*
X469575Y-400825D01*
X469412Y-400839D01*
X469247Y-400846D01*
X469188Y-400859D01*
X469127Y-400865D01*
X468968Y-400908D01*
X468808Y-400944D01*
X468751Y-400967D01*
X468693Y-400983D01*
X468544Y-401054D01*
X468392Y-401117D01*
X468341Y-401150D01*
X468286Y-401177D01*
X468152Y-401272D01*
X468014Y-401362D01*
X467956Y-401413D01*
X467920Y-401439D01*
X467877Y-401482D01*
X467780Y-401568D01*
X463250Y-406098D01*
X463145Y-406224D01*
X463033Y-406345D01*
X463001Y-406396D01*
X462962Y-406443D01*
X462880Y-406586D01*
X462792Y-406725D01*
X462768Y-406781D01*
X462738Y-406834D01*
X462683Y-406989D01*
X462621Y-407141D01*
X462608Y-407201D01*
X462587Y-407259D01*
X462587Y-407262D01*
X461699Y-409406D01*
X460206Y-410899D01*
X458256Y-411707D01*
X456144Y-411707D01*
G37*
%LPD*%
%LPC*%
G36*
X596900Y-416561D02*
X596900Y-416561D01*
X585215Y-416561D01*
X585255Y-416304D01*
X585836Y-414517D01*
X586689Y-412843D01*
X587794Y-411322D01*
X589122Y-409994D01*
X590643Y-408889D01*
X592185Y-408103D01*
X592211Y-408087D01*
X592239Y-408075D01*
X592402Y-407967D01*
X592567Y-407864D01*
X592589Y-407844D01*
X592614Y-407827D01*
X592756Y-407692D01*
X592900Y-407561D01*
X592918Y-407537D01*
X592940Y-407516D01*
X593055Y-407359D01*
X593174Y-407204D01*
X593188Y-407177D01*
X593206Y-407153D01*
X593292Y-406978D01*
X593382Y-406805D01*
X593391Y-406776D01*
X593404Y-406748D01*
X593457Y-406561D01*
X593515Y-406374D01*
X593519Y-406344D01*
X593527Y-406315D01*
X593546Y-406121D01*
X593570Y-405928D01*
X593568Y-405897D01*
X593572Y-405867D01*
X593556Y-405672D01*
X593546Y-405478D01*
X593539Y-405448D01*
X593536Y-405418D01*
X593487Y-405230D01*
X593442Y-405040D01*
X593430Y-405012D01*
X593422Y-404983D01*
X593341Y-404806D01*
X593263Y-404627D01*
X593246Y-404602D01*
X593233Y-404574D01*
X593121Y-404414D01*
X593013Y-404252D01*
X592992Y-404230D01*
X592975Y-404205D01*
X592837Y-404068D01*
X592701Y-403927D01*
X592677Y-403909D01*
X592655Y-403888D01*
X592496Y-403777D01*
X592337Y-403662D01*
X592310Y-403649D01*
X592285Y-403632D01*
X592004Y-403495D01*
X590713Y-402960D01*
X587640Y-399887D01*
X585977Y-395873D01*
X585977Y-391527D01*
X587640Y-387513D01*
X590713Y-384440D01*
X593354Y-383346D01*
X593470Y-383286D01*
X593589Y-383234D01*
X593669Y-383182D01*
X593754Y-383137D01*
X593856Y-383058D01*
X593965Y-382986D01*
X594034Y-382920D01*
X594109Y-382862D01*
X594197Y-382765D01*
X594291Y-382675D01*
X594347Y-382598D01*
X594411Y-382527D01*
X594480Y-382417D01*
X594557Y-382312D01*
X594599Y-382226D01*
X594649Y-382145D01*
X594697Y-382024D01*
X594754Y-381908D01*
X594780Y-381816D01*
X594816Y-381727D01*
X594842Y-381599D01*
X594877Y-381474D01*
X594887Y-381379D01*
X594906Y-381286D01*
X594909Y-381156D01*
X594922Y-381026D01*
X594914Y-380931D01*
X594917Y-380836D01*
X594897Y-380707D01*
X594887Y-380577D01*
X594862Y-380485D01*
X594848Y-380391D01*
X594806Y-380268D01*
X594773Y-380142D01*
X594732Y-380055D01*
X594701Y-379965D01*
X594638Y-379851D01*
X594583Y-379733D01*
X594529Y-379655D01*
X594482Y-379572D01*
X594400Y-379471D01*
X594325Y-379364D01*
X594257Y-379297D01*
X594197Y-379223D01*
X594098Y-379139D01*
X594006Y-379047D01*
X593927Y-378993D01*
X593854Y-378931D01*
X593742Y-378865D01*
X593635Y-378791D01*
X593518Y-378734D01*
X593466Y-378703D01*
X593424Y-378688D01*
X593354Y-378654D01*
X590713Y-377560D01*
X587640Y-374487D01*
X585977Y-370473D01*
X585977Y-366127D01*
X587640Y-362113D01*
X590713Y-359040D01*
X594727Y-357377D01*
X599073Y-357377D01*
X603087Y-359040D01*
X606160Y-362113D01*
X607823Y-366127D01*
X607823Y-370473D01*
X606160Y-374487D01*
X603087Y-377560D01*
X600446Y-378654D01*
X600330Y-378714D01*
X600211Y-378766D01*
X600131Y-378818D01*
X600047Y-378863D01*
X599944Y-378942D01*
X599835Y-379014D01*
X599766Y-379080D01*
X599691Y-379138D01*
X599603Y-379235D01*
X599509Y-379324D01*
X599453Y-379402D01*
X599389Y-379472D01*
X599320Y-379583D01*
X599243Y-379688D01*
X599201Y-379774D01*
X599151Y-379855D01*
X599103Y-379975D01*
X599046Y-380092D01*
X599020Y-380184D01*
X598984Y-380273D01*
X598958Y-380400D01*
X598923Y-380526D01*
X598913Y-380621D01*
X598894Y-380714D01*
X598891Y-380844D01*
X598878Y-380974D01*
X598886Y-381069D01*
X598883Y-381164D01*
X598903Y-381293D01*
X598913Y-381423D01*
X598938Y-381515D01*
X598952Y-381609D01*
X598995Y-381732D01*
X599027Y-381858D01*
X599068Y-381945D01*
X599099Y-382035D01*
X599162Y-382149D01*
X599217Y-382267D01*
X599271Y-382345D01*
X599318Y-382428D01*
X599400Y-382529D01*
X599475Y-382636D01*
X599543Y-382703D01*
X599603Y-382777D01*
X599702Y-382861D01*
X599794Y-382953D01*
X599873Y-383007D01*
X599946Y-383069D01*
X600058Y-383135D01*
X600165Y-383209D01*
X600282Y-383266D01*
X600334Y-383297D01*
X600376Y-383312D01*
X600446Y-383346D01*
X603087Y-384440D01*
X606160Y-387513D01*
X607823Y-391527D01*
X607823Y-395873D01*
X606160Y-399887D01*
X603087Y-402960D01*
X601796Y-403495D01*
X601769Y-403509D01*
X601740Y-403519D01*
X601569Y-403613D01*
X601397Y-403703D01*
X601373Y-403722D01*
X601346Y-403737D01*
X601195Y-403860D01*
X601041Y-403979D01*
X601020Y-404002D01*
X600997Y-404021D01*
X600870Y-404168D01*
X600739Y-404313D01*
X600723Y-404339D01*
X600703Y-404362D01*
X600604Y-404530D01*
X600501Y-404696D01*
X600490Y-404724D01*
X600475Y-404750D01*
X600407Y-404932D01*
X600335Y-405114D01*
X600329Y-405144D01*
X600318Y-405172D01*
X600284Y-405363D01*
X600244Y-405555D01*
X600244Y-405585D01*
X600238Y-405615D01*
X600238Y-405811D01*
X600234Y-406005D01*
X600238Y-406035D01*
X600238Y-406066D01*
X600273Y-406258D01*
X600303Y-406450D01*
X600312Y-406479D01*
X600318Y-406509D01*
X600386Y-406692D01*
X600449Y-406876D01*
X600464Y-406902D01*
X600474Y-406931D01*
X600573Y-407099D01*
X600668Y-407269D01*
X600688Y-407293D01*
X600703Y-407319D01*
X600830Y-407467D01*
X600954Y-407617D01*
X600977Y-407637D01*
X600996Y-407660D01*
X601148Y-407784D01*
X601296Y-407910D01*
X601322Y-407925D01*
X601346Y-407944D01*
X601615Y-408103D01*
X603157Y-408889D01*
X604678Y-409994D01*
X606006Y-411322D01*
X607111Y-412843D01*
X607964Y-414517D01*
X608545Y-416304D01*
X608585Y-416561D01*
X596900Y-416561D01*
X596900Y-416561D01*
G37*
%LPD*%
%LPC*%
G36*
X532229Y-149237D02*
X532229Y-149237D01*
X528588Y-147729D01*
X525801Y-144942D01*
X524293Y-141301D01*
X524293Y-138176D01*
X524290Y-138141D01*
X524292Y-138107D01*
X524270Y-137918D01*
X524253Y-137727D01*
X524244Y-137694D01*
X524240Y-137660D01*
X524185Y-137477D01*
X524135Y-137293D01*
X524120Y-137262D01*
X524110Y-137229D01*
X524023Y-137058D01*
X523941Y-136886D01*
X523921Y-136858D01*
X523906Y-136827D01*
X523790Y-136675D01*
X523679Y-136520D01*
X523654Y-136496D01*
X523634Y-136469D01*
X523494Y-136340D01*
X523357Y-136206D01*
X523328Y-136187D01*
X523302Y-136163D01*
X523141Y-136061D01*
X522984Y-135954D01*
X522952Y-135940D01*
X522923Y-135922D01*
X522746Y-135849D01*
X522572Y-135772D01*
X522538Y-135764D01*
X522506Y-135751D01*
X522319Y-135711D01*
X522134Y-135665D01*
X522100Y-135663D01*
X522066Y-135656D01*
X521754Y-135637D01*
X518729Y-135637D01*
X515088Y-134129D01*
X512301Y-131342D01*
X510793Y-127701D01*
X510793Y-123759D01*
X512301Y-120118D01*
X515088Y-117331D01*
X518729Y-115823D01*
X522671Y-115823D01*
X526312Y-117331D01*
X529099Y-120118D01*
X530607Y-123759D01*
X530607Y-126884D01*
X530610Y-126919D01*
X530608Y-126953D01*
X530630Y-127142D01*
X530647Y-127333D01*
X530656Y-127366D01*
X530660Y-127400D01*
X530715Y-127583D01*
X530765Y-127767D01*
X530780Y-127798D01*
X530790Y-127831D01*
X530877Y-128002D01*
X530959Y-128174D01*
X530979Y-128202D01*
X530994Y-128233D01*
X531110Y-128385D01*
X531221Y-128540D01*
X531246Y-128564D01*
X531266Y-128591D01*
X531406Y-128720D01*
X531543Y-128854D01*
X531572Y-128873D01*
X531598Y-128897D01*
X531759Y-128999D01*
X531916Y-129106D01*
X531948Y-129120D01*
X531977Y-129138D01*
X532154Y-129211D01*
X532328Y-129288D01*
X532362Y-129296D01*
X532394Y-129309D01*
X532581Y-129349D01*
X532766Y-129395D01*
X532800Y-129397D01*
X532834Y-129404D01*
X533146Y-129423D01*
X536171Y-129423D01*
X539812Y-130931D01*
X542599Y-133718D01*
X544107Y-137359D01*
X544107Y-141301D01*
X542599Y-144942D01*
X539812Y-147729D01*
X536171Y-149237D01*
X532229Y-149237D01*
G37*
%LPD*%
%LPC*%
G36*
X594727Y-455423D02*
X594727Y-455423D01*
X590713Y-453760D01*
X587640Y-450687D01*
X585977Y-446673D01*
X585977Y-442327D01*
X587640Y-438313D01*
X590713Y-435240D01*
X592004Y-434705D01*
X592031Y-434691D01*
X592060Y-434681D01*
X592231Y-434587D01*
X592403Y-434497D01*
X592427Y-434478D01*
X592454Y-434463D01*
X592605Y-434340D01*
X592759Y-434221D01*
X592780Y-434198D01*
X592803Y-434179D01*
X592930Y-434032D01*
X593061Y-433887D01*
X593077Y-433861D01*
X593097Y-433838D01*
X593196Y-433670D01*
X593299Y-433504D01*
X593310Y-433476D01*
X593325Y-433450D01*
X593393Y-433268D01*
X593465Y-433086D01*
X593471Y-433056D01*
X593482Y-433028D01*
X593516Y-432837D01*
X593556Y-432645D01*
X593556Y-432615D01*
X593562Y-432585D01*
X593562Y-432389D01*
X593566Y-432195D01*
X593562Y-432165D01*
X593562Y-432134D01*
X593527Y-431942D01*
X593497Y-431750D01*
X593488Y-431721D01*
X593482Y-431691D01*
X593414Y-431508D01*
X593351Y-431324D01*
X593336Y-431298D01*
X593326Y-431269D01*
X593227Y-431101D01*
X593132Y-430931D01*
X593112Y-430907D01*
X593097Y-430881D01*
X592970Y-430733D01*
X592846Y-430583D01*
X592823Y-430563D01*
X592804Y-430540D01*
X592652Y-430416D01*
X592504Y-430290D01*
X592478Y-430275D01*
X592454Y-430256D01*
X592185Y-430097D01*
X590643Y-429311D01*
X589122Y-428206D01*
X587794Y-426878D01*
X586689Y-425357D01*
X585836Y-423683D01*
X585255Y-421896D01*
X585215Y-421639D01*
X596900Y-421639D01*
X608585Y-421639D01*
X608545Y-421896D01*
X607964Y-423683D01*
X607111Y-425357D01*
X606006Y-426878D01*
X604678Y-428206D01*
X603157Y-429311D01*
X601615Y-430097D01*
X601589Y-430113D01*
X601561Y-430125D01*
X601398Y-430233D01*
X601233Y-430336D01*
X601211Y-430356D01*
X601186Y-430373D01*
X601044Y-430508D01*
X600900Y-430639D01*
X600882Y-430663D01*
X600860Y-430684D01*
X600745Y-430841D01*
X600626Y-430996D01*
X600612Y-431023D01*
X600594Y-431047D01*
X600508Y-431222D01*
X600418Y-431395D01*
X600409Y-431424D01*
X600396Y-431452D01*
X600343Y-431639D01*
X600285Y-431826D01*
X600281Y-431856D01*
X600273Y-431885D01*
X600254Y-432079D01*
X600230Y-432272D01*
X600232Y-432303D01*
X600228Y-432333D01*
X600244Y-432528D01*
X600254Y-432722D01*
X600261Y-432752D01*
X600264Y-432782D01*
X600313Y-432970D01*
X600358Y-433160D01*
X600370Y-433188D01*
X600378Y-433217D01*
X600459Y-433394D01*
X600537Y-433573D01*
X600554Y-433598D01*
X600567Y-433626D01*
X600679Y-433786D01*
X600787Y-433948D01*
X600808Y-433970D01*
X600825Y-433995D01*
X600963Y-434132D01*
X601099Y-434273D01*
X601123Y-434291D01*
X601145Y-434312D01*
X601304Y-434423D01*
X601463Y-434538D01*
X601490Y-434551D01*
X601515Y-434568D01*
X601796Y-434705D01*
X603087Y-435240D01*
X606160Y-438313D01*
X607823Y-442327D01*
X607823Y-446673D01*
X606160Y-450687D01*
X603087Y-453760D01*
X599073Y-455423D01*
X594727Y-455423D01*
G37*
%LPD*%
%LPC*%
G36*
X382991Y-235205D02*
X382991Y-235205D01*
X379630Y-233813D01*
X377057Y-231240D01*
X375665Y-227879D01*
X375665Y-209001D01*
X377057Y-205640D01*
X379630Y-203067D01*
X382991Y-201675D01*
X386629Y-201675D01*
X389990Y-203067D01*
X392563Y-205640D01*
X393955Y-209001D01*
X393955Y-227879D01*
X392563Y-231240D01*
X389990Y-233813D01*
X386629Y-235205D01*
X382991Y-235205D01*
G37*
%LPD*%
%LPC*%
G36*
X408391Y-235205D02*
X408391Y-235205D01*
X405030Y-233813D01*
X402457Y-231240D01*
X401065Y-227879D01*
X401065Y-209001D01*
X402457Y-205640D01*
X405030Y-203067D01*
X408391Y-201675D01*
X412029Y-201675D01*
X415390Y-203067D01*
X417963Y-205640D01*
X419355Y-209001D01*
X419355Y-227879D01*
X417963Y-231240D01*
X415390Y-233813D01*
X412029Y-235205D01*
X408391Y-235205D01*
G37*
%LPD*%
%LPC*%
G36*
X357591Y-235205D02*
X357591Y-235205D01*
X354230Y-233813D01*
X351657Y-231240D01*
X350265Y-227879D01*
X350265Y-209001D01*
X351657Y-205640D01*
X354230Y-203067D01*
X357591Y-201675D01*
X361229Y-201675D01*
X364590Y-203067D01*
X367163Y-205640D01*
X368555Y-209001D01*
X368555Y-227879D01*
X367163Y-231240D01*
X364590Y-233813D01*
X361229Y-235205D01*
X357591Y-235205D01*
G37*
%LPD*%
%LPC*%
G36*
X414576Y-99823D02*
X414576Y-99823D01*
X407477Y-92724D01*
X407450Y-92702D01*
X407428Y-92676D01*
X407278Y-92558D01*
X407132Y-92435D01*
X407102Y-92418D01*
X407074Y-92397D01*
X406907Y-92307D01*
X406741Y-92212D01*
X406708Y-92200D01*
X406678Y-92184D01*
X406497Y-92125D01*
X406317Y-92061D01*
X406282Y-92055D01*
X406249Y-92045D01*
X406060Y-92019D01*
X405872Y-91988D01*
X405838Y-91988D01*
X405803Y-91983D01*
X405612Y-91991D01*
X405422Y-91994D01*
X405388Y-92000D01*
X405353Y-92002D01*
X405167Y-92043D01*
X404980Y-92079D01*
X404948Y-92092D01*
X404914Y-92099D01*
X404738Y-92173D01*
X404560Y-92242D01*
X404530Y-92260D01*
X404498Y-92273D01*
X404339Y-92376D01*
X404175Y-92475D01*
X404149Y-92498D01*
X404120Y-92517D01*
X403886Y-92724D01*
X397803Y-98807D01*
X389597Y-98807D01*
X383793Y-93003D01*
X383793Y-84797D01*
X389597Y-78993D01*
X397803Y-78993D01*
X403886Y-85076D01*
X403913Y-85098D01*
X403936Y-85124D01*
X404085Y-85242D01*
X404231Y-85365D01*
X404261Y-85382D01*
X404289Y-85403D01*
X404457Y-85493D01*
X404622Y-85588D01*
X404655Y-85600D01*
X404686Y-85616D01*
X404867Y-85675D01*
X405047Y-85739D01*
X405081Y-85745D01*
X405114Y-85755D01*
X405303Y-85781D01*
X405491Y-85812D01*
X405525Y-85812D01*
X405560Y-85817D01*
X405751Y-85809D01*
X405941Y-85806D01*
X405975Y-85800D01*
X406010Y-85798D01*
X406196Y-85757D01*
X406383Y-85721D01*
X406415Y-85708D01*
X406449Y-85701D01*
X406625Y-85627D01*
X406803Y-85558D01*
X406833Y-85540D01*
X406865Y-85527D01*
X407025Y-85424D01*
X407188Y-85325D01*
X407214Y-85302D01*
X407243Y-85283D01*
X407477Y-85076D01*
X414576Y-77977D01*
X416561Y-77977D01*
X416561Y-88900D01*
X416561Y-99823D01*
X414576Y-99823D01*
G37*
%LPD*%
%LPC*%
G36*
X525639Y11683D02*
X525639Y11683D01*
X521625Y13346D01*
X518552Y16419D01*
X516889Y20433D01*
X516889Y24779D01*
X518552Y28793D01*
X521625Y31866D01*
X525639Y33529D01*
X529985Y33529D01*
X533999Y31866D01*
X537072Y28793D01*
X538735Y24779D01*
X538735Y20433D01*
X537072Y16419D01*
X533999Y13346D01*
X529985Y11683D01*
X525639Y11683D01*
G37*
%LPD*%
%LPC*%
G36*
X460615Y11683D02*
X460615Y11683D01*
X456601Y13346D01*
X453528Y16419D01*
X451865Y20433D01*
X451865Y24779D01*
X453528Y28793D01*
X456601Y31866D01*
X460615Y33529D01*
X464961Y33529D01*
X468975Y31866D01*
X472048Y28793D01*
X473711Y24779D01*
X473711Y20433D01*
X472048Y16419D01*
X468975Y13346D01*
X464961Y11683D01*
X460615Y11683D01*
G37*
%LPD*%
%LPC*%
G36*
X525639Y-33529D02*
X525639Y-33529D01*
X521625Y-31866D01*
X518552Y-28793D01*
X516889Y-24779D01*
X516889Y-20433D01*
X518552Y-16419D01*
X521625Y-13346D01*
X525639Y-11683D01*
X529985Y-11683D01*
X533999Y-13346D01*
X537072Y-16419D01*
X538735Y-20433D01*
X538735Y-24779D01*
X537072Y-28793D01*
X533999Y-31866D01*
X529985Y-33529D01*
X525639Y-33529D01*
G37*
%LPD*%
%LPC*%
G36*
X468879Y-357841D02*
X468879Y-357841D01*
X468879Y-335379D01*
X483841Y-335379D01*
X483841Y-355635D01*
X483668Y-356281D01*
X483333Y-356860D01*
X482860Y-357333D01*
X482281Y-357668D01*
X481635Y-357841D01*
X468879Y-357841D01*
G37*
%LPD*%
%LPC*%
G36*
X347879Y-530841D02*
X347879Y-530841D01*
X347879Y-515879D01*
X370341Y-515879D01*
X370341Y-528635D01*
X370168Y-529281D01*
X369833Y-529860D01*
X369360Y-530333D01*
X368781Y-530668D01*
X368135Y-530841D01*
X347879Y-530841D01*
G37*
%LPD*%
%LPC*%
G36*
X317465Y-530841D02*
X317465Y-530841D01*
X316819Y-530668D01*
X316240Y-530333D01*
X315767Y-529860D01*
X315432Y-529281D01*
X315259Y-528635D01*
X315259Y-515879D01*
X337721Y-515879D01*
X337721Y-530841D01*
X317465Y-530841D01*
G37*
%LPD*%
%LPC*%
G36*
X468879Y-325221D02*
X468879Y-325221D01*
X468879Y-302759D01*
X481635Y-302759D01*
X482281Y-302932D01*
X482860Y-303267D01*
X483333Y-303740D01*
X483668Y-304319D01*
X483841Y-304965D01*
X483841Y-325221D01*
X468879Y-325221D01*
G37*
%LPD*%
%LPC*%
G36*
X347879Y-505721D02*
X347879Y-505721D01*
X347879Y-490759D01*
X368135Y-490759D01*
X368781Y-490932D01*
X369360Y-491267D01*
X369833Y-491740D01*
X370168Y-492319D01*
X370341Y-492965D01*
X370341Y-505721D01*
X347879Y-505721D01*
G37*
%LPD*%
%LPC*%
G36*
X445319Y-357668D02*
X445319Y-357668D01*
X444740Y-357333D01*
X444267Y-356860D01*
X443932Y-356281D01*
X443759Y-355635D01*
X443759Y-335379D01*
X458721Y-335379D01*
X458721Y-357841D01*
X445965Y-357841D01*
X445319Y-357668D01*
G37*
%LPD*%
%LPC*%
G36*
X443759Y-325221D02*
X443759Y-325221D01*
X443759Y-304965D01*
X443932Y-304319D01*
X444267Y-303740D01*
X444740Y-303267D01*
X445319Y-302932D01*
X445965Y-302759D01*
X458721Y-302759D01*
X458721Y-325221D01*
X443759Y-325221D01*
G37*
%LPD*%
%LPC*%
G36*
X315259Y-505721D02*
X315259Y-505721D01*
X315259Y-492965D01*
X315432Y-492319D01*
X315767Y-491740D01*
X316240Y-491267D01*
X316819Y-490932D01*
X317465Y-490759D01*
X337721Y-490759D01*
X337721Y-505721D01*
X315259Y-505721D01*
G37*
%LPD*%
%LPC*%
G36*
X249897Y-175007D02*
X249897Y-175007D01*
X244093Y-169203D01*
X244093Y-160997D01*
X249897Y-155193D01*
X258103Y-155193D01*
X263907Y-160997D01*
X263907Y-169203D01*
X258103Y-175007D01*
X249897Y-175007D01*
G37*
%LPD*%
%LPC*%
G36*
X440397Y-175007D02*
X440397Y-175007D01*
X434593Y-169203D01*
X434593Y-160997D01*
X440397Y-155193D01*
X448603Y-155193D01*
X454407Y-160997D01*
X454407Y-169203D01*
X448603Y-175007D01*
X440397Y-175007D01*
G37*
%LPD*%
%LPC*%
G36*
X364197Y-136907D02*
X364197Y-136907D01*
X358393Y-131103D01*
X358393Y-122897D01*
X364197Y-117093D01*
X372403Y-117093D01*
X378207Y-122897D01*
X378207Y-131103D01*
X372403Y-136907D01*
X364197Y-136907D01*
G37*
%LPD*%
%LPC*%
G36*
X367244Y-284707D02*
X367244Y-284707D01*
X365294Y-283899D01*
X363801Y-282406D01*
X362993Y-280456D01*
X362993Y-278344D01*
X363801Y-276394D01*
X365294Y-274901D01*
X367244Y-274093D01*
X369356Y-274093D01*
X371543Y-274999D01*
X371623Y-275050D01*
X371680Y-275074D01*
X371733Y-275104D01*
X371888Y-275159D01*
X372040Y-275221D01*
X372099Y-275234D01*
X372157Y-275255D01*
X372319Y-275281D01*
X372480Y-275316D01*
X372557Y-275321D01*
X372601Y-275328D01*
X372662Y-275327D01*
X372792Y-275335D01*
X389208Y-275335D01*
X389372Y-275321D01*
X389536Y-275314D01*
X389596Y-275301D01*
X389657Y-275295D01*
X389815Y-275252D01*
X389976Y-275216D01*
X390032Y-275193D01*
X390091Y-275177D01*
X390239Y-275106D01*
X390391Y-275043D01*
X390443Y-275010D01*
X390498Y-274983D01*
X390501Y-274981D01*
X392644Y-274093D01*
X394756Y-274093D01*
X396706Y-274901D01*
X398199Y-276394D01*
X399007Y-278344D01*
X399007Y-280456D01*
X398199Y-282406D01*
X396706Y-283899D01*
X394756Y-284707D01*
X392644Y-284707D01*
X390457Y-283801D01*
X390377Y-283750D01*
X390320Y-283726D01*
X390267Y-283696D01*
X390112Y-283641D01*
X389960Y-283579D01*
X389901Y-283566D01*
X389843Y-283545D01*
X389681Y-283519D01*
X389520Y-283484D01*
X389443Y-283479D01*
X389399Y-283472D01*
X389338Y-283473D01*
X389208Y-283465D01*
X372792Y-283465D01*
X372628Y-283479D01*
X372464Y-283486D01*
X372404Y-283499D01*
X372343Y-283505D01*
X372185Y-283548D01*
X372024Y-283584D01*
X371968Y-283607D01*
X371909Y-283623D01*
X371761Y-283694D01*
X371609Y-283757D01*
X371557Y-283790D01*
X371502Y-283817D01*
X371499Y-283819D01*
X369356Y-284707D01*
X367244Y-284707D01*
G37*
%LPD*%
%LPC*%
G36*
X390333Y-46229D02*
X390333Y-46229D01*
X385571Y-41467D01*
X385571Y-34733D01*
X390333Y-29971D01*
X397067Y-29971D01*
X401829Y-34733D01*
X401829Y-41467D01*
X397067Y-46229D01*
X390333Y-46229D01*
G37*
%LPD*%
%LPC*%
G36*
X336549Y-220979D02*
X336549Y-220979D01*
X344171Y-220979D01*
X344171Y-226860D01*
X343921Y-228439D01*
X343426Y-229960D01*
X342700Y-231385D01*
X341760Y-232679D01*
X340629Y-233810D01*
X339335Y-234750D01*
X337910Y-235476D01*
X336549Y-235919D01*
X336549Y-220979D01*
G37*
%LPD*%
%LPC*%
G36*
X336549Y-215901D02*
X336549Y-215901D01*
X336549Y-200961D01*
X337910Y-201404D01*
X339335Y-202130D01*
X340629Y-203070D01*
X341760Y-204201D01*
X342700Y-205495D01*
X343426Y-206920D01*
X343921Y-208441D01*
X344171Y-210020D01*
X344171Y-215901D01*
X336549Y-215901D01*
G37*
%LPD*%
%LPC*%
G36*
X330110Y-235476D02*
X330110Y-235476D01*
X328685Y-234750D01*
X327391Y-233810D01*
X326260Y-232679D01*
X325320Y-231385D01*
X324594Y-229960D01*
X324099Y-228439D01*
X323849Y-226860D01*
X323849Y-220979D01*
X331471Y-220979D01*
X331471Y-235919D01*
X330110Y-235476D01*
G37*
%LPD*%
%LPC*%
G36*
X323849Y-215901D02*
X323849Y-215901D01*
X323849Y-210020D01*
X324099Y-208441D01*
X324594Y-206920D01*
X325320Y-205495D01*
X326260Y-204201D01*
X327391Y-203070D01*
X328685Y-202130D01*
X330110Y-201404D01*
X331471Y-200961D01*
X331471Y-215901D01*
X323849Y-215901D01*
G37*
%LPD*%
%LPC*%
G36*
X465327Y-25145D02*
X465327Y-25145D01*
X474473Y-25145D01*
X474433Y-25402D01*
X473852Y-27189D01*
X472999Y-28863D01*
X471894Y-30384D01*
X470566Y-31712D01*
X469045Y-32817D01*
X467371Y-33670D01*
X465584Y-34251D01*
X465327Y-34291D01*
X465327Y-25145D01*
G37*
%LPD*%
%LPC*%
G36*
X465327Y-20067D02*
X465327Y-20067D01*
X465327Y-10921D01*
X465584Y-10961D01*
X467371Y-11542D01*
X469045Y-12395D01*
X470566Y-13500D01*
X471894Y-14828D01*
X472999Y-16349D01*
X473852Y-18023D01*
X474433Y-19810D01*
X474473Y-20067D01*
X465327Y-20067D01*
G37*
%LPD*%
%LPC*%
G36*
X459992Y-34251D02*
X459992Y-34251D01*
X458205Y-33670D01*
X456531Y-32817D01*
X455010Y-31712D01*
X453682Y-30384D01*
X452577Y-28863D01*
X451724Y-27189D01*
X451143Y-25402D01*
X451103Y-25145D01*
X460249Y-25145D01*
X460249Y-34291D01*
X459992Y-34251D01*
G37*
%LPD*%
%LPC*%
G36*
X451103Y-20067D02*
X451103Y-20067D01*
X451143Y-19810D01*
X451724Y-18023D01*
X452577Y-16349D01*
X453682Y-14828D01*
X455010Y-13500D01*
X456531Y-12395D01*
X458205Y-11542D01*
X459992Y-10961D01*
X460249Y-10921D01*
X460249Y-20067D01*
X451103Y-20067D01*
G37*
%LPD*%
%LPC*%
G36*
X599439Y-193039D02*
X599439Y-193039D01*
X608071Y-193039D01*
X608049Y-193177D01*
X607493Y-194888D01*
X606676Y-196491D01*
X605619Y-197947D01*
X604347Y-199219D01*
X602891Y-200276D01*
X601288Y-201093D01*
X599577Y-201649D01*
X599439Y-201671D01*
X599439Y-193039D01*
G37*
%LPD*%
%LPC*%
G36*
X599439Y-187961D02*
X599439Y-187961D01*
X599439Y-179329D01*
X599577Y-179351D01*
X601288Y-179907D01*
X602891Y-180724D01*
X604347Y-181781D01*
X605619Y-183053D01*
X606676Y-184509D01*
X607493Y-186112D01*
X608049Y-187823D01*
X608071Y-187961D01*
X599439Y-187961D01*
G37*
%LPD*%
%LPC*%
G36*
X307339Y-99823D02*
X307339Y-99823D01*
X307339Y-91439D01*
X315723Y-91439D01*
X315723Y-93424D01*
X309324Y-99823D01*
X307339Y-99823D01*
G37*
%LPD*%
%LPC*%
G36*
X421639Y-99823D02*
X421639Y-99823D01*
X421639Y-91439D01*
X430023Y-91439D01*
X430023Y-93424D01*
X423624Y-99823D01*
X421639Y-99823D01*
G37*
%LPD*%
%LPC*%
G36*
X307339Y-86361D02*
X307339Y-86361D01*
X307339Y-77977D01*
X309324Y-77977D01*
X315723Y-84376D01*
X315723Y-86361D01*
X307339Y-86361D01*
G37*
%LPD*%
%LPC*%
G36*
X421639Y-86361D02*
X421639Y-86361D01*
X421639Y-77977D01*
X423624Y-77977D01*
X430023Y-84376D01*
X430023Y-86361D01*
X421639Y-86361D01*
G37*
%LPD*%
%LPC*%
G36*
X396239Y-21845D02*
X396239Y-21845D01*
X396239Y-15239D01*
X402845Y-15239D01*
X402845Y-16488D01*
X397488Y-21845D01*
X396239Y-21845D01*
G37*
%LPD*%
%LPC*%
G36*
X389912Y-21845D02*
X389912Y-21845D01*
X384555Y-16488D01*
X384555Y-15239D01*
X391161Y-15239D01*
X391161Y-21845D01*
X389912Y-21845D01*
G37*
%LPD*%
%LPC*%
G36*
X396239Y-10161D02*
X396239Y-10161D01*
X396239Y-3555D01*
X397488Y-3555D01*
X402845Y-8912D01*
X402845Y-10161D01*
X396239Y-10161D01*
G37*
%LPD*%
%LPC*%
G36*
X384555Y-10161D02*
X384555Y-10161D01*
X384555Y-8912D01*
X389912Y-3555D01*
X391161Y-3555D01*
X391161Y-10161D01*
X384555Y-10161D01*
G37*
%LPD*%
%LPC*%
G36*
X342799Y-510801D02*
X342799Y-510801D01*
X342799Y-510799D01*
X342801Y-510799D01*
X342801Y-510801D01*
X342799Y-510801D01*
G37*
%LPD*%
%LPC*%
G36*
X463799Y-330301D02*
X463799Y-330301D01*
X463799Y-330299D01*
X463801Y-330299D01*
X463801Y-330301D01*
X463799Y-330301D01*
G37*
%LPD*%
D10*
X342800Y-462800D03*
X342800Y-414800D03*
X342800Y-510800D03*
X342800Y-366800D03*
X520800Y-366800D03*
X520800Y-414800D03*
X520800Y-462800D03*
X520800Y-510800D03*
D11*
X399800Y-330300D03*
X463800Y-330300D03*
D12*
X396800Y-384300D03*
X466800Y-384300D03*
X396800Y-439300D03*
X466800Y-439300D03*
D13*
X520700Y-190500D03*
X546100Y-190500D03*
X571500Y-190500D03*
X596900Y-190500D03*
D14*
X308610Y-210820D02*
X308610Y-226060D01*
X334010Y-226060D02*
X334010Y-210820D01*
X359410Y-210820D02*
X359410Y-226060D01*
X384810Y-226060D02*
X384810Y-210820D01*
X410210Y-210820D02*
X410210Y-226060D01*
D15*
X462788Y22606D03*
X527812Y22606D03*
X462788Y-22606D03*
X527812Y-22606D03*
D16*
X393700Y-12700D03*
X374650Y-25400D03*
X393700Y-38100D03*
D17*
X254000Y-127000D03*
X330200Y-127000D03*
X368300Y-165100D03*
X444500Y-165100D03*
X279400Y-88900D03*
X304800Y-88900D03*
X254000Y-165100D03*
X330200Y-165100D03*
X393700Y-88900D03*
X419100Y-88900D03*
X368300Y-127000D03*
X444500Y-127000D03*
D15*
X596900Y-368300D03*
X596900Y-393700D03*
X596900Y-419100D03*
X596900Y-444500D03*
D18*
X534200Y-139330D03*
X520700Y-125730D03*
D19*
X520800Y-510800D02*
X447300Y-510800D01*
X431800Y-495300D01*
X431800Y-362300D02*
X399800Y-330300D01*
X431800Y-362300D02*
X431800Y-495300D01*
X399800Y-330300D02*
X399800Y-298700D01*
X419100Y-279400D01*
X533400Y-279400D02*
X571500Y-241300D01*
X571500Y-190500D01*
X533400Y-279400D02*
X419100Y-279400D01*
X399700Y-330200D02*
X399800Y-330300D01*
X399700Y-330200D02*
X355600Y-330200D01*
X308610Y-283210D01*
X308610Y-218440D01*
X308610Y-199390D01*
X317500Y-190500D01*
X355600Y-190500D01*
X368300Y-177800D01*
X368300Y-165100D01*
X254000Y-127000D02*
X254000Y-76200D01*
X304800Y-25400D01*
X374650Y-25400D01*
D20*
X292100Y-368300D03*
D19*
X293600Y-366800D01*
X342800Y-366800D01*
X349250Y-146050D02*
X330200Y-127000D01*
X495300Y-254000D02*
X508000Y-254000D01*
D20*
X508000Y-254000D03*
X571500Y-342900D03*
D19*
X571500Y-393700D01*
X546100Y-419100D01*
X525100Y-419100D01*
X387350Y-146050D02*
X349250Y-146050D01*
X387350Y-146050D02*
X495300Y-254000D01*
X520800Y-414800D02*
X525100Y-419100D01*
D20*
X520700Y-342900D03*
D19*
X520800Y-343000D01*
X520800Y-366800D01*
D20*
X457200Y-406400D03*
D19*
X469900Y-393700D01*
X469900Y-387400D01*
X466800Y-384300D01*
X279400Y-114300D02*
X279400Y-88900D01*
X279400Y-114300D02*
X330200Y-165100D01*
D20*
X469900Y-469900D03*
D19*
X466800Y-466800D01*
X466800Y-439300D01*
D20*
X292100Y-406400D03*
D19*
X334400Y-406400D01*
X342800Y-414800D01*
D20*
X368300Y-279400D03*
D19*
X393700Y-279400D01*
D20*
X393700Y-279400D03*
X419100Y-444500D03*
D19*
X402000Y-444500D01*
X396800Y-439300D01*
X396290Y-384810D02*
X396800Y-384300D01*
X396290Y-384810D02*
X375920Y-384810D01*
D20*
X375920Y-384810D03*
M02*
