G04 EAGLE Gerber RS-274X export*
G75*
%MOMM*%
%FSLAX34Y34*%
%LPD*%
%IN*%
%IPPOS*%
%AMOC8*
5,1,8,0,0,1.08239X$1,22.5*%
G01*
%ADD10C,0.254000*%


D10*
X203200Y-469900D02*
X203587Y-478755D01*
X204744Y-487543D01*
X206662Y-496196D01*
X209327Y-504649D01*
X212719Y-512838D01*
X216812Y-520700D01*
X221574Y-528175D01*
X226970Y-535207D01*
X232958Y-541742D01*
X239493Y-547730D01*
X246525Y-553126D01*
X254000Y-557888D01*
X261862Y-561981D01*
X270051Y-565373D01*
X278504Y-568038D01*
X287157Y-569956D01*
X295945Y-571113D01*
X304800Y-571500D01*
X558800Y-571500D01*
X566548Y-571162D01*
X574237Y-570149D01*
X581809Y-568471D01*
X589206Y-566139D01*
X596371Y-563171D01*
X603250Y-559590D01*
X609791Y-555423D01*
X615944Y-550701D01*
X621662Y-545462D01*
X626901Y-539744D01*
X631623Y-533591D01*
X635790Y-527050D01*
X639371Y-520171D01*
X642339Y-513006D01*
X644671Y-505609D01*
X646349Y-498037D01*
X647362Y-490348D01*
X647700Y-482600D01*
X647700Y-38100D01*
X647362Y-30352D01*
X646349Y-22663D01*
X644671Y-15091D01*
X642339Y-7694D01*
X639371Y-529D01*
X635790Y6350D01*
X631623Y12891D01*
X626901Y19044D01*
X621662Y24762D01*
X615944Y30001D01*
X609791Y34723D01*
X603250Y38890D01*
X596371Y42471D01*
X589206Y45439D01*
X581809Y47771D01*
X574237Y49449D01*
X566548Y50462D01*
X558800Y50800D01*
X304800Y50800D01*
X295945Y50413D01*
X287157Y49256D01*
X278504Y47338D01*
X270051Y44673D01*
X261862Y41281D01*
X254000Y37188D01*
X246525Y32426D01*
X239493Y27030D01*
X232958Y21042D01*
X226970Y14507D01*
X221574Y7475D01*
X216812Y0D01*
X212719Y-7862D01*
X209327Y-16051D01*
X206662Y-24504D01*
X204744Y-33157D01*
X203587Y-41945D01*
X203200Y-50800D01*
X203200Y-469900D01*
X285262Y-14656D02*
X285262Y-13284D01*
X285190Y-11915D01*
X285047Y-10551D01*
X284832Y-9197D01*
X284547Y-7856D01*
X284192Y-6531D01*
X283768Y-5227D01*
X283277Y-3947D01*
X282719Y-2695D01*
X282097Y-1473D01*
X281411Y-285D01*
X280664Y865D01*
X279858Y1974D01*
X278996Y3040D01*
X278078Y4058D01*
X277108Y5028D01*
X276090Y5946D01*
X275024Y6808D01*
X273915Y7614D01*
X272765Y8361D01*
X271577Y9047D01*
X270355Y9669D01*
X269103Y10227D01*
X267823Y10718D01*
X266519Y11142D01*
X265194Y11497D01*
X263853Y11782D01*
X262499Y11997D01*
X261135Y12140D01*
X259766Y12212D01*
X258394Y12212D01*
X257025Y12140D01*
X255661Y11997D01*
X254307Y11782D01*
X252966Y11497D01*
X251641Y11142D01*
X250337Y10718D01*
X249057Y10227D01*
X247805Y9669D01*
X246583Y9047D01*
X245395Y8361D01*
X244245Y7614D01*
X243136Y6808D01*
X242071Y5946D01*
X241052Y5028D01*
X240082Y4058D01*
X239164Y3040D01*
X238302Y1974D01*
X237496Y865D01*
X236749Y-285D01*
X236063Y-1473D01*
X235441Y-2695D01*
X234883Y-3947D01*
X234392Y-5227D01*
X233968Y-6531D01*
X233613Y-7856D01*
X233328Y-9197D01*
X233113Y-10551D01*
X232970Y-11915D01*
X232898Y-13284D01*
X232898Y-14656D01*
X232970Y-16025D01*
X233113Y-17389D01*
X233328Y-18743D01*
X233613Y-20084D01*
X233968Y-21409D01*
X234392Y-22713D01*
X234883Y-23993D01*
X235441Y-25245D01*
X236063Y-26467D01*
X236749Y-27655D01*
X237496Y-28805D01*
X238302Y-29914D01*
X239164Y-30980D01*
X240082Y-31998D01*
X241052Y-32968D01*
X242071Y-33886D01*
X243136Y-34748D01*
X244245Y-35554D01*
X245395Y-36301D01*
X246583Y-36987D01*
X247805Y-37609D01*
X249057Y-38167D01*
X250337Y-38658D01*
X251641Y-39082D01*
X252966Y-39437D01*
X254307Y-39722D01*
X255661Y-39937D01*
X257025Y-40080D01*
X258394Y-40152D01*
X259766Y-40152D01*
X261135Y-40080D01*
X262499Y-39937D01*
X263853Y-39722D01*
X265194Y-39437D01*
X266519Y-39082D01*
X267823Y-38658D01*
X269103Y-38167D01*
X270355Y-37609D01*
X271577Y-36987D01*
X272765Y-36301D01*
X273915Y-35554D01*
X275024Y-34748D01*
X276090Y-33886D01*
X277108Y-32968D01*
X278078Y-31998D01*
X278996Y-30980D01*
X279858Y-29914D01*
X280664Y-28805D01*
X281411Y-27655D01*
X282097Y-26467D01*
X282719Y-25245D01*
X283277Y-23993D01*
X283768Y-22713D01*
X284192Y-21409D01*
X284547Y-20084D01*
X284832Y-18743D01*
X285047Y-17389D01*
X285190Y-16025D01*
X285262Y-14656D01*
X618002Y-14656D02*
X618002Y-13284D01*
X617930Y-11915D01*
X617787Y-10551D01*
X617572Y-9197D01*
X617287Y-7856D01*
X616932Y-6531D01*
X616508Y-5227D01*
X616017Y-3947D01*
X615459Y-2695D01*
X614837Y-1473D01*
X614151Y-285D01*
X613404Y865D01*
X612598Y1974D01*
X611736Y3040D01*
X610818Y4058D01*
X609848Y5028D01*
X608830Y5946D01*
X607764Y6808D01*
X606655Y7614D01*
X605505Y8361D01*
X604317Y9047D01*
X603095Y9669D01*
X601843Y10227D01*
X600563Y10718D01*
X599259Y11142D01*
X597934Y11497D01*
X596593Y11782D01*
X595239Y11997D01*
X593875Y12140D01*
X592506Y12212D01*
X591134Y12212D01*
X589765Y12140D01*
X588401Y11997D01*
X587047Y11782D01*
X585706Y11497D01*
X584381Y11142D01*
X583077Y10718D01*
X581797Y10227D01*
X580545Y9669D01*
X579323Y9047D01*
X578135Y8361D01*
X576985Y7614D01*
X575876Y6808D01*
X574811Y5946D01*
X573792Y5028D01*
X572822Y4058D01*
X571904Y3040D01*
X571042Y1974D01*
X570236Y865D01*
X569489Y-285D01*
X568803Y-1473D01*
X568181Y-2695D01*
X567623Y-3947D01*
X567132Y-5227D01*
X566708Y-6531D01*
X566353Y-7856D01*
X566068Y-9197D01*
X565853Y-10551D01*
X565710Y-11915D01*
X565638Y-13284D01*
X565638Y-14656D01*
X565710Y-16025D01*
X565853Y-17389D01*
X566068Y-18743D01*
X566353Y-20084D01*
X566708Y-21409D01*
X567132Y-22713D01*
X567623Y-23993D01*
X568181Y-25245D01*
X568803Y-26467D01*
X569489Y-27655D01*
X570236Y-28805D01*
X571042Y-29914D01*
X571904Y-30980D01*
X572822Y-31998D01*
X573792Y-32968D01*
X574811Y-33886D01*
X575876Y-34748D01*
X576985Y-35554D01*
X578135Y-36301D01*
X579323Y-36987D01*
X580545Y-37609D01*
X581797Y-38167D01*
X583077Y-38658D01*
X584381Y-39082D01*
X585706Y-39437D01*
X587047Y-39722D01*
X588401Y-39937D01*
X589765Y-40080D01*
X591134Y-40152D01*
X592506Y-40152D01*
X593875Y-40080D01*
X595239Y-39937D01*
X596593Y-39722D01*
X597934Y-39437D01*
X599259Y-39082D01*
X600563Y-38658D01*
X601843Y-38167D01*
X603095Y-37609D01*
X604317Y-36987D01*
X605505Y-36301D01*
X606655Y-35554D01*
X607764Y-34748D01*
X608830Y-33886D01*
X609848Y-32968D01*
X610818Y-31998D01*
X611736Y-30980D01*
X612598Y-29914D01*
X613404Y-28805D01*
X614151Y-27655D01*
X614837Y-26467D01*
X615459Y-25245D01*
X616017Y-23993D01*
X616508Y-22713D01*
X616932Y-21409D01*
X617287Y-20084D01*
X617572Y-18743D01*
X617787Y-17389D01*
X617930Y-16025D01*
X618002Y-14656D01*
X287802Y-507416D02*
X287802Y-506044D01*
X287730Y-504675D01*
X287587Y-503311D01*
X287372Y-501957D01*
X287087Y-500616D01*
X286732Y-499291D01*
X286308Y-497987D01*
X285817Y-496707D01*
X285259Y-495455D01*
X284637Y-494233D01*
X283951Y-493045D01*
X283204Y-491895D01*
X282398Y-490786D01*
X281536Y-489721D01*
X280618Y-488702D01*
X279648Y-487732D01*
X278630Y-486814D01*
X277564Y-485952D01*
X276455Y-485146D01*
X275305Y-484399D01*
X274117Y-483713D01*
X272895Y-483091D01*
X271643Y-482533D01*
X270363Y-482042D01*
X269059Y-481618D01*
X267734Y-481263D01*
X266393Y-480978D01*
X265039Y-480763D01*
X263675Y-480620D01*
X262306Y-480548D01*
X260934Y-480548D01*
X259565Y-480620D01*
X258201Y-480763D01*
X256847Y-480978D01*
X255506Y-481263D01*
X254181Y-481618D01*
X252877Y-482042D01*
X251597Y-482533D01*
X250345Y-483091D01*
X249123Y-483713D01*
X247935Y-484399D01*
X246785Y-485146D01*
X245676Y-485952D01*
X244611Y-486814D01*
X243592Y-487732D01*
X242622Y-488702D01*
X241704Y-489721D01*
X240842Y-490786D01*
X240036Y-491895D01*
X239289Y-493045D01*
X238603Y-494233D01*
X237981Y-495455D01*
X237423Y-496707D01*
X236932Y-497987D01*
X236508Y-499291D01*
X236153Y-500616D01*
X235868Y-501957D01*
X235653Y-503311D01*
X235510Y-504675D01*
X235438Y-506044D01*
X235438Y-507416D01*
X235510Y-508785D01*
X235653Y-510149D01*
X235868Y-511503D01*
X236153Y-512844D01*
X236508Y-514169D01*
X236932Y-515473D01*
X237423Y-516753D01*
X237981Y-518005D01*
X238603Y-519227D01*
X239289Y-520415D01*
X240036Y-521565D01*
X240842Y-522674D01*
X241704Y-523740D01*
X242622Y-524758D01*
X243592Y-525728D01*
X244611Y-526646D01*
X245676Y-527508D01*
X246785Y-528314D01*
X247935Y-529061D01*
X249123Y-529747D01*
X250345Y-530369D01*
X251597Y-530927D01*
X252877Y-531418D01*
X254181Y-531842D01*
X255506Y-532197D01*
X256847Y-532482D01*
X258201Y-532697D01*
X259565Y-532840D01*
X260934Y-532912D01*
X262306Y-532912D01*
X263675Y-532840D01*
X265039Y-532697D01*
X266393Y-532482D01*
X267734Y-532197D01*
X269059Y-531842D01*
X270363Y-531418D01*
X271643Y-530927D01*
X272895Y-530369D01*
X274117Y-529747D01*
X275305Y-529061D01*
X276455Y-528314D01*
X277564Y-527508D01*
X278630Y-526646D01*
X279648Y-525728D01*
X280618Y-524758D01*
X281536Y-523740D01*
X282398Y-522674D01*
X283204Y-521565D01*
X283951Y-520415D01*
X284637Y-519227D01*
X285259Y-518005D01*
X285817Y-516753D01*
X286308Y-515473D01*
X286732Y-514169D01*
X287087Y-512844D01*
X287372Y-511503D01*
X287587Y-510149D01*
X287730Y-508785D01*
X287802Y-507416D01*
X618002Y-508686D02*
X618002Y-507314D01*
X617930Y-505945D01*
X617787Y-504581D01*
X617572Y-503227D01*
X617287Y-501886D01*
X616932Y-500561D01*
X616508Y-499257D01*
X616017Y-497977D01*
X615459Y-496725D01*
X614837Y-495503D01*
X614151Y-494315D01*
X613404Y-493165D01*
X612598Y-492056D01*
X611736Y-490991D01*
X610818Y-489972D01*
X609848Y-489002D01*
X608830Y-488084D01*
X607764Y-487222D01*
X606655Y-486416D01*
X605505Y-485669D01*
X604317Y-484983D01*
X603095Y-484361D01*
X601843Y-483803D01*
X600563Y-483312D01*
X599259Y-482888D01*
X597934Y-482533D01*
X596593Y-482248D01*
X595239Y-482033D01*
X593875Y-481890D01*
X592506Y-481818D01*
X591134Y-481818D01*
X589765Y-481890D01*
X588401Y-482033D01*
X587047Y-482248D01*
X585706Y-482533D01*
X584381Y-482888D01*
X583077Y-483312D01*
X581797Y-483803D01*
X580545Y-484361D01*
X579323Y-484983D01*
X578135Y-485669D01*
X576985Y-486416D01*
X575876Y-487222D01*
X574811Y-488084D01*
X573792Y-489002D01*
X572822Y-489972D01*
X571904Y-490991D01*
X571042Y-492056D01*
X570236Y-493165D01*
X569489Y-494315D01*
X568803Y-495503D01*
X568181Y-496725D01*
X567623Y-497977D01*
X567132Y-499257D01*
X566708Y-500561D01*
X566353Y-501886D01*
X566068Y-503227D01*
X565853Y-504581D01*
X565710Y-505945D01*
X565638Y-507314D01*
X565638Y-508686D01*
X565710Y-510055D01*
X565853Y-511419D01*
X566068Y-512773D01*
X566353Y-514114D01*
X566708Y-515439D01*
X567132Y-516743D01*
X567623Y-518023D01*
X568181Y-519275D01*
X568803Y-520497D01*
X569489Y-521685D01*
X570236Y-522835D01*
X571042Y-523944D01*
X571904Y-525010D01*
X572822Y-526028D01*
X573792Y-526998D01*
X574811Y-527916D01*
X575876Y-528778D01*
X576985Y-529584D01*
X578135Y-530331D01*
X579323Y-531017D01*
X580545Y-531639D01*
X581797Y-532197D01*
X583077Y-532688D01*
X584381Y-533112D01*
X585706Y-533467D01*
X587047Y-533752D01*
X588401Y-533967D01*
X589765Y-534110D01*
X591134Y-534182D01*
X592506Y-534182D01*
X593875Y-534110D01*
X595239Y-533967D01*
X596593Y-533752D01*
X597934Y-533467D01*
X599259Y-533112D01*
X600563Y-532688D01*
X601843Y-532197D01*
X603095Y-531639D01*
X604317Y-531017D01*
X605505Y-530331D01*
X606655Y-529584D01*
X607764Y-528778D01*
X608830Y-527916D01*
X609848Y-526998D01*
X610818Y-526028D01*
X611736Y-525010D01*
X612598Y-523944D01*
X613404Y-522835D01*
X614151Y-521685D01*
X614837Y-520497D01*
X615459Y-519275D01*
X616017Y-518023D01*
X616508Y-516743D01*
X616932Y-515439D01*
X617287Y-514114D01*
X617572Y-512773D01*
X617787Y-511419D01*
X617930Y-510055D01*
X618002Y-508686D01*
X502920Y-99701D02*
X502920Y-98419D01*
X502848Y-97138D01*
X502704Y-95863D01*
X502490Y-94598D01*
X502204Y-93348D01*
X501849Y-92115D01*
X501425Y-90904D01*
X500934Y-89719D01*
X500378Y-88564D01*
X499757Y-87441D01*
X499075Y-86355D01*
X498333Y-85308D01*
X497533Y-84306D01*
X496678Y-83349D01*
X495771Y-82442D01*
X494814Y-81587D01*
X493812Y-80787D01*
X492765Y-80045D01*
X491679Y-79363D01*
X490556Y-78742D01*
X489401Y-78186D01*
X488216Y-77695D01*
X487005Y-77271D01*
X485772Y-76916D01*
X484522Y-76630D01*
X483257Y-76416D01*
X481982Y-76272D01*
X480701Y-76200D01*
X479419Y-76200D01*
X478138Y-76272D01*
X476863Y-76416D01*
X475598Y-76630D01*
X474348Y-76916D01*
X473115Y-77271D01*
X471904Y-77695D01*
X470719Y-78186D01*
X469564Y-78742D01*
X468441Y-79363D01*
X467355Y-80045D01*
X466308Y-80787D01*
X465306Y-81587D01*
X464349Y-82442D01*
X463442Y-83349D01*
X462587Y-84306D01*
X461787Y-85308D01*
X461045Y-86355D01*
X460363Y-87441D01*
X459742Y-88564D01*
X459186Y-89719D01*
X458695Y-90904D01*
X458271Y-92115D01*
X457916Y-93348D01*
X457630Y-94598D01*
X457416Y-95863D01*
X457272Y-97138D01*
X457200Y-98419D01*
X457200Y-99701D01*
X457272Y-100982D01*
X457416Y-102257D01*
X457630Y-103522D01*
X457916Y-104772D01*
X458271Y-106005D01*
X458695Y-107216D01*
X459186Y-108401D01*
X459742Y-109556D01*
X460363Y-110679D01*
X461045Y-111765D01*
X461787Y-112812D01*
X462587Y-113814D01*
X463442Y-114771D01*
X464349Y-115678D01*
X465306Y-116533D01*
X466308Y-117333D01*
X467355Y-118075D01*
X468441Y-118757D01*
X469564Y-119378D01*
X470719Y-119934D01*
X471904Y-120425D01*
X473115Y-120849D01*
X474348Y-121204D01*
X475598Y-121490D01*
X476863Y-121704D01*
X478138Y-121848D01*
X479419Y-121920D01*
X480701Y-121920D01*
X481982Y-121848D01*
X483257Y-121704D01*
X484522Y-121490D01*
X485772Y-121204D01*
X487005Y-120849D01*
X488216Y-120425D01*
X489401Y-119934D01*
X490556Y-119378D01*
X491679Y-118757D01*
X492765Y-118075D01*
X493812Y-117333D01*
X494814Y-116533D01*
X495771Y-115678D01*
X496678Y-114771D01*
X497533Y-113814D01*
X498333Y-112812D01*
X499075Y-111765D01*
X499757Y-110679D01*
X500378Y-109556D01*
X500934Y-108401D01*
X501425Y-107216D01*
X501849Y-106005D01*
X502204Y-104772D01*
X502490Y-103522D01*
X502704Y-102257D01*
X502848Y-100982D01*
X502920Y-99701D01*
M02*
