G04 EAGLE Gerber RS-274X export*
G75*
%MOMM*%
%FSLAX34Y34*%
%LPD*%
%INSilkscreen Bottom*%
%IPPOS*%
%AMOC8*
5,1,8,0,0,1.08239X$1,22.5*%
G01*
%ADD10R,0.025400X0.584200*%
%ADD11C,0.381000*%
%ADD12R,0.019050X1.447800*%
%ADD13R,0.019050X0.076200*%
%ADD14R,0.019050X0.095250*%
%ADD15R,0.019050X0.057150*%
%ADD16R,0.019050X0.285750*%
%ADD17R,0.019050X0.019050*%
%ADD18R,0.019050X1.352550*%
%ADD19R,0.019050X0.038100*%
%ADD20R,0.019050X1.466850*%
%ADD21R,0.019050X1.085850*%
%ADD22R,0.019050X0.133350*%
%ADD23R,0.019050X1.390650*%
%ADD24R,0.019050X0.114300*%
%ADD25R,0.019050X0.209550*%
%ADD26R,0.019050X0.190500*%
%ADD27R,0.019050X0.152400*%
%ADD28R,0.019050X0.266700*%
%ADD29R,0.019050X0.247650*%
%ADD30R,0.019050X0.171450*%
%ADD31R,0.019050X1.847850*%
%ADD32R,0.019050X0.800100*%
%ADD33R,0.019050X0.685800*%
%ADD34R,0.019050X3.733800*%
%ADD35R,0.019050X0.628650*%
%ADD36R,0.019050X1.238250*%
%ADD37R,0.019050X1.200150*%
%ADD38R,0.019050X0.323850*%
%ADD39R,0.019050X0.228600*%
%ADD40R,0.019050X0.361950*%
%ADD41R,0.019050X0.381000*%
%ADD42R,0.019050X0.457200*%
%ADD43R,0.019050X0.552450*%
%ADD44R,0.019050X0.495300*%
%ADD45R,0.019050X1.257300*%
%ADD46R,0.019050X0.857250*%
%ADD47R,0.019050X2.971800*%
%ADD48R,0.019050X0.342900*%
%ADD49R,0.019050X0.838200*%
%ADD50R,0.019050X3.238500*%
%ADD51R,0.019050X0.476250*%
%ADD52R,0.019050X0.304800*%
%ADD53R,0.019050X1.524000*%
%ADD54R,0.019050X1.295400*%
%ADD55R,0.019050X3.771900*%
%ADD56R,0.019050X1.123950*%
%ADD57R,0.019050X1.104900*%
%ADD58R,0.019050X0.438150*%
%ADD59R,0.019050X0.571500*%
%ADD60R,0.019050X1.219200*%
%ADD61R,0.019050X0.609600*%
%ADD62R,0.019050X1.314450*%
%ADD63R,0.019050X1.181100*%
%ADD64R,0.019050X0.723900*%
%ADD65R,0.019050X0.514350*%
%ADD66R,0.019050X0.666750*%
%ADD67R,0.019050X0.419100*%
%ADD68R,0.019050X0.400050*%
%ADD69R,0.019050X2.381250*%
%ADD70R,0.019050X4.210050*%
%ADD71R,0.019050X3.276600*%
%ADD72R,0.019050X3.752850*%
%ADD73R,0.019050X1.600200*%
%ADD74R,0.019050X1.962150*%
%ADD75R,0.019050X3.790950*%
%ADD76C,0.203200*%
%ADD77C,0.127000*%
%ADD78C,0.101600*%


D10*
X227838Y-412496D03*
D11*
X262177Y-442412D02*
X262177Y-447421D01*
X262177Y-442412D02*
X262175Y-442272D01*
X262169Y-442131D01*
X262159Y-441991D01*
X262146Y-441851D01*
X262128Y-441712D01*
X262106Y-441573D01*
X262081Y-441435D01*
X262051Y-441297D01*
X262018Y-441161D01*
X261981Y-441025D01*
X261940Y-440891D01*
X261896Y-440758D01*
X261848Y-440626D01*
X261796Y-440495D01*
X261740Y-440366D01*
X261681Y-440239D01*
X261618Y-440113D01*
X261552Y-439989D01*
X261482Y-439867D01*
X261409Y-439747D01*
X261333Y-439629D01*
X261253Y-439513D01*
X261170Y-439400D01*
X261084Y-439289D01*
X260995Y-439180D01*
X260903Y-439074D01*
X260808Y-438971D01*
X260710Y-438870D01*
X260609Y-438772D01*
X260506Y-438677D01*
X260400Y-438585D01*
X260291Y-438496D01*
X260180Y-438410D01*
X260067Y-438327D01*
X259951Y-438247D01*
X259833Y-438171D01*
X259713Y-438098D01*
X259591Y-438028D01*
X259467Y-437962D01*
X259341Y-437899D01*
X259214Y-437840D01*
X259085Y-437784D01*
X258954Y-437732D01*
X258822Y-437684D01*
X258689Y-437640D01*
X258555Y-437599D01*
X258419Y-437562D01*
X258283Y-437529D01*
X258145Y-437499D01*
X258007Y-437474D01*
X257868Y-437452D01*
X257729Y-437434D01*
X257589Y-437421D01*
X257449Y-437411D01*
X257308Y-437405D01*
X257168Y-437403D01*
X257028Y-437405D01*
X256887Y-437411D01*
X256747Y-437421D01*
X256607Y-437434D01*
X256468Y-437452D01*
X256329Y-437474D01*
X256191Y-437499D01*
X256053Y-437529D01*
X255917Y-437562D01*
X255781Y-437599D01*
X255647Y-437640D01*
X255514Y-437684D01*
X255382Y-437732D01*
X255251Y-437784D01*
X255122Y-437840D01*
X254995Y-437899D01*
X254869Y-437962D01*
X254745Y-438028D01*
X254623Y-438098D01*
X254503Y-438171D01*
X254385Y-438247D01*
X254269Y-438327D01*
X254156Y-438410D01*
X254045Y-438496D01*
X253936Y-438585D01*
X253830Y-438677D01*
X253727Y-438772D01*
X253626Y-438870D01*
X253528Y-438971D01*
X253433Y-439074D01*
X253341Y-439180D01*
X253252Y-439289D01*
X253166Y-439400D01*
X253083Y-439513D01*
X253003Y-439629D01*
X252927Y-439747D01*
X252854Y-439867D01*
X252784Y-439989D01*
X252718Y-440113D01*
X252655Y-440239D01*
X252596Y-440366D01*
X252540Y-440495D01*
X252488Y-440626D01*
X252440Y-440758D01*
X252396Y-440891D01*
X252355Y-441025D01*
X252318Y-441161D01*
X252285Y-441297D01*
X252255Y-441435D01*
X252230Y-441573D01*
X252208Y-441712D01*
X252190Y-441851D01*
X252177Y-441991D01*
X252167Y-442131D01*
X252161Y-442272D01*
X252159Y-442412D01*
X252159Y-447421D01*
X270193Y-447421D01*
X270193Y-442412D01*
X270191Y-442286D01*
X270185Y-442160D01*
X270175Y-442035D01*
X270161Y-441910D01*
X270144Y-441785D01*
X270122Y-441661D01*
X270096Y-441538D01*
X270067Y-441415D01*
X270034Y-441294D01*
X269997Y-441173D01*
X269956Y-441054D01*
X269912Y-440937D01*
X269863Y-440820D01*
X269812Y-440705D01*
X269756Y-440592D01*
X269697Y-440481D01*
X269635Y-440372D01*
X269569Y-440264D01*
X269500Y-440159D01*
X269428Y-440056D01*
X269352Y-439955D01*
X269273Y-439857D01*
X269191Y-439761D01*
X269107Y-439668D01*
X269019Y-439578D01*
X268929Y-439490D01*
X268836Y-439406D01*
X268740Y-439324D01*
X268642Y-439245D01*
X268541Y-439169D01*
X268438Y-439097D01*
X268333Y-439028D01*
X268225Y-438962D01*
X268116Y-438900D01*
X268005Y-438841D01*
X267892Y-438785D01*
X267777Y-438734D01*
X267660Y-438685D01*
X267543Y-438641D01*
X267424Y-438600D01*
X267303Y-438563D01*
X267182Y-438530D01*
X267059Y-438501D01*
X266936Y-438475D01*
X266812Y-438453D01*
X266687Y-438436D01*
X266562Y-438422D01*
X266437Y-438412D01*
X266311Y-438406D01*
X266185Y-438404D01*
X266059Y-438406D01*
X265933Y-438412D01*
X265808Y-438422D01*
X265683Y-438436D01*
X265558Y-438453D01*
X265434Y-438475D01*
X265311Y-438501D01*
X265188Y-438530D01*
X265067Y-438563D01*
X264946Y-438600D01*
X264827Y-438641D01*
X264710Y-438685D01*
X264593Y-438734D01*
X264478Y-438785D01*
X264365Y-438841D01*
X264254Y-438900D01*
X264145Y-438962D01*
X264037Y-439028D01*
X263932Y-439097D01*
X263829Y-439169D01*
X263728Y-439245D01*
X263630Y-439324D01*
X263534Y-439406D01*
X263441Y-439490D01*
X263351Y-439578D01*
X263263Y-439668D01*
X263179Y-439761D01*
X263097Y-439857D01*
X263018Y-439955D01*
X262942Y-440056D01*
X262870Y-440159D01*
X262801Y-440264D01*
X262735Y-440372D01*
X262673Y-440481D01*
X262614Y-440592D01*
X262558Y-440705D01*
X262507Y-440820D01*
X262458Y-440937D01*
X262414Y-441054D01*
X262373Y-441173D01*
X262336Y-441294D01*
X262303Y-441415D01*
X262274Y-441538D01*
X262248Y-441661D01*
X262226Y-441785D01*
X262209Y-441910D01*
X262195Y-442035D01*
X262185Y-442160D01*
X262179Y-442286D01*
X262177Y-442412D01*
X252159Y-429189D02*
X252159Y-421174D01*
X252159Y-429189D02*
X270193Y-429189D01*
X270193Y-421174D01*
X262177Y-423178D02*
X262177Y-429189D01*
X270193Y-414798D02*
X261676Y-408787D01*
X270193Y-402775D01*
X261676Y-408787D02*
X252159Y-408787D01*
X257168Y-395258D02*
X265183Y-395258D01*
X265183Y-395257D02*
X265323Y-395255D01*
X265464Y-395249D01*
X265604Y-395239D01*
X265744Y-395226D01*
X265883Y-395208D01*
X266022Y-395186D01*
X266160Y-395161D01*
X266298Y-395131D01*
X266434Y-395098D01*
X266570Y-395061D01*
X266704Y-395020D01*
X266837Y-394976D01*
X266969Y-394928D01*
X267100Y-394876D01*
X267229Y-394820D01*
X267356Y-394761D01*
X267482Y-394698D01*
X267606Y-394632D01*
X267728Y-394562D01*
X267848Y-394489D01*
X267966Y-394413D01*
X268082Y-394333D01*
X268195Y-394250D01*
X268306Y-394164D01*
X268415Y-394075D01*
X268521Y-393983D01*
X268624Y-393888D01*
X268725Y-393790D01*
X268823Y-393689D01*
X268918Y-393586D01*
X269010Y-393480D01*
X269099Y-393371D01*
X269185Y-393260D01*
X269268Y-393147D01*
X269348Y-393031D01*
X269424Y-392913D01*
X269497Y-392793D01*
X269567Y-392671D01*
X269633Y-392547D01*
X269696Y-392421D01*
X269755Y-392294D01*
X269811Y-392165D01*
X269863Y-392034D01*
X269911Y-391902D01*
X269955Y-391769D01*
X269996Y-391635D01*
X270033Y-391499D01*
X270066Y-391363D01*
X270096Y-391225D01*
X270121Y-391087D01*
X270143Y-390948D01*
X270161Y-390809D01*
X270174Y-390669D01*
X270184Y-390529D01*
X270190Y-390388D01*
X270192Y-390248D01*
X270190Y-390108D01*
X270184Y-389967D01*
X270174Y-389827D01*
X270161Y-389687D01*
X270143Y-389548D01*
X270121Y-389409D01*
X270096Y-389271D01*
X270066Y-389133D01*
X270033Y-388997D01*
X269996Y-388861D01*
X269955Y-388727D01*
X269911Y-388594D01*
X269863Y-388462D01*
X269811Y-388331D01*
X269755Y-388202D01*
X269696Y-388075D01*
X269633Y-387949D01*
X269567Y-387825D01*
X269497Y-387703D01*
X269424Y-387583D01*
X269348Y-387465D01*
X269268Y-387349D01*
X269185Y-387236D01*
X269099Y-387125D01*
X269010Y-387016D01*
X268918Y-386910D01*
X268823Y-386807D01*
X268725Y-386706D01*
X268624Y-386608D01*
X268521Y-386513D01*
X268415Y-386421D01*
X268306Y-386332D01*
X268195Y-386246D01*
X268082Y-386163D01*
X267966Y-386083D01*
X267848Y-386007D01*
X267728Y-385934D01*
X267606Y-385864D01*
X267482Y-385798D01*
X267356Y-385735D01*
X267229Y-385676D01*
X267100Y-385620D01*
X266969Y-385568D01*
X266837Y-385520D01*
X266704Y-385476D01*
X266570Y-385435D01*
X266434Y-385398D01*
X266298Y-385365D01*
X266160Y-385335D01*
X266022Y-385310D01*
X265883Y-385288D01*
X265744Y-385270D01*
X265604Y-385257D01*
X265464Y-385247D01*
X265323Y-385241D01*
X265183Y-385239D01*
X257168Y-385239D01*
X257028Y-385241D01*
X256887Y-385247D01*
X256747Y-385257D01*
X256607Y-385270D01*
X256468Y-385288D01*
X256329Y-385310D01*
X256191Y-385335D01*
X256053Y-385365D01*
X255917Y-385398D01*
X255781Y-385435D01*
X255647Y-385476D01*
X255514Y-385520D01*
X255382Y-385568D01*
X255251Y-385620D01*
X255122Y-385676D01*
X254995Y-385735D01*
X254869Y-385798D01*
X254745Y-385864D01*
X254623Y-385934D01*
X254503Y-386007D01*
X254385Y-386083D01*
X254269Y-386163D01*
X254156Y-386246D01*
X254045Y-386332D01*
X253936Y-386421D01*
X253830Y-386513D01*
X253727Y-386608D01*
X253626Y-386706D01*
X253528Y-386807D01*
X253433Y-386910D01*
X253341Y-387016D01*
X253252Y-387125D01*
X253166Y-387236D01*
X253083Y-387349D01*
X253003Y-387465D01*
X252927Y-387583D01*
X252854Y-387703D01*
X252784Y-387825D01*
X252718Y-387949D01*
X252655Y-388075D01*
X252596Y-388202D01*
X252540Y-388331D01*
X252488Y-388462D01*
X252440Y-388594D01*
X252396Y-388727D01*
X252355Y-388861D01*
X252318Y-388997D01*
X252285Y-389133D01*
X252255Y-389271D01*
X252230Y-389409D01*
X252208Y-389548D01*
X252190Y-389687D01*
X252177Y-389827D01*
X252167Y-389967D01*
X252161Y-390108D01*
X252159Y-390248D01*
X252161Y-390388D01*
X252167Y-390529D01*
X252177Y-390669D01*
X252190Y-390809D01*
X252208Y-390948D01*
X252230Y-391087D01*
X252255Y-391225D01*
X252285Y-391363D01*
X252318Y-391499D01*
X252355Y-391635D01*
X252396Y-391769D01*
X252440Y-391902D01*
X252488Y-392034D01*
X252540Y-392165D01*
X252596Y-392294D01*
X252655Y-392421D01*
X252718Y-392547D01*
X252784Y-392671D01*
X252854Y-392793D01*
X252927Y-392913D01*
X253003Y-393031D01*
X253083Y-393147D01*
X253166Y-393260D01*
X253252Y-393371D01*
X253341Y-393480D01*
X253433Y-393586D01*
X253528Y-393689D01*
X253626Y-393790D01*
X253727Y-393888D01*
X253830Y-393983D01*
X253936Y-394075D01*
X254045Y-394164D01*
X254156Y-394250D01*
X254269Y-394333D01*
X254385Y-394413D01*
X254503Y-394489D01*
X254623Y-394562D01*
X254745Y-394632D01*
X254869Y-394698D01*
X254995Y-394761D01*
X255122Y-394820D01*
X255251Y-394876D01*
X255382Y-394928D01*
X255514Y-394976D01*
X255647Y-395020D01*
X255781Y-395061D01*
X255917Y-395098D01*
X256053Y-395131D01*
X256191Y-395161D01*
X256329Y-395186D01*
X256468Y-395208D01*
X256607Y-395226D01*
X256747Y-395239D01*
X256887Y-395249D01*
X257028Y-395255D01*
X257168Y-395257D01*
X252159Y-376101D02*
X270193Y-376101D01*
X252159Y-366083D01*
X270193Y-366083D01*
X270193Y-356327D02*
X252159Y-356327D01*
X270193Y-356327D02*
X270193Y-351318D01*
X270192Y-351318D02*
X270190Y-351178D01*
X270184Y-351037D01*
X270174Y-350897D01*
X270161Y-350757D01*
X270143Y-350618D01*
X270121Y-350479D01*
X270096Y-350341D01*
X270066Y-350203D01*
X270033Y-350067D01*
X269996Y-349931D01*
X269955Y-349797D01*
X269911Y-349664D01*
X269863Y-349532D01*
X269811Y-349401D01*
X269755Y-349272D01*
X269696Y-349145D01*
X269633Y-349019D01*
X269567Y-348895D01*
X269497Y-348773D01*
X269424Y-348653D01*
X269348Y-348535D01*
X269268Y-348419D01*
X269185Y-348306D01*
X269099Y-348195D01*
X269010Y-348086D01*
X268918Y-347980D01*
X268823Y-347877D01*
X268725Y-347776D01*
X268624Y-347678D01*
X268521Y-347583D01*
X268415Y-347491D01*
X268306Y-347402D01*
X268195Y-347316D01*
X268082Y-347233D01*
X267966Y-347153D01*
X267848Y-347077D01*
X267728Y-347004D01*
X267606Y-346934D01*
X267482Y-346868D01*
X267356Y-346805D01*
X267229Y-346746D01*
X267100Y-346690D01*
X266969Y-346638D01*
X266837Y-346590D01*
X266704Y-346546D01*
X266570Y-346505D01*
X266434Y-346468D01*
X266298Y-346435D01*
X266160Y-346405D01*
X266022Y-346380D01*
X265883Y-346358D01*
X265744Y-346340D01*
X265604Y-346327D01*
X265464Y-346317D01*
X265323Y-346311D01*
X265183Y-346309D01*
X265183Y-346308D02*
X257168Y-346308D01*
X257168Y-346309D02*
X257028Y-346311D01*
X256887Y-346317D01*
X256747Y-346327D01*
X256607Y-346340D01*
X256468Y-346358D01*
X256329Y-346380D01*
X256191Y-346405D01*
X256053Y-346435D01*
X255917Y-346468D01*
X255781Y-346505D01*
X255647Y-346546D01*
X255514Y-346590D01*
X255382Y-346638D01*
X255251Y-346690D01*
X255122Y-346746D01*
X254995Y-346805D01*
X254869Y-346868D01*
X254745Y-346934D01*
X254623Y-347004D01*
X254503Y-347077D01*
X254385Y-347153D01*
X254269Y-347233D01*
X254156Y-347316D01*
X254045Y-347402D01*
X253936Y-347491D01*
X253830Y-347583D01*
X253727Y-347678D01*
X253626Y-347776D01*
X253528Y-347877D01*
X253433Y-347980D01*
X253341Y-348086D01*
X253252Y-348195D01*
X253166Y-348306D01*
X253083Y-348419D01*
X253003Y-348535D01*
X252927Y-348653D01*
X252854Y-348773D01*
X252784Y-348895D01*
X252718Y-349019D01*
X252655Y-349145D01*
X252596Y-349272D01*
X252540Y-349401D01*
X252488Y-349532D01*
X252440Y-349664D01*
X252396Y-349797D01*
X252355Y-349931D01*
X252318Y-350067D01*
X252285Y-350203D01*
X252255Y-350341D01*
X252230Y-350479D01*
X252208Y-350618D01*
X252190Y-350757D01*
X252177Y-350897D01*
X252167Y-351037D01*
X252161Y-351178D01*
X252159Y-351318D01*
X252159Y-356327D01*
D12*
X241364Y-347186D03*
X241364Y-450056D03*
X241554Y-347186D03*
X241554Y-450056D03*
X241745Y-347186D03*
X241745Y-450056D03*
D13*
X241935Y-340328D03*
D14*
X241935Y-352044D03*
D13*
X241935Y-354044D03*
D15*
X241935Y-443103D03*
D13*
X241935Y-457105D03*
X242126Y-340328D03*
X242126Y-342043D03*
D16*
X242126Y-352997D03*
D17*
X242126Y-442913D03*
D13*
X242126Y-457105D03*
D15*
X242316Y-340233D03*
D18*
X242316Y-347663D03*
D12*
X242316Y-450247D03*
D19*
X242507Y-340138D03*
D18*
X242507Y-347663D03*
D20*
X242507Y-450152D03*
D21*
X242697Y-346139D03*
D22*
X242697Y-353187D03*
D19*
X242697Y-354235D03*
D23*
X242697Y-449771D03*
D15*
X242697Y-457200D03*
D13*
X242888Y-341090D03*
D14*
X242888Y-342138D03*
D24*
X242888Y-343567D03*
D17*
X242888Y-344615D03*
D15*
X242888Y-352997D03*
D19*
X242888Y-354235D03*
X242888Y-443008D03*
X242888Y-452533D03*
D22*
X242888Y-453771D03*
D24*
X242888Y-455390D03*
D17*
X242888Y-457200D03*
D24*
X243078Y-340900D03*
D13*
X243078Y-342043D03*
X243078Y-343567D03*
D19*
X243078Y-354235D03*
X243078Y-443008D03*
X243078Y-452533D03*
D22*
X243078Y-453771D03*
D14*
X243078Y-455486D03*
D24*
X243269Y-340709D03*
D13*
X243269Y-342043D03*
X243269Y-343567D03*
D15*
X243269Y-354140D03*
D17*
X243269Y-442913D03*
D25*
X243269Y-453390D03*
D13*
X243269Y-455390D03*
D24*
X243459Y-340709D03*
D13*
X243459Y-342233D03*
D15*
X243459Y-354140D03*
D19*
X243459Y-443008D03*
D26*
X243459Y-453485D03*
D22*
X243650Y-340995D03*
D14*
X243650Y-342519D03*
D17*
X243650Y-343853D03*
D15*
X243650Y-354140D03*
D19*
X243650Y-443008D03*
D27*
X243650Y-453676D03*
D24*
X243840Y-341090D03*
D22*
X243840Y-342710D03*
D19*
X243840Y-343757D03*
D27*
X243840Y-454057D03*
D22*
X244031Y-341186D03*
D13*
X244031Y-342424D03*
D15*
X244031Y-454724D03*
D13*
X244221Y-340709D03*
D22*
X244221Y-341948D03*
D15*
X244221Y-454914D03*
D14*
X244412Y-340614D03*
D19*
X244412Y-341471D03*
D13*
X244412Y-342233D03*
D15*
X244412Y-455105D03*
D13*
X244602Y-340709D03*
D19*
X244602Y-341471D03*
D15*
X244602Y-342138D03*
X244602Y-455105D03*
D17*
X244602Y-456629D03*
D13*
X244793Y-340709D03*
D24*
X244793Y-341852D03*
D15*
X244793Y-455105D03*
D17*
X244793Y-456629D03*
D27*
X244983Y-341090D03*
D19*
X244983Y-342233D03*
X244983Y-455009D03*
D17*
X244983Y-456629D03*
D22*
X245174Y-340995D03*
D17*
X245174Y-342138D03*
X245174Y-454914D03*
X245174Y-456629D03*
D24*
X245364Y-340900D03*
D19*
X245364Y-342043D03*
D17*
X245364Y-455105D03*
X245364Y-456629D03*
D22*
X245555Y-340805D03*
D17*
X245555Y-341948D03*
X245555Y-455105D03*
X245555Y-455676D03*
X245555Y-456629D03*
D22*
X245745Y-340805D03*
D17*
X245745Y-341948D03*
X245745Y-455105D03*
X245745Y-455676D03*
D22*
X245936Y-340805D03*
D17*
X245936Y-341948D03*
D19*
X245936Y-455771D03*
D22*
X246126Y-340805D03*
D17*
X246126Y-341948D03*
D19*
X246126Y-455771D03*
D17*
X246126Y-456629D03*
D22*
X246317Y-340805D03*
D19*
X246317Y-341852D03*
X246317Y-455771D03*
D17*
X246317Y-456629D03*
D22*
X246507Y-340805D03*
D19*
X246507Y-341852D03*
X246507Y-455771D03*
D17*
X246507Y-456629D03*
D22*
X246698Y-340805D03*
D19*
X246698Y-341852D03*
X246698Y-455771D03*
D17*
X246698Y-456629D03*
D22*
X246888Y-340805D03*
D19*
X246888Y-341852D03*
X246888Y-455771D03*
D17*
X246888Y-456629D03*
D22*
X247079Y-340805D03*
D19*
X247079Y-341852D03*
D15*
X247079Y-455867D03*
D17*
X247079Y-456629D03*
D24*
X247269Y-340900D03*
D19*
X247269Y-341852D03*
D13*
X247269Y-455771D03*
D17*
X247269Y-456629D03*
D15*
X247460Y-340614D03*
D19*
X247460Y-341281D03*
X247460Y-341852D03*
X247460Y-455771D03*
D17*
X247460Y-456629D03*
X247460Y-457200D03*
D15*
X247650Y-340614D03*
D19*
X247650Y-341281D03*
X247650Y-341852D03*
X247650Y-455771D03*
D17*
X247650Y-456629D03*
X247650Y-457200D03*
D24*
X247841Y-340900D03*
D19*
X247841Y-341852D03*
D17*
X247841Y-455676D03*
X247841Y-456629D03*
X247841Y-457200D03*
D15*
X248031Y-340614D03*
D19*
X248031Y-341281D03*
X248031Y-341852D03*
X248031Y-455771D03*
D17*
X248031Y-456629D03*
D15*
X248222Y-340614D03*
D19*
X248222Y-341281D03*
X248222Y-341852D03*
D15*
X248222Y-455676D03*
D17*
X248222Y-456629D03*
D15*
X248412Y-340614D03*
D19*
X248412Y-341281D03*
X248412Y-341852D03*
X248412Y-455581D03*
D17*
X248412Y-456629D03*
D24*
X248603Y-340900D03*
D19*
X248603Y-341852D03*
X248603Y-455771D03*
D17*
X248603Y-456629D03*
D24*
X248793Y-340900D03*
D19*
X248793Y-341852D03*
X248793Y-455771D03*
X248793Y-456724D03*
D15*
X248984Y-340614D03*
D19*
X248984Y-341281D03*
D17*
X248984Y-341757D03*
D19*
X248984Y-455771D03*
D15*
X248984Y-456819D03*
D13*
X249174Y-340519D03*
D19*
X249174Y-341281D03*
X249174Y-341852D03*
X249174Y-455771D03*
D17*
X249174Y-456629D03*
D13*
X249365Y-340519D03*
D19*
X249365Y-341281D03*
X249365Y-341852D03*
X249365Y-455771D03*
D17*
X249365Y-456629D03*
D14*
X249555Y-340424D03*
D19*
X249555Y-341281D03*
X249555Y-455771D03*
X249555Y-456724D03*
D17*
X249555Y-457200D03*
D14*
X249746Y-340424D03*
D13*
X249746Y-341471D03*
D17*
X249746Y-455486D03*
D14*
X249746Y-456819D03*
X249936Y-340424D03*
D19*
X249936Y-341471D03*
D14*
X249936Y-456819D03*
D15*
X271082Y-340805D03*
D26*
X271082Y-456343D03*
D14*
X271272Y-340614D03*
D17*
X271272Y-341567D03*
D15*
X271272Y-455295D03*
D27*
X271272Y-456724D03*
D19*
X271463Y-340138D03*
D15*
X271463Y-340805D03*
D19*
X271463Y-341662D03*
X271463Y-454819D03*
D24*
X271463Y-456914D03*
D19*
X271653Y-340138D03*
D22*
X271653Y-341186D03*
D15*
X271653Y-454914D03*
D19*
X271653Y-455581D03*
D22*
X271653Y-456819D03*
D19*
X271844Y-340138D03*
D22*
X271844Y-341186D03*
D16*
X271844Y-456057D03*
D19*
X272034Y-340138D03*
D24*
X272034Y-341281D03*
X272034Y-455200D03*
D27*
X272034Y-456724D03*
D13*
X272225Y-340138D03*
D19*
X272225Y-340900D03*
X272225Y-341471D03*
D15*
X272225Y-454914D03*
D24*
X272225Y-456914D03*
D25*
X272415Y-340805D03*
D17*
X272415Y-342138D03*
D28*
X272415Y-455962D03*
D27*
X272606Y-340900D03*
D19*
X272606Y-342043D03*
D28*
X272606Y-455962D03*
D15*
X272796Y-340424D03*
D19*
X272796Y-341471D03*
X272796Y-342043D03*
X272796Y-454819D03*
D15*
X272796Y-457010D03*
D14*
X272987Y-340614D03*
D19*
X272987Y-341471D03*
D17*
X272987Y-342138D03*
D19*
X272987Y-454819D03*
D15*
X272987Y-457010D03*
D27*
X273177Y-340900D03*
D17*
X273177Y-342138D03*
D19*
X273177Y-454819D03*
D17*
X273177Y-455486D03*
D15*
X273177Y-457010D03*
D14*
X273368Y-340614D03*
D19*
X273368Y-341471D03*
X273368Y-342043D03*
X273368Y-454819D03*
D17*
X273368Y-455486D03*
D15*
X273368Y-457010D03*
D14*
X273558Y-340614D03*
D19*
X273558Y-341471D03*
X273558Y-342043D03*
D15*
X273558Y-454914D03*
D17*
X273558Y-455486D03*
D15*
X273558Y-457010D03*
D19*
X273749Y-340328D03*
X273749Y-340900D03*
X273749Y-341471D03*
D17*
X273749Y-342138D03*
D14*
X273749Y-455105D03*
D15*
X273749Y-457010D03*
D17*
X273939Y-340424D03*
D19*
X273939Y-340900D03*
X273939Y-341471D03*
X273939Y-342043D03*
X273939Y-454819D03*
D17*
X273939Y-455486D03*
D19*
X273939Y-456914D03*
D17*
X274130Y-340424D03*
D19*
X274130Y-340900D03*
X274130Y-341471D03*
X274130Y-342043D03*
X274130Y-454819D03*
D13*
X274130Y-455771D03*
D19*
X274130Y-456914D03*
X274320Y-340328D03*
X274320Y-340900D03*
X274320Y-341471D03*
X274320Y-342043D03*
X274320Y-454819D03*
D13*
X274320Y-455771D03*
D15*
X274320Y-457010D03*
D19*
X274511Y-340328D03*
D17*
X274511Y-340995D03*
D19*
X274511Y-341471D03*
X274511Y-342043D03*
X274511Y-454819D03*
D13*
X274511Y-455771D03*
D19*
X274511Y-456914D03*
X274701Y-340328D03*
D17*
X274701Y-340995D03*
D19*
X274701Y-341471D03*
D15*
X274701Y-342138D03*
D17*
X274701Y-454724D03*
D14*
X274701Y-455676D03*
D17*
X274701Y-456819D03*
D19*
X274892Y-340328D03*
D17*
X274892Y-340995D03*
D24*
X274892Y-341852D03*
D19*
X274892Y-454628D03*
D24*
X274892Y-455581D03*
D17*
X275082Y-339852D03*
D14*
X275082Y-340614D03*
D19*
X275082Y-341471D03*
D15*
X275082Y-342138D03*
D19*
X275082Y-454628D03*
D22*
X275082Y-455867D03*
X275273Y-340995D03*
D15*
X275273Y-342138D03*
X275273Y-454724D03*
D24*
X275273Y-455962D03*
D19*
X275273Y-456914D03*
D25*
X275463Y-341376D03*
D29*
X275463Y-455486D03*
D25*
X275654Y-341376D03*
D22*
X275654Y-454914D03*
D15*
X275654Y-456629D03*
D13*
X275844Y-340709D03*
D24*
X275844Y-341852D03*
D25*
X275844Y-391668D03*
D30*
X275844Y-394145D03*
D22*
X275844Y-396050D03*
D17*
X275844Y-399669D03*
X275844Y-400431D03*
D24*
X275844Y-401288D03*
D28*
X275844Y-403765D03*
D13*
X275844Y-454438D03*
D19*
X275844Y-455200D03*
D17*
X275844Y-456629D03*
D14*
X276035Y-340614D03*
D31*
X276035Y-350520D03*
D17*
X276035Y-386906D03*
D32*
X276035Y-391382D03*
D17*
X276035Y-395859D03*
D27*
X276035Y-402812D03*
D33*
X276035Y-407194D03*
D22*
X276035Y-411671D03*
D14*
X276035Y-454152D03*
D17*
X276035Y-456629D03*
X276225Y-339852D03*
D13*
X276225Y-340519D03*
D15*
X276225Y-341567D03*
D34*
X276225Y-360712D03*
D24*
X276225Y-386429D03*
D22*
X276225Y-388049D03*
D35*
X276225Y-392049D03*
D22*
X276225Y-396621D03*
D36*
X276225Y-406146D03*
D26*
X276225Y-453866D03*
D15*
X276225Y-455867D03*
D17*
X276225Y-456629D03*
D13*
X276416Y-340519D03*
D17*
X276416Y-341567D03*
D34*
X276416Y-360712D03*
D17*
X276416Y-385382D03*
D27*
X276416Y-386429D03*
D19*
X276416Y-388144D03*
D22*
X276416Y-389763D03*
D14*
X276416Y-394145D03*
D25*
X276416Y-396431D03*
D37*
X276416Y-405575D03*
D19*
X276416Y-412147D03*
D15*
X276416Y-412814D03*
D17*
X276416Y-413576D03*
D38*
X276416Y-453200D03*
D14*
X276416Y-455867D03*
D13*
X276606Y-340519D03*
D17*
X276606Y-341186D03*
D14*
X276606Y-342710D03*
D15*
X276606Y-343853D03*
D39*
X276606Y-346043D03*
D13*
X276606Y-347758D03*
D30*
X276606Y-349377D03*
D27*
X276606Y-351187D03*
D17*
X276606Y-352616D03*
D40*
X276606Y-354711D03*
D27*
X276606Y-357473D03*
D17*
X276606Y-358712D03*
D41*
X276606Y-361093D03*
D17*
X276606Y-363284D03*
D30*
X276606Y-364617D03*
D13*
X276606Y-366046D03*
D30*
X276606Y-367665D03*
D42*
X276606Y-370999D03*
D43*
X276606Y-376619D03*
D38*
X276606Y-386334D03*
D13*
X276606Y-389477D03*
D17*
X276606Y-392621D03*
D27*
X276606Y-394430D03*
D30*
X276606Y-396621D03*
D19*
X276606Y-400717D03*
D17*
X276606Y-401193D03*
D44*
X276606Y-404336D03*
D22*
X276606Y-407861D03*
D28*
X276606Y-410242D03*
D19*
X276606Y-412909D03*
D15*
X276606Y-413576D03*
D27*
X276606Y-436340D03*
D30*
X276606Y-438722D03*
X276606Y-440817D03*
D17*
X276606Y-442151D03*
D45*
X276606Y-448723D03*
D13*
X276606Y-455771D03*
D17*
X276797Y-339852D03*
D22*
X276797Y-340805D03*
D15*
X276797Y-341948D03*
D30*
X276797Y-375476D03*
D28*
X276797Y-378047D03*
D40*
X276797Y-386334D03*
D13*
X276797Y-389477D03*
D17*
X276797Y-392621D03*
D27*
X276797Y-394430D03*
D42*
X276797Y-404336D03*
D15*
X276797Y-407861D03*
D13*
X276797Y-409670D03*
D15*
X276797Y-411290D03*
D19*
X276797Y-413671D03*
D46*
X276797Y-437579D03*
D45*
X276797Y-448723D03*
D15*
X276797Y-455676D03*
D17*
X276987Y-339852D03*
D13*
X276987Y-341090D03*
X276987Y-342043D03*
D47*
X276987Y-362045D03*
D15*
X276987Y-379095D03*
D22*
X276987Y-384810D03*
D29*
X276987Y-386906D03*
D15*
X276987Y-389382D03*
D30*
X276987Y-402908D03*
D26*
X276987Y-405098D03*
D17*
X276987Y-406337D03*
D40*
X276987Y-434531D03*
D48*
X276987Y-440150D03*
D19*
X276987Y-443008D03*
D49*
X276987Y-449675D03*
D14*
X276987Y-454533D03*
D15*
X276987Y-455486D03*
D17*
X277178Y-339852D03*
D13*
X277178Y-341090D03*
X277178Y-342043D03*
X277178Y-343376D03*
D50*
X277178Y-363188D03*
D22*
X277178Y-384429D03*
X277178Y-386334D03*
D17*
X277178Y-387287D03*
D14*
X277178Y-403479D03*
D30*
X277178Y-405003D03*
D28*
X277178Y-433673D03*
D16*
X277178Y-439865D03*
D14*
X277178Y-442722D03*
D40*
X277178Y-453962D03*
D17*
X277178Y-456248D03*
D19*
X277368Y-339947D03*
D30*
X277368Y-341376D03*
D14*
X277368Y-343472D03*
D28*
X277368Y-345662D03*
D51*
X277368Y-376809D03*
D27*
X277368Y-384143D03*
D17*
X277368Y-385763D03*
D30*
X277368Y-404432D03*
D25*
X277368Y-433388D03*
D14*
X277368Y-436055D03*
X277368Y-437198D03*
D17*
X277368Y-438341D03*
D19*
X277368Y-440912D03*
D14*
X277368Y-442722D03*
D19*
X277368Y-452342D03*
D52*
X277368Y-454438D03*
D29*
X277559Y-340995D03*
D51*
X277559Y-376809D03*
D30*
X277559Y-384048D03*
D27*
X277559Y-404336D03*
D28*
X277559Y-433102D03*
D39*
X277559Y-436531D03*
D17*
X277559Y-438341D03*
D15*
X277559Y-441008D03*
D14*
X277559Y-442722D03*
D41*
X277559Y-454057D03*
D17*
X277749Y-340043D03*
D24*
X277749Y-341281D03*
D17*
X277749Y-374714D03*
D19*
X277749Y-375380D03*
D14*
X277749Y-376428D03*
D26*
X277749Y-378428D03*
D25*
X277749Y-383858D03*
D24*
X277749Y-404336D03*
D29*
X277749Y-433007D03*
D48*
X277749Y-436912D03*
D53*
X277749Y-448342D03*
D15*
X277940Y-340043D03*
D24*
X277940Y-341281D03*
D25*
X277940Y-375666D03*
D15*
X277940Y-377190D03*
D19*
X277940Y-379190D03*
D30*
X277940Y-383667D03*
D24*
X277940Y-404336D03*
D16*
X277940Y-432626D03*
D52*
X277940Y-437102D03*
D27*
X277940Y-441674D03*
D54*
X277940Y-449294D03*
D55*
X278130Y-358616D03*
D19*
X278130Y-379190D03*
D30*
X278130Y-383477D03*
D24*
X278130Y-404336D03*
D48*
X278130Y-432149D03*
D28*
X278130Y-437293D03*
D22*
X278130Y-441770D03*
D56*
X278130Y-448247D03*
D22*
X278130Y-454914D03*
D13*
X278321Y-340138D03*
D17*
X278321Y-342900D03*
X278321Y-343472D03*
X278321Y-344043D03*
X278321Y-344615D03*
X278321Y-345186D03*
X278321Y-345758D03*
X278321Y-346329D03*
X278321Y-346901D03*
X278321Y-347472D03*
X278321Y-348044D03*
X278321Y-348615D03*
D19*
X278321Y-349282D03*
X278321Y-349853D03*
X278321Y-350425D03*
D17*
X278321Y-350901D03*
X278321Y-351473D03*
D19*
X278321Y-352139D03*
D17*
X278321Y-352616D03*
X278321Y-353187D03*
X278321Y-353759D03*
X278321Y-354330D03*
X278321Y-354902D03*
X278321Y-355473D03*
X278321Y-356045D03*
D19*
X278321Y-356711D03*
X278321Y-357283D03*
X278321Y-357854D03*
X278321Y-358426D03*
X278321Y-358997D03*
X278321Y-359569D03*
X278321Y-360140D03*
D17*
X278321Y-360617D03*
X278321Y-361188D03*
X278321Y-361760D03*
X278321Y-362331D03*
X278321Y-362903D03*
X278321Y-363474D03*
X278321Y-364046D03*
D19*
X278321Y-364712D03*
X278321Y-365284D03*
X278321Y-365855D03*
X278321Y-366427D03*
X278321Y-366998D03*
X278321Y-367570D03*
X278321Y-368141D03*
X278321Y-368713D03*
D17*
X278321Y-369189D03*
X278321Y-369761D03*
D19*
X278321Y-370427D03*
D17*
X278321Y-370904D03*
X278321Y-371475D03*
D19*
X278321Y-372142D03*
X278321Y-372713D03*
X278321Y-373285D03*
X278321Y-373856D03*
D42*
X278321Y-376523D03*
D19*
X278321Y-379190D03*
D30*
X278321Y-383286D03*
D24*
X278321Y-404336D03*
D43*
X278321Y-431102D03*
D29*
X278321Y-437579D03*
D22*
X278321Y-441389D03*
D57*
X278321Y-447961D03*
D14*
X278321Y-454914D03*
X278511Y-340233D03*
D15*
X278511Y-342138D03*
D58*
X278511Y-376619D03*
D19*
X278511Y-379190D03*
D27*
X278511Y-383191D03*
D13*
X278511Y-404336D03*
D59*
X278511Y-430435D03*
D25*
X278511Y-437579D03*
D60*
X278511Y-446818D03*
D13*
X278511Y-453676D03*
D19*
X278511Y-454628D03*
D16*
X278702Y-341186D03*
D17*
X278702Y-361188D03*
X278702Y-361760D03*
X278702Y-362331D03*
X278702Y-362903D03*
X278702Y-368808D03*
X278702Y-369761D03*
X278702Y-370332D03*
X278702Y-370904D03*
X278702Y-371475D03*
X278702Y-372618D03*
D19*
X278702Y-373285D03*
X278702Y-373856D03*
D42*
X278702Y-376523D03*
D19*
X278702Y-379190D03*
D22*
X278702Y-382905D03*
D13*
X278702Y-404336D03*
D61*
X278702Y-430244D03*
D30*
X278702Y-437769D03*
D60*
X278702Y-446818D03*
D24*
X278702Y-453676D03*
D29*
X278892Y-341186D03*
D17*
X278892Y-361188D03*
X278892Y-361760D03*
X278892Y-362522D03*
X278892Y-364236D03*
D19*
X278892Y-365855D03*
X278892Y-366427D03*
D17*
X278892Y-367094D03*
X278892Y-367665D03*
D19*
X278892Y-368141D03*
X278892Y-368713D03*
X278892Y-369284D03*
D26*
X278892Y-370999D03*
D43*
X278892Y-374904D03*
D17*
X278892Y-379286D03*
D27*
X278892Y-382810D03*
D15*
X278892Y-404432D03*
D14*
X278892Y-428054D03*
D42*
X278892Y-431387D03*
D26*
X278892Y-437674D03*
D62*
X278892Y-447294D03*
D22*
X279083Y-363855D03*
D17*
X279083Y-368427D03*
D30*
X279083Y-369761D03*
D17*
X279083Y-373571D03*
X279083Y-374142D03*
D52*
X279083Y-375952D03*
D19*
X279083Y-379190D03*
D22*
X279083Y-382715D03*
D15*
X279083Y-404432D03*
D30*
X279083Y-427482D03*
D14*
X279083Y-429387D03*
D40*
X279083Y-431864D03*
D39*
X279083Y-437483D03*
D63*
X279083Y-446818D03*
D29*
X279273Y-378143D03*
D24*
X279273Y-382429D03*
D15*
X279273Y-404432D03*
D58*
X279273Y-428816D03*
D29*
X279273Y-432435D03*
D39*
X279273Y-437483D03*
D17*
X279273Y-441389D03*
D13*
X279273Y-442055D03*
D64*
X279273Y-446437D03*
D17*
X279273Y-450533D03*
D29*
X279464Y-378143D03*
D24*
X279464Y-382429D03*
D42*
X279464Y-428720D03*
D15*
X279464Y-431673D03*
D14*
X279464Y-432626D03*
D29*
X279464Y-437388D03*
X279654Y-378143D03*
D24*
X279654Y-382238D03*
D15*
X279654Y-404432D03*
D13*
X279654Y-426815D03*
D52*
X279654Y-429482D03*
D25*
X279654Y-432245D03*
D39*
X279654Y-436721D03*
D17*
X279654Y-438341D03*
X279654Y-438912D03*
D19*
X279654Y-439579D03*
D27*
X279845Y-377666D03*
D15*
X279845Y-379095D03*
D13*
X279845Y-382238D03*
X279845Y-404336D03*
D28*
X279845Y-427958D03*
D15*
X279845Y-429768D03*
D38*
X279845Y-431864D03*
D51*
X279845Y-437769D03*
D14*
X280035Y-377571D03*
D19*
X280035Y-379190D03*
D13*
X280035Y-382238D03*
D15*
X280035Y-404241D03*
D25*
X280035Y-428054D03*
D58*
X280035Y-431483D03*
D44*
X280035Y-437674D03*
D24*
X280226Y-377476D03*
D19*
X280226Y-379190D03*
D15*
X280226Y-382143D03*
X280226Y-404241D03*
D30*
X280226Y-427482D03*
D65*
X280226Y-431102D03*
D51*
X280226Y-437579D03*
D14*
X280416Y-377571D03*
D19*
X280416Y-379190D03*
X280416Y-382048D03*
D15*
X280416Y-404241D03*
D27*
X280416Y-427387D03*
D24*
X280416Y-429101D03*
D29*
X280416Y-432435D03*
D30*
X280416Y-435864D03*
D28*
X280416Y-438245D03*
D14*
X280607Y-377571D03*
D19*
X280607Y-379190D03*
D15*
X280607Y-381953D03*
X280607Y-404241D03*
D24*
X280607Y-427196D03*
X280607Y-428911D03*
D25*
X280607Y-432626D03*
D30*
X280607Y-435674D03*
X280607Y-437579D03*
D13*
X280607Y-439007D03*
D14*
X280797Y-377571D03*
D19*
X280797Y-379190D03*
D15*
X280797Y-381762D03*
X280797Y-404241D03*
D40*
X280797Y-428435D03*
D25*
X280797Y-432626D03*
D30*
X280797Y-435483D03*
D14*
X280797Y-437007D03*
D27*
X280797Y-438436D03*
D14*
X280988Y-377571D03*
D19*
X280988Y-379190D03*
D15*
X280988Y-381762D03*
X280988Y-404241D03*
D66*
X280988Y-430340D03*
D30*
X280988Y-435293D03*
D13*
X280988Y-436912D03*
D22*
X280988Y-438341D03*
D14*
X281178Y-377571D03*
D19*
X281178Y-379190D03*
D17*
X281178Y-381762D03*
D19*
X281178Y-404336D03*
D24*
X281178Y-428149D03*
D28*
X281178Y-430244D03*
D30*
X281178Y-432626D03*
D16*
X281178Y-435674D03*
D22*
X281178Y-437960D03*
D14*
X281369Y-377571D03*
D19*
X281369Y-379190D03*
D16*
X281369Y-435483D03*
D22*
X281369Y-437960D03*
D13*
X281559Y-377666D03*
D19*
X281559Y-379190D03*
X281559Y-404336D03*
D29*
X281559Y-434912D03*
D15*
X281559Y-436626D03*
D14*
X281559Y-437579D03*
D13*
X281750Y-377666D03*
D19*
X281750Y-379190D03*
D17*
X281750Y-404432D03*
D42*
X281750Y-435769D03*
D13*
X281940Y-377666D03*
D19*
X281940Y-379190D03*
D42*
X281940Y-435578D03*
D13*
X282131Y-377666D03*
D19*
X282131Y-379190D03*
D17*
X282131Y-404432D03*
D30*
X282131Y-433959D03*
D28*
X282131Y-436340D03*
D13*
X282321Y-377666D03*
D19*
X282321Y-379190D03*
D17*
X282321Y-432626D03*
D25*
X282321Y-433959D03*
D39*
X282321Y-436340D03*
D13*
X282512Y-377666D03*
D19*
X282512Y-379190D03*
D51*
X282512Y-434721D03*
D13*
X282702Y-377666D03*
D19*
X282702Y-379190D03*
D42*
X282702Y-434626D03*
D13*
X282893Y-377666D03*
D19*
X282893Y-379190D03*
D29*
X282893Y-433388D03*
D26*
X282893Y-435769D03*
D13*
X283083Y-377666D03*
D19*
X283083Y-379190D03*
D28*
X283083Y-433292D03*
D22*
X283083Y-435864D03*
D13*
X283274Y-377666D03*
D19*
X283274Y-379190D03*
D42*
X283274Y-434054D03*
D13*
X283464Y-377666D03*
D19*
X283464Y-379190D03*
D58*
X283464Y-433769D03*
D13*
X283655Y-377666D03*
D19*
X283655Y-379190D03*
D42*
X283655Y-433483D03*
D13*
X283845Y-377666D03*
D19*
X283845Y-379190D03*
D42*
X283845Y-433292D03*
D14*
X284036Y-377571D03*
D19*
X284036Y-379190D03*
D58*
X284036Y-433007D03*
D14*
X284226Y-377571D03*
D19*
X284226Y-379190D03*
D58*
X284226Y-432816D03*
D13*
X284417Y-377666D03*
D19*
X284417Y-379190D03*
D42*
X284417Y-432530D03*
D13*
X284607Y-377666D03*
D19*
X284607Y-379190D03*
D58*
X284607Y-432435D03*
D13*
X284798Y-377666D03*
D19*
X284798Y-379190D03*
D42*
X284798Y-432149D03*
D13*
X284988Y-377666D03*
D19*
X284988Y-379190D03*
D58*
X284988Y-431864D03*
D14*
X285179Y-377571D03*
D19*
X285179Y-379190D03*
D26*
X285179Y-430625D03*
D25*
X285179Y-432816D03*
D13*
X285369Y-377666D03*
D19*
X285369Y-379190D03*
D24*
X285369Y-429863D03*
D16*
X285369Y-432245D03*
D13*
X285560Y-377666D03*
D19*
X285560Y-379190D03*
D27*
X285560Y-429673D03*
D25*
X285560Y-432245D03*
D13*
X285750Y-377666D03*
D19*
X285750Y-379190D03*
D39*
X285750Y-429863D03*
D25*
X285750Y-432245D03*
D13*
X285941Y-377666D03*
D19*
X285941Y-379190D03*
D58*
X285941Y-430721D03*
D13*
X286131Y-377666D03*
D19*
X286131Y-379190D03*
D24*
X286131Y-428911D03*
D52*
X286131Y-431197D03*
D13*
X286322Y-377666D03*
D19*
X286322Y-379190D03*
D22*
X286322Y-428816D03*
D16*
X286322Y-431102D03*
D13*
X286512Y-377666D03*
D19*
X286512Y-379190D03*
D58*
X286512Y-429959D03*
D13*
X286703Y-377666D03*
D19*
X286703Y-379190D03*
D67*
X286703Y-429673D03*
D13*
X286893Y-377666D03*
D17*
X286893Y-379095D03*
D24*
X286893Y-427958D03*
D15*
X286893Y-429006D03*
D39*
X286893Y-430625D03*
D13*
X287084Y-377666D03*
D17*
X287084Y-379095D03*
D22*
X287084Y-427863D03*
D16*
X287084Y-430149D03*
D13*
X287274Y-377666D03*
D19*
X287274Y-379190D03*
D27*
X287274Y-427577D03*
D29*
X287274Y-429959D03*
D13*
X287465Y-377666D03*
D19*
X287465Y-379190D03*
D27*
X287465Y-427387D03*
D39*
X287465Y-429673D03*
D13*
X287655Y-377666D03*
D19*
X287655Y-379190D03*
D27*
X287655Y-427196D03*
D24*
X287655Y-428720D03*
D14*
X287655Y-430149D03*
D13*
X287846Y-377666D03*
D19*
X287846Y-379190D03*
D27*
X287846Y-427006D03*
D13*
X287846Y-428530D03*
X287846Y-430054D03*
X288036Y-377666D03*
D19*
X288036Y-379190D03*
D14*
X288036Y-426530D03*
D17*
X288036Y-427482D03*
D29*
X288036Y-429197D03*
D13*
X288227Y-377666D03*
D19*
X288227Y-379190D03*
D52*
X288227Y-427196D03*
D24*
X288227Y-429482D03*
D13*
X288417Y-377666D03*
D19*
X288417Y-379190D03*
D16*
X288417Y-426911D03*
D14*
X288417Y-429387D03*
D13*
X288608Y-377666D03*
D17*
X288608Y-379095D03*
D39*
X288608Y-426434D03*
D30*
X288608Y-428816D03*
D13*
X288798Y-377666D03*
D17*
X288798Y-379095D03*
D67*
X288798Y-427196D03*
D13*
X288989Y-377666D03*
D17*
X288989Y-379095D03*
D25*
X288989Y-425958D03*
D26*
X288989Y-428149D03*
D15*
X289179Y-377762D03*
D17*
X289179Y-379095D03*
D58*
X289179Y-426720D03*
D15*
X289370Y-377762D03*
D17*
X289370Y-379095D03*
D39*
X289370Y-425482D03*
D30*
X289370Y-427863D03*
D15*
X289560Y-377762D03*
D19*
X289560Y-379190D03*
D39*
X289560Y-425291D03*
D14*
X289560Y-428054D03*
D15*
X289751Y-377762D03*
D19*
X289751Y-379190D03*
D39*
X289751Y-425101D03*
D13*
X289751Y-427768D03*
D15*
X289941Y-377762D03*
D19*
X289941Y-379190D03*
D39*
X289941Y-424910D03*
D14*
X289941Y-427482D03*
D15*
X290132Y-377762D03*
D19*
X290132Y-379190D03*
D29*
X290132Y-424625D03*
D14*
X290132Y-427292D03*
D15*
X290322Y-377762D03*
D17*
X290322Y-379095D03*
D29*
X290322Y-424434D03*
D14*
X290322Y-427101D03*
D13*
X290513Y-377666D03*
D17*
X290513Y-379095D03*
D24*
X290513Y-423577D03*
D22*
X290513Y-425006D03*
D14*
X290513Y-426911D03*
D13*
X290703Y-377666D03*
D17*
X290703Y-379095D03*
D22*
X290703Y-423291D03*
X290703Y-424815D03*
D15*
X290703Y-426720D03*
D13*
X290894Y-377666D03*
D19*
X290894Y-379190D03*
D16*
X290894Y-423863D03*
D15*
X290894Y-426530D03*
D13*
X291084Y-377666D03*
D19*
X291084Y-379190D03*
D52*
X291084Y-423767D03*
D14*
X291084Y-426149D03*
D15*
X291275Y-377762D03*
D19*
X291275Y-379190D03*
D38*
X291275Y-423672D03*
D13*
X291275Y-425863D03*
D15*
X291465Y-377762D03*
D19*
X291465Y-379190D03*
D42*
X291465Y-423958D03*
D15*
X291656Y-377762D03*
D19*
X291656Y-379190D03*
D67*
X291656Y-423577D03*
D17*
X291656Y-425958D03*
D13*
X291846Y-377666D03*
D19*
X291846Y-379190D03*
D39*
X291846Y-422434D03*
D30*
X291846Y-424815D03*
D15*
X292037Y-377762D03*
D19*
X292037Y-379190D03*
D39*
X292037Y-422243D03*
D22*
X292037Y-424625D03*
D13*
X292227Y-377666D03*
D19*
X292227Y-379190D03*
D41*
X292227Y-422815D03*
D19*
X292227Y-425101D03*
D13*
X292418Y-377666D03*
D17*
X292418Y-379095D03*
D22*
X292418Y-421196D03*
D28*
X292418Y-423386D03*
D17*
X292418Y-425006D03*
D13*
X292608Y-377666D03*
D19*
X292608Y-379190D03*
D22*
X292608Y-421005D03*
D29*
X292608Y-423291D03*
D13*
X292799Y-377666D03*
D15*
X292799Y-379286D03*
D24*
X292799Y-420719D03*
D16*
X292799Y-422910D03*
D13*
X292989Y-377666D03*
D15*
X292989Y-379286D03*
D68*
X292989Y-421958D03*
D13*
X293180Y-377666D03*
D15*
X293180Y-379286D03*
D42*
X293180Y-421862D03*
D14*
X293370Y-377762D03*
D24*
X293370Y-379000D03*
D29*
X293370Y-420624D03*
D14*
X293370Y-422529D03*
D15*
X293370Y-423482D03*
D39*
X293561Y-378428D03*
D28*
X293561Y-420529D03*
D27*
X293561Y-422815D03*
D29*
X293751Y-378524D03*
D58*
X293751Y-421196D03*
D39*
X293942Y-378619D03*
D58*
X293942Y-421005D03*
D16*
X294132Y-378714D03*
D42*
X294132Y-420719D03*
D27*
X294323Y-377857D03*
D30*
X294323Y-379667D03*
D17*
X294323Y-381572D03*
D42*
X294323Y-420529D03*
D22*
X294513Y-377762D03*
D38*
X294513Y-380238D03*
D58*
X294513Y-420243D03*
D38*
X294704Y-378714D03*
D16*
X294704Y-382334D03*
D28*
X294704Y-385286D03*
D58*
X294704Y-420053D03*
D38*
X294894Y-378714D03*
D57*
X294894Y-386048D03*
D17*
X294894Y-391859D03*
X294894Y-392240D03*
D69*
X294894Y-404622D03*
D25*
X294894Y-417957D03*
D16*
X294894Y-420624D03*
D26*
X295085Y-378238D03*
D70*
X295085Y-400622D03*
D26*
X295275Y-378428D03*
D48*
X295275Y-381286D03*
D71*
X295275Y-399955D03*
D44*
X295275Y-419005D03*
D52*
X295466Y-379190D03*
D30*
X295466Y-381762D03*
D72*
X295466Y-402527D03*
D59*
X295656Y-380714D03*
D34*
X295656Y-402431D03*
D41*
X295847Y-379952D03*
D19*
X295847Y-383191D03*
D43*
X295847Y-418148D03*
D38*
X296037Y-380048D03*
D39*
X296037Y-396335D03*
D48*
X296037Y-417290D03*
D22*
X296037Y-419862D03*
D30*
X296228Y-379476D03*
D14*
X296228Y-381191D03*
D17*
X296228Y-383477D03*
D26*
X296228Y-396335D03*
D51*
X296228Y-417957D03*
D44*
X296418Y-381286D03*
D13*
X296418Y-416719D03*
D39*
X296418Y-419005D03*
D51*
X296609Y-381381D03*
D25*
X296609Y-418910D03*
D73*
X296799Y-387191D03*
D74*
X296799Y-407099D03*
D25*
X296799Y-418529D03*
D75*
X296990Y-398526D03*
D30*
X296990Y-418529D03*
D17*
X297180Y-379857D03*
D19*
X297180Y-418243D03*
X297180Y-419005D03*
D76*
X245555Y-436972D02*
X237427Y-436972D01*
X245555Y-439230D02*
X245555Y-434714D01*
X245555Y-430390D02*
X237427Y-430390D01*
X241942Y-430390D02*
X241942Y-425875D01*
X245555Y-425875D02*
X237427Y-425875D01*
X237427Y-420605D02*
X237427Y-416993D01*
X237427Y-420605D02*
X245555Y-420605D01*
X245555Y-416993D01*
X241942Y-417896D02*
X241942Y-420605D01*
X245555Y-407732D02*
X237427Y-407732D01*
X245555Y-407732D02*
X245555Y-405474D01*
X245553Y-405381D01*
X245547Y-405288D01*
X245538Y-405195D01*
X245524Y-405102D01*
X245507Y-405011D01*
X245486Y-404920D01*
X245461Y-404830D01*
X245433Y-404741D01*
X245401Y-404653D01*
X245365Y-404567D01*
X245326Y-404482D01*
X245283Y-404399D01*
X245237Y-404318D01*
X245187Y-404239D01*
X245135Y-404162D01*
X245079Y-404087D01*
X245020Y-404015D01*
X244958Y-403945D01*
X244894Y-403877D01*
X244826Y-403813D01*
X244756Y-403751D01*
X244684Y-403692D01*
X244609Y-403636D01*
X244532Y-403584D01*
X244453Y-403534D01*
X244372Y-403488D01*
X244289Y-403445D01*
X244204Y-403406D01*
X244118Y-403370D01*
X244030Y-403338D01*
X243941Y-403310D01*
X243851Y-403285D01*
X243760Y-403264D01*
X243669Y-403247D01*
X243576Y-403233D01*
X243483Y-403224D01*
X243390Y-403218D01*
X243297Y-403216D01*
X243204Y-403218D01*
X243111Y-403224D01*
X243018Y-403233D01*
X242925Y-403247D01*
X242834Y-403264D01*
X242743Y-403285D01*
X242653Y-403310D01*
X242564Y-403338D01*
X242476Y-403370D01*
X242390Y-403406D01*
X242305Y-403445D01*
X242222Y-403488D01*
X242141Y-403534D01*
X242062Y-403584D01*
X241985Y-403636D01*
X241910Y-403692D01*
X241838Y-403751D01*
X241768Y-403813D01*
X241700Y-403877D01*
X241636Y-403945D01*
X241574Y-404015D01*
X241515Y-404087D01*
X241459Y-404162D01*
X241407Y-404239D01*
X241357Y-404318D01*
X241311Y-404399D01*
X241268Y-404482D01*
X241229Y-404567D01*
X241193Y-404653D01*
X241161Y-404741D01*
X241133Y-404830D01*
X241108Y-404920D01*
X241087Y-405011D01*
X241070Y-405102D01*
X241056Y-405195D01*
X241047Y-405288D01*
X241041Y-405381D01*
X241039Y-405474D01*
X241039Y-407732D01*
X241039Y-405023D02*
X237427Y-403217D01*
X237427Y-399143D02*
X245555Y-396434D01*
X237427Y-393724D01*
X239459Y-394402D02*
X239459Y-398466D01*
X237427Y-389005D02*
X245555Y-389005D01*
X245555Y-386748D01*
X245553Y-386655D01*
X245547Y-386562D01*
X245538Y-386469D01*
X245524Y-386376D01*
X245507Y-386285D01*
X245486Y-386194D01*
X245461Y-386104D01*
X245433Y-386015D01*
X245401Y-385927D01*
X245365Y-385841D01*
X245326Y-385756D01*
X245283Y-385673D01*
X245237Y-385592D01*
X245187Y-385513D01*
X245135Y-385436D01*
X245079Y-385361D01*
X245020Y-385289D01*
X244958Y-385219D01*
X244894Y-385151D01*
X244826Y-385087D01*
X244756Y-385025D01*
X244684Y-384966D01*
X244609Y-384910D01*
X244532Y-384858D01*
X244453Y-384808D01*
X244372Y-384762D01*
X244289Y-384719D01*
X244204Y-384680D01*
X244118Y-384644D01*
X244030Y-384612D01*
X243941Y-384584D01*
X243851Y-384559D01*
X243760Y-384538D01*
X243669Y-384521D01*
X243576Y-384507D01*
X243483Y-384498D01*
X243390Y-384492D01*
X243297Y-384490D01*
X243204Y-384492D01*
X243111Y-384498D01*
X243018Y-384507D01*
X242925Y-384521D01*
X242834Y-384538D01*
X242743Y-384559D01*
X242653Y-384584D01*
X242564Y-384612D01*
X242476Y-384644D01*
X242390Y-384680D01*
X242305Y-384719D01*
X242222Y-384762D01*
X242141Y-384808D01*
X242062Y-384858D01*
X241985Y-384910D01*
X241910Y-384966D01*
X241838Y-385025D01*
X241768Y-385087D01*
X241700Y-385151D01*
X241636Y-385219D01*
X241574Y-385289D01*
X241515Y-385361D01*
X241459Y-385436D01*
X241407Y-385513D01*
X241357Y-385592D01*
X241311Y-385673D01*
X241268Y-385756D01*
X241229Y-385841D01*
X241193Y-385927D01*
X241161Y-386015D01*
X241133Y-386104D01*
X241108Y-386194D01*
X241087Y-386285D01*
X241070Y-386376D01*
X241056Y-386469D01*
X241047Y-386562D01*
X241041Y-386655D01*
X241039Y-386748D01*
X241039Y-389005D01*
X237427Y-378755D02*
X245555Y-378755D01*
X245555Y-381013D02*
X245555Y-376497D01*
X243297Y-372479D02*
X239684Y-372479D01*
X243297Y-372479D02*
X243390Y-372477D01*
X243483Y-372471D01*
X243576Y-372462D01*
X243669Y-372448D01*
X243760Y-372431D01*
X243851Y-372410D01*
X243941Y-372385D01*
X244030Y-372357D01*
X244118Y-372325D01*
X244204Y-372289D01*
X244289Y-372250D01*
X244372Y-372207D01*
X244453Y-372161D01*
X244532Y-372111D01*
X244609Y-372059D01*
X244684Y-372003D01*
X244756Y-371944D01*
X244826Y-371882D01*
X244894Y-371818D01*
X244958Y-371750D01*
X245020Y-371680D01*
X245079Y-371608D01*
X245135Y-371533D01*
X245187Y-371456D01*
X245237Y-371377D01*
X245283Y-371296D01*
X245326Y-371213D01*
X245365Y-371128D01*
X245401Y-371042D01*
X245433Y-370954D01*
X245461Y-370865D01*
X245486Y-370775D01*
X245507Y-370684D01*
X245524Y-370593D01*
X245538Y-370500D01*
X245547Y-370407D01*
X245553Y-370314D01*
X245555Y-370221D01*
X245553Y-370128D01*
X245547Y-370035D01*
X245538Y-369942D01*
X245524Y-369849D01*
X245507Y-369758D01*
X245486Y-369667D01*
X245461Y-369577D01*
X245433Y-369488D01*
X245401Y-369400D01*
X245365Y-369314D01*
X245326Y-369229D01*
X245283Y-369146D01*
X245237Y-369065D01*
X245187Y-368986D01*
X245135Y-368909D01*
X245079Y-368834D01*
X245020Y-368762D01*
X244958Y-368692D01*
X244894Y-368624D01*
X244826Y-368560D01*
X244756Y-368498D01*
X244684Y-368439D01*
X244609Y-368383D01*
X244532Y-368331D01*
X244453Y-368281D01*
X244372Y-368235D01*
X244289Y-368192D01*
X244204Y-368153D01*
X244118Y-368117D01*
X244030Y-368085D01*
X243941Y-368057D01*
X243851Y-368032D01*
X243760Y-368011D01*
X243669Y-367994D01*
X243576Y-367980D01*
X243483Y-367971D01*
X243390Y-367965D01*
X243297Y-367963D01*
X239684Y-367963D01*
X239591Y-367965D01*
X239498Y-367971D01*
X239405Y-367980D01*
X239312Y-367994D01*
X239221Y-368011D01*
X239130Y-368032D01*
X239040Y-368057D01*
X238951Y-368085D01*
X238863Y-368117D01*
X238777Y-368153D01*
X238692Y-368192D01*
X238609Y-368235D01*
X238528Y-368281D01*
X238449Y-368331D01*
X238372Y-368383D01*
X238297Y-368439D01*
X238225Y-368498D01*
X238155Y-368560D01*
X238087Y-368624D01*
X238023Y-368692D01*
X237961Y-368762D01*
X237902Y-368834D01*
X237846Y-368909D01*
X237794Y-368986D01*
X237744Y-369065D01*
X237698Y-369146D01*
X237655Y-369229D01*
X237616Y-369314D01*
X237580Y-369400D01*
X237548Y-369488D01*
X237520Y-369577D01*
X237495Y-369667D01*
X237474Y-369758D01*
X237457Y-369849D01*
X237443Y-369942D01*
X237434Y-370035D01*
X237428Y-370128D01*
X237426Y-370221D01*
X237428Y-370314D01*
X237434Y-370407D01*
X237443Y-370500D01*
X237457Y-370593D01*
X237474Y-370684D01*
X237495Y-370775D01*
X237520Y-370865D01*
X237548Y-370954D01*
X237580Y-371042D01*
X237616Y-371128D01*
X237655Y-371213D01*
X237698Y-371296D01*
X237744Y-371377D01*
X237794Y-371456D01*
X237846Y-371533D01*
X237902Y-371608D01*
X237961Y-371680D01*
X238023Y-371750D01*
X238087Y-371818D01*
X238155Y-371882D01*
X238225Y-371944D01*
X238297Y-372003D01*
X238372Y-372059D01*
X238449Y-372111D01*
X238528Y-372161D01*
X238609Y-372207D01*
X238692Y-372250D01*
X238777Y-372289D01*
X238863Y-372325D01*
X238951Y-372357D01*
X239040Y-372385D01*
X239130Y-372410D01*
X239221Y-372431D01*
X239312Y-372448D01*
X239405Y-372462D01*
X239498Y-372471D01*
X239591Y-372477D01*
X239684Y-372479D01*
X237427Y-362927D02*
X245555Y-362927D01*
X245555Y-360669D01*
X245553Y-360576D01*
X245547Y-360483D01*
X245538Y-360390D01*
X245524Y-360297D01*
X245507Y-360206D01*
X245486Y-360115D01*
X245461Y-360025D01*
X245433Y-359936D01*
X245401Y-359848D01*
X245365Y-359762D01*
X245326Y-359677D01*
X245283Y-359594D01*
X245237Y-359513D01*
X245187Y-359434D01*
X245135Y-359357D01*
X245079Y-359282D01*
X245020Y-359210D01*
X244958Y-359140D01*
X244894Y-359072D01*
X244826Y-359008D01*
X244756Y-358946D01*
X244684Y-358887D01*
X244609Y-358831D01*
X244532Y-358779D01*
X244453Y-358729D01*
X244372Y-358683D01*
X244289Y-358640D01*
X244204Y-358601D01*
X244118Y-358565D01*
X244030Y-358533D01*
X243941Y-358505D01*
X243851Y-358480D01*
X243760Y-358459D01*
X243669Y-358442D01*
X243576Y-358428D01*
X243483Y-358419D01*
X243390Y-358413D01*
X243297Y-358411D01*
X243204Y-358413D01*
X243111Y-358419D01*
X243018Y-358428D01*
X242925Y-358442D01*
X242834Y-358459D01*
X242743Y-358480D01*
X242653Y-358505D01*
X242564Y-358533D01*
X242476Y-358565D01*
X242390Y-358601D01*
X242305Y-358640D01*
X242222Y-358683D01*
X242141Y-358729D01*
X242062Y-358779D01*
X241985Y-358831D01*
X241910Y-358887D01*
X241838Y-358946D01*
X241768Y-359008D01*
X241700Y-359072D01*
X241636Y-359140D01*
X241574Y-359210D01*
X241515Y-359282D01*
X241459Y-359357D01*
X241407Y-359434D01*
X241357Y-359513D01*
X241311Y-359594D01*
X241268Y-359677D01*
X241229Y-359762D01*
X241193Y-359848D01*
X241161Y-359936D01*
X241133Y-360025D01*
X241108Y-360115D01*
X241087Y-360206D01*
X241070Y-360297D01*
X241056Y-360390D01*
X241047Y-360483D01*
X241041Y-360576D01*
X241039Y-360669D01*
X241039Y-362927D01*
X241039Y-360217D02*
X237427Y-358411D01*
D77*
X331800Y-534800D02*
X331800Y-544300D01*
X531800Y-544300D01*
X531800Y-534800D01*
X331800Y-343300D02*
X331800Y-319300D01*
X376300Y-319300D01*
X487300Y-319300D02*
X531800Y-319300D01*
X531800Y-343300D01*
D78*
X552308Y-512448D02*
X560097Y-512448D01*
X556203Y-508554D02*
X556203Y-516343D01*
X305501Y-528290D02*
X300308Y-528290D01*
X336310Y-559308D02*
X336310Y-567746D01*
X336311Y-567746D02*
X336309Y-567859D01*
X336303Y-567972D01*
X336293Y-568085D01*
X336279Y-568198D01*
X336262Y-568310D01*
X336240Y-568421D01*
X336215Y-568531D01*
X336185Y-568641D01*
X336152Y-568749D01*
X336115Y-568856D01*
X336075Y-568962D01*
X336030Y-569066D01*
X335982Y-569169D01*
X335931Y-569270D01*
X335876Y-569369D01*
X335818Y-569466D01*
X335756Y-569561D01*
X335691Y-569654D01*
X335623Y-569744D01*
X335552Y-569832D01*
X335477Y-569918D01*
X335400Y-570001D01*
X335320Y-570081D01*
X335237Y-570158D01*
X335151Y-570233D01*
X335063Y-570304D01*
X334973Y-570372D01*
X334880Y-570437D01*
X334785Y-570499D01*
X334688Y-570557D01*
X334589Y-570612D01*
X334488Y-570663D01*
X334385Y-570711D01*
X334281Y-570756D01*
X334175Y-570796D01*
X334068Y-570833D01*
X333960Y-570866D01*
X333850Y-570896D01*
X333740Y-570921D01*
X333629Y-570943D01*
X333517Y-570960D01*
X333404Y-570974D01*
X333291Y-570984D01*
X333178Y-570990D01*
X333065Y-570992D01*
X332952Y-570990D01*
X332839Y-570984D01*
X332726Y-570974D01*
X332613Y-570960D01*
X332501Y-570943D01*
X332390Y-570921D01*
X332280Y-570896D01*
X332170Y-570866D01*
X332062Y-570833D01*
X331955Y-570796D01*
X331849Y-570756D01*
X331745Y-570711D01*
X331642Y-570663D01*
X331541Y-570612D01*
X331442Y-570557D01*
X331345Y-570499D01*
X331250Y-570437D01*
X331157Y-570372D01*
X331067Y-570304D01*
X330979Y-570233D01*
X330893Y-570158D01*
X330810Y-570081D01*
X330730Y-570001D01*
X330653Y-569918D01*
X330578Y-569832D01*
X330507Y-569744D01*
X330439Y-569654D01*
X330374Y-569561D01*
X330312Y-569466D01*
X330254Y-569369D01*
X330199Y-569270D01*
X330148Y-569169D01*
X330100Y-569066D01*
X330055Y-568962D01*
X330015Y-568856D01*
X329978Y-568749D01*
X329945Y-568641D01*
X329915Y-568531D01*
X329890Y-568421D01*
X329868Y-568310D01*
X329851Y-568198D01*
X329837Y-568085D01*
X329827Y-567972D01*
X329821Y-567859D01*
X329819Y-567746D01*
X329819Y-559308D01*
X324499Y-561904D02*
X321254Y-559308D01*
X321254Y-570992D01*
X324499Y-570992D02*
X318008Y-570992D01*
M02*
