G04 EAGLE Gerber RS-274X export*
G75*
%MOMM*%
%FSLAX34Y34*%
%LPD*%
%INSoldermask Bottom*%
%IPPOS*%
%AMOC8*
5,1,8,0,0,1.08239X$1,22.5*%
G01*
%ADD10R,5.203200X3.703200*%
%ADD11R,3.703200X5.203200*%
%ADD12R,3.203200X3.203200*%
%ADD13C,1.981200*%
%ADD14C,1.727200*%
%ADD15C,2.082800*%
%ADD16P,1.649562X8X112.500000*%
%ADD17P,2.034460X8X22.500000*%
%ADD18C,1.879600*%
%ADD19C,0.959600*%


D10*
X342800Y-462800D03*
X342800Y-414800D03*
X342800Y-510800D03*
X342800Y-366800D03*
X520800Y-366800D03*
X520800Y-414800D03*
X520800Y-462800D03*
X520800Y-510800D03*
D11*
X399800Y-330300D03*
X463800Y-330300D03*
D12*
X396800Y-384300D03*
X466800Y-384300D03*
X396800Y-439300D03*
X466800Y-439300D03*
D13*
X520700Y-190500D03*
X546100Y-190500D03*
X571500Y-190500D03*
X596900Y-190500D03*
D14*
X308610Y-210820D02*
X308610Y-226060D01*
X334010Y-226060D02*
X334010Y-210820D01*
X359410Y-210820D02*
X359410Y-226060D01*
X384810Y-226060D02*
X384810Y-210820D01*
X410210Y-210820D02*
X410210Y-226060D01*
D15*
X462788Y22606D03*
X527812Y22606D03*
X462788Y-22606D03*
X527812Y-22606D03*
D16*
X393700Y-12700D03*
X374650Y-25400D03*
X393700Y-38100D03*
D17*
X254000Y-127000D03*
X330200Y-127000D03*
X368300Y-165100D03*
X444500Y-165100D03*
X279400Y-88900D03*
X304800Y-88900D03*
X254000Y-165100D03*
X330200Y-165100D03*
X393700Y-88900D03*
X419100Y-88900D03*
X368300Y-127000D03*
X444500Y-127000D03*
D15*
X596900Y-368300D03*
X596900Y-393700D03*
X596900Y-419100D03*
X596900Y-444500D03*
D18*
X534200Y-139330D03*
X520700Y-125730D03*
D19*
X292100Y-368300D03*
X508000Y-254000D03*
X571500Y-342900D03*
X520700Y-342900D03*
X457200Y-406400D03*
X469900Y-469900D03*
X292100Y-406400D03*
X368300Y-279400D03*
X393700Y-279400D03*
X419100Y-444500D03*
X375920Y-384810D03*
M02*
