M48
;GenerationSoftware,Autodesk,EAGLE,9.6.0*%
;CreationDate,2022-04-15T20:43:19Z*%
FMAT,2
ICI,OFF
METRIC,TZ,000.000
T5C0.350
T4C0.800
T3C0.813
T2C1.000
T1C1.016
%
G90
M71
T1
X35941Y-21844
X38481Y-21844
X41021Y-21844
X46279Y2261
X52781Y2261
X46279Y-2261
X59690Y-44450
X59690Y-41910
X59690Y-39370
X59690Y-36830
X52781Y-2261
X30861Y-21844
X33401Y-21844
T2
X52070Y-19050
X54610Y-19050
X57150Y-19050
X59690Y-19050
T3
X25400Y-16510
X39370Y-8890
X41910Y-8890
X36830Y-12700
X44450Y-12700
X33020Y-16510
X39370Y-1270
X37465Y-2540
X39370Y-3810
X25400Y-12700
X33020Y-12700
X36830Y-16510
X44450Y-16510
X27940Y-8890
X30480Y-8890
T4
X53420Y-13933
X52070Y-12573
T5
X29210Y-36830
X50800Y-25400
X57150Y-34290
X52070Y-34290
X45720Y-40640
X37592Y-38481
X41910Y-44450
X46990Y-46990
X39370Y-27940
X36830Y-27940
X29210Y-40640
M30